<?xml version="1.0" encoding="UTF-8" standalone="no"?>
<!-- Created with Inkscape (http://www.inkscape.org/) -->

<svg
   width="154.68509mm"
   height="88.714981mm"
   viewBox="0 0 154.68509 88.714981"
   version="1.1"
   id="svg1"
   inkscape:version="1.4.2 (ebf0e940d0, 2025-05-08)"
   sodipodi:docname="interrupt_gfx.svg"
   xmlns:inkscape="http://www.inkscape.org/namespaces/inkscape"
   xmlns:sodipodi="http://sodipodi.sourceforge.net/DTD/sodipodi-0.dtd"
   xmlns="http://www.w3.org/2000/svg"
   xmlns:svg="http://www.w3.org/2000/svg">
  <sodipodi:namedview
     id="namedview1"
     pagecolor="#ffffff"
     bordercolor="#000000"
     borderopacity="0.25"
     inkscape:showpageshadow="2"
     inkscape:pageopacity="0.0"
     inkscape:pagecheckerboard="0"
     inkscape:deskcolor="#d1d1d1"
     inkscape:document-units="mm"
     inkscape:zoom="2.3182469"
     inkscape:cx="375.28359"
     inkscape:cy="162.62289"
     inkscape:window-width="1600"
     inkscape:window-height="767"
     inkscape:window-x="0"
     inkscape:window-y="0"
     inkscape:window-maximized="1"
     inkscape:current-layer="layer2" />
  <defs
     id="defs1">
    <rect
       x="411.22297"
       y="263.90118"
       width="60.346282"
       height="20.592624"
       id="rect28" />
    <rect
       x="315.32448"
       y="164.77969"
       width="61.684542"
       height="24.156184"
       id="rect13" />
    <rect
       x="239.8071"
       y="343.48984"
       width="312.92178"
       height="51.159698"
       id="rect5" />
    <rect
       x="315.32448"
       y="164.77969"
       width="61.684542"
       height="24.156184"
       id="rect14" />
    <rect
       x="315.32448"
       y="164.77969"
       width="61.684542"
       height="24.156184"
       id="rect15" />
    <rect
       x="315.32448"
       y="164.77969"
       width="61.684542"
       height="24.156184"
       id="rect18" />
    <rect
       x="315.32448"
       y="164.77969"
       width="61.684542"
       height="24.156184"
       id="rect19" />
    <rect
       x="315.32448"
       y="164.77969"
       width="61.684542"
       height="24.156184"
       id="rect20" />
  </defs>
  <g
     inkscape:label="Primary"
     inkscape:groupmode="layer"
     id="layer1"
     transform="translate(-27.600377,-70.249858)">
    <path
       id="rect2"
       style="opacity:0.15;stroke:#ffffff;stroke-width:0.264583"
       d="M 27.732668,70.382149 H 182.15318 V 158.83255 H 27.732668 Z"
       inkscape:label="overlay" />
    <path
       id="rect1"
       style="fill:#4d4d4d;stroke:#ff0000;stroke-width:1.32292"
       d="m 65.645784,90.881683 h 80.597066 c 4.30655,0 7.77355,3.467004 7.77355,7.77355 v 42.071217 c 0,4.30655 -3.467,7.77355 -7.77355,7.77355 H 65.645784 c -4.306547,0 -7.773551,-3.467 -7.773551,-7.77355 V 98.655233 c 0,-4.306546 3.467004,-7.77355 7.773551,-7.77355 z"
       inkscape:label="interrupt_modal" />
    <path
       id="rect3"
       style="opacity:1;fill:#f9f9f9;stroke-width:2.54357"
       d="m 63.448963,104.41769 h 40.030177 v 37.81726 H 63.448963 Z"
       inkscape:label="img" />
    <path
       id="rect4"
       style="opacity:1;fill:#f9f9f9;stroke-width:2.54357"
       d="m 108.4095,104.41769 h 40.03017 v 37.81726 H 108.4095 Z"
       inkscape:label="ui_controls"
       sodipodi:nodetypes="ccccc" />
    <text
       xml:space="preserve"
       style="font-size:10.5833px;line-height:0px;text-align:end;writing-mode:lr-tb;direction:ltr;text-orientation:upright;text-anchor:end;opacity:1;fill:#f9f9f9;stroke:none;stroke-width:1.32292;stroke-dasharray:none"
       x="92.197914"
       y="102.23058"
       id="text6"
       inkscape:label="Title"><tspan
         sodipodi:role="line"
         id="tspan6"
         style="font-size:10.5833px;stroke-width:1.32292"
         x="92.197914"
         y="102.23058">TITLE</tspan></text>
  </g>
  <g
     inkscape:groupmode="layer"
     id="layer2"
     inkscape:label="ping_rx"
     style="fill:#00ff00"
     transform="translate(-27.600377,-70.249858)">
    <path
       style="font-size:3.90517px;line-height:0px;text-align:end;text-orientation:upright;text-anchor:end;fill:none;stroke:#ff0000;stroke-width:0.48815"
       d="m 110.97353,122.91087 h 1.63605 v 0.32416 h -1.25087 v 0.839 h 1.12884 v 0.32416 h -1.12884 v 1.35956 h -0.38518 z m 2.83926,0.37945 -0.52247,1.41677 h 1.04684 z m -0.21738,-0.37945 h 0.43666 l 1.08498,2.84688 h -0.40043 l -0.25933,-0.73031 H 113.174 l -0.25933,0.73031 h -0.40615 z m 1.93733,0 h 0.38518 v 2.52272 h 1.38626 v 0.32416 h -1.77144 z m 3.88229,0.0934 v 0.37565 q -0.21929,-0.10488 -0.41378,-0.15636 -0.1945,-0.0515 -0.37565,-0.0515 -0.31462,0 -0.48624,0.12204 -0.1697,0.12203 -0.1697,0.34704 0,0.18878 0.1125,0.28602 0.11441,0.0953 0.43094,0.15446 l 0.23263,0.0477 q 0.43095,0.082 0.63498,0.28983 0.20593,0.20594 0.20593,0.55298 0,0.41378 -0.27839,0.62735 -0.27649,0.21356 -0.81231,0.21356 -0.20212,0 -0.43094,-0.0458 -0.22691,-0.0458 -0.47099,-0.13539 v -0.39662 q 0.23454,0.13157 0.45955,0.19831 0.225,0.0667 0.44238,0.0667 0.32988,0 0.50912,-0.12966 0.17924,-0.12967 0.17924,-0.36993 0,-0.20975 -0.12966,-0.32797 -0.12776,-0.11822 -0.42141,-0.17733 l -0.23454,-0.0458 q -0.43094,-0.0858 -0.62353,-0.26886 -0.19259,-0.18305 -0.19259,-0.50912 0,-0.37755 0.26505,-0.59493 0.26696,-0.21738 0.73413,-0.21738 0.20021,0 0.40806,0.0362 0.20784,0.0362 0.42522,0.10869 z m 0.77226,-0.0934 h 1.80004 v 0.32416 h -1.41486 v 0.84281 h 1.35575 v 0.32416 h -1.35575 v 1.03159 h 1.44918 v 0.32416 h -1.83436 z"
       id="text11"
       inkscape:label="FALSE"
       aria-label="FALSE" />
    <path
       d="m 110.97353,107.92925 h 2.40831 v 0.32416 h -1.01061 v 2.52273 h -0.38709 v -2.52273 h -1.01061 z m 4.13017,1.51211 q 0.12395,0.0419 0.24026,0.17924 0.11823,0.1373 0.23645,0.37756 l 0.3909,0.77798 h -0.41378 l -0.36421,-0.73031 q -0.1411,-0.28603 -0.27458,-0.37946 -0.13157,-0.0934 -0.36039,-0.0934 h -0.4195 v 1.20321 h -0.38518 v -2.84689 h 0.86951 q 0.48815,0 0.72841,0.20403 0.24026,0.20403 0.24026,0.61591 0,0.26886 -0.12585,0.44619 -0.12394,0.17734 -0.3623,0.24598 z m -0.96485,-1.19557 v 1.01061 h 0.48433 q 0.2784,0 0.4195,-0.12776 0.14302,-0.12966 0.14302,-0.37945 0,-0.2498 -0.14302,-0.37565 -0.1411,-0.12775 -0.4195,-0.12775 z m 2.28437,-0.31654 h 0.38709 v 1.72949 q 0,0.45764 0.16589,0.65976 0.16589,0.20022 0.53772,0.20022 0.36993,0 0.53582,-0.20022 0.1659,-0.20212 0.1659,-0.65976 v -1.72949 h 0.38708 v 1.77716 q 0,0.55679 -0.27649,0.84091 -0.27458,0.28412 -0.81231,0.28412 -0.53963,0 -0.81611,-0.28412 -0.27459,-0.28412 -0.27459,-0.84091 z m 2.90219,0 h 1.80003 v 0.32416 h -1.41486 v 0.84282 h 1.35575 v 0.32416 h -1.35575 v 1.03159 h 1.44919 v 0.32416 h -1.83436 z"
       id="text10"
       style="font-size:3.90517px;line-height:0px;text-align:end;text-orientation:upright;text-anchor:end;fill:none;stroke:#008000;stroke-width:0.48815"
       inkscape:label="TRUE"
       aria-label="TRUE" />
    <path
       id="rect6"
       style="baseline-shift:baseline;display:inline;overflow:visible;vector-effect:none;enable-background:accumulate;stop-color:#000000;stop-opacity:1;opacity:1"
       d="M 66.872916 106.15619 L 66.872916 138.60331 L 99.320548 138.60331 L 99.320548 106.15619 L 66.872916 106.15619 z M 68.195316 107.47859 L 77.074361 107.47859 L 77.074361 116.09564 L 73.056518 116.09564 L 68.195316 116.22276 L 68.195316 107.47859 z M 78.398311 107.47859 L 87.795154 107.47859 L 87.795154 116.09564 L 78.398311 116.09564 L 78.398311 107.47859 z M 89.117037 107.47859 L 97.998148 107.47859 L 97.998148 116.09564 L 89.117037 116.09564 L 89.117037 107.47859 z M 73.074088 117.41804 L 77.074361 117.41804 L 77.074361 127.26343 L 68.195316 127.26343 L 68.195316 117.54568 L 73.074088 117.41804 z M 78.398311 117.41804 L 87.795154 117.41804 L 87.795154 127.26343 L 78.398311 127.26343 L 78.398311 117.41804 z M 89.117037 117.41804 L 97.998148 117.41804 L 97.998148 127.26343 L 89.117037 127.26343 L 89.117037 117.41804 z M 68.195316 128.58583 L 77.074361 128.58583 L 77.074361 137.28143 L 68.195316 137.28143 L 68.195316 128.58583 z M 78.398311 128.58583 L 87.795154 128.58583 L 87.795154 137.28143 L 78.398311 137.28143 L 78.398311 128.58583 z M 89.117037 128.58583 L 97.998148 128.58583 L 97.998148 137.28143 L 89.117037 137.28143 L 89.117037 128.58583 z "
       transform="translate(-1.1875e-6)"
       inkscape:label="mini_map" />
    <g
       id="g29"
       inkscape:label="selection areas">
      <rect
         style="opacity:1;fill:none;stroke:#000000;stroke-width:0.264583;stroke-dasharray:none"
         id="rect21"
         width="10.065228"
         height="9.030098"
         x="110.56834"
         y="127.09554"
         inkscape:label="select_area"
         transform="translate(-1.1875e-6)" />
      <rect
         style="opacity:1;fill:none;stroke:#000000;stroke-width:0.264583;stroke-dasharray:none"
         id="rect22"
         width="10.065228"
         height="9.030098"
         x="123.46423"
         y="127.09554"
         inkscape:label="select_area"
         transform="translate(-1.1875e-6)" />
      <rect
         style="opacity:1;fill:none;stroke:#000000;stroke-width:0.264583;stroke-dasharray:none"
         id="rect23"
         width="10.065228"
         height="9.030098"
         x="136.60812"
         y="127.09554"
         inkscape:label="select_area"
         transform="translate(-1.1875e-6)" />
      <rect
         style="opacity:1;fill:none;stroke:#000000;stroke-width:0.264583;stroke-dasharray:none"
         id="rect24"
         width="10.065228"
         height="9.030098"
         x="110.56834"
         y="111.69075"
         inkscape:label="select_area"
         transform="translate(-1.1875e-6)" />
      <rect
         style="opacity:1;fill:none;stroke:#000000;stroke-width:0.264583;stroke-dasharray:none"
         id="rect25"
         width="10.065228"
         height="9.030098"
         x="123.46423"
         y="111.69075"
         inkscape:label="select_area"
         transform="translate(-1.1875e-6)" />
      <rect
         style="opacity:1;fill:none;stroke:#000000;stroke-width:0.264583;stroke-dasharray:none"
         id="rect26"
         width="10.065228"
         height="9.030098"
         x="136.60812"
         y="111.69075"
         inkscape:label="select_area"
         transform="translate(-1.1875e-6)" />
    </g>
    <text
       xml:space="preserve"
       transform="matrix(0.26458333,0,0,0.26458333,17.899261,70.59225)"
       id="text13"
       style="font-style:normal;font-variant:normal;font-weight:normal;font-stretch:normal;font-size:10px;line-height:0px;font-family:'Noto Sans Sinhala UI';-inkscape-font-specification:'Noto Sans Sinhala UI';text-align:end;writing-mode:lr-tb;direction:ltr;text-orientation:upright;white-space:pre;shape-inside:url(#rect13);display:inline;opacity:1;fill:#000000;stroke:none;stroke-width:5;stroke-dasharray:none"
       inkscape:label="true_row"><tspan
         x="359.73975"
         y="167.62805"
         id="tspan9">row</tspan></text>
    <text
       xml:space="preserve"
       transform="matrix(0.26458333,0,0,0.26458333,33.129492,70.59225)"
       id="text14"
       style="font-style:normal;font-variant:normal;font-weight:normal;font-stretch:normal;font-size:10px;line-height:0px;font-family:'Noto Sans Sinhala UI';-inkscape-font-specification:'Noto Sans Sinhala UI';text-align:end;writing-mode:lr-tb;direction:ltr;text-orientation:upright;white-space:pre;shape-inside:url(#rect14);display:inline;opacity:1;fill:#000000;stroke:none;stroke-width:5;stroke-dasharray:none"
       inkscape:label="true_column"><tspan
         x="343.77977"
         y="167.62805"
         id="tspan10">column</tspan></text>
    <text
       xml:space="preserve"
       transform="matrix(0.26458333,0,0,0.26458333,45.901381,70.59225)"
       id="text15"
       style="font-style:normal;font-variant:normal;font-weight:normal;font-stretch:normal;font-size:10px;line-height:0px;font-family:'Noto Sans Sinhala UI';-inkscape-font-specification:'Noto Sans Sinhala UI';text-align:end;writing-mode:lr-tb;direction:ltr;text-orientation:upright;white-space:pre;shape-inside:url(#rect15);display:inline;opacity:1;fill:#000000;stroke:none;stroke-width:5;stroke-dasharray:none"
       inkscape:label="true_sector"><tspan
         x="349.36975"
         y="167.62805"
         id="tspan11">sector</tspan></text>
    <text
       xml:space="preserve"
       transform="matrix(0.26458333,0,0,0.26458333,17.899261,84.993268)"
       id="text16"
       style="font-style:normal;font-variant:normal;font-weight:normal;font-stretch:normal;font-size:10px;line-height:0px;font-family:'Noto Sans Sinhala UI';-inkscape-font-specification:'Noto Sans Sinhala UI';text-align:end;writing-mode:lr-tb;direction:ltr;text-orientation:upright;white-space:pre;shape-inside:url(#rect18);display:inline;opacity:1;fill:#000000;stroke:none;stroke-width:5;stroke-dasharray:none"
       inkscape:label="false_row"><tspan
         x="359.73975"
         y="167.62805"
         id="tspan12">row</tspan></text>
    <text
       xml:space="preserve"
       transform="matrix(0.26458333,0,0,0.26458333,33.129492,84.993268)"
       id="text17"
       style="font-style:normal;font-variant:normal;font-weight:normal;font-stretch:normal;font-size:10px;line-height:0px;font-family:'Noto Sans Sinhala UI';-inkscape-font-specification:'Noto Sans Sinhala UI';text-align:end;writing-mode:lr-tb;direction:ltr;text-orientation:upright;white-space:pre;shape-inside:url(#rect19);display:inline;opacity:1;fill:#000000;stroke:none;stroke-width:5;stroke-dasharray:none"
       inkscape:label="false_column"><tspan
         x="343.77977"
         y="167.62805"
         id="tspan13">column</tspan></text>
    <text
       xml:space="preserve"
       transform="matrix(0.26458333,0,0,0.26458333,45.901381,84.993268)"
       id="text18"
       style="font-style:normal;font-variant:normal;font-weight:normal;font-stretch:normal;font-size:10px;line-height:0px;font-family:'Noto Sans Sinhala UI';-inkscape-font-specification:'Noto Sans Sinhala UI';text-align:end;writing-mode:lr-tb;direction:ltr;text-orientation:upright;white-space:pre;shape-inside:url(#rect20);display:inline;opacity:1;fill:#000000;stroke:none;stroke-width:5;stroke-dasharray:none"
       inkscape:label="false_sector"><tspan
         x="349.36975"
         y="167.62805"
         id="tspan14">sector</tspan></text>
  </g>
  <g
     inkscape:groupmode="layer"
     id="layer4"
     inkscape:label="interrupt_buttons">
    <path
       id="rect27"
       style="opacity:1;fill:#008080;stroke:none;stroke-width:0.291432;stroke-dasharray:none"
       d="M 134.89254 138.39402 L 134.89254 148.49986 L 146.24275 148.49986 C 150.5493 148.49986 154.01643 145.03324 154.01643 140.72669 L 154.01643 138.39402 L 134.89254 138.39402 z "
       transform="translate(-27.600378,-70.249857)"
       inkscape:label="confirm" />
    <text
       xml:space="preserve"
       transform="matrix(0.43639695,0,0,0.43639695,-81.51123,-42.172411)"
       id="text27"
       style="font-style:normal;font-variant:normal;font-weight:normal;font-stretch:normal;font-size:10px;line-height:0px;font-family:'Noto Sans Sinhala UI';-inkscape-font-specification:'Noto Sans Sinhala UI';text-align:end;writing-mode:lr-tb;direction:ltr;text-orientation:upright;white-space:pre;shape-inside:url(#rect28);display:inline;opacity:1;fill:#000000;stroke:none;stroke-width:1;stroke-dasharray:none"
       inkscape:label="confirm"><tspan
         x="437.06835"
         y="266.74914"
         id="tspan15">confirm</tspan></text>
    <path
       id="rect29"
       style="opacity:1;fill:none;stroke:#000000;stroke-width:0.264583"
       transform="translate(-27.600378,-70.249857)"
       d="m 113.36182,138.41045 h 21.53069 v 10.08939 h -21.53069 z"
       inkscape:label="extra_buttons" />
  </g>
</svg>
