<?xml version="1.0" encoding="UTF-8" standalone="no"?>
<!-- Created with Inkscape (http://www.inkscape.org/) -->

<svg
   width="47"
   height="47.448593"
   viewBox="0 0 47 47.448593"
   version="1.1"
   id="svg1"
   xml:space="preserve"
   xmlns:xlink="http://www.w3.org/1999/xlink"
   xmlns="http://www.w3.org/2000/svg"
   xmlns:svg="http://www.w3.org/2000/svg"><defs
     id="defs1"><linearGradient
       id="linearGradient42"><stop
         style="stop-color:#ffffff;stop-opacity:1;"
         offset="0"
         id="stop42" /><stop
         style="stop-color:#ffffff;stop-opacity:0;"
         offset="1"
         id="stop43" /></linearGradient><linearGradient
       xlink:href="#linearGradient42"
       id="linearGradient1158"
       x1="107.59523"
       y1="102.8501"
       x2="117.10061"
       y2="112.35548"
       gradientUnits="userSpaceOnUse" /></defs><g
     id="layer4"
     style="display:inline"
     transform="translate(-316.10651,-34.646317)"><g
       id="g3845"
       style="display:inline"
       transform="matrix(2.4722841,0,0,2.4722841,68.922855,-214.31561)"><path
         id="path8"
         style="display:inline;fill:none;fill-opacity:1;stroke:url(#linearGradient1158);stroke-width:0.397;stroke-linecap:butt;stroke-linejoin:round;stroke-dasharray:none;paint-order:markers fill stroke"
         transform="matrix(2,0,0,2,-115.20856,-104.81757)"
         d="m 114.40396,103.53913 a 4.5541911,4.5541911 0 0 1 2.49815,4.06366 4.5541911,4.5541911 0 0 1 -4.55419,4.55419 4.5541911,4.5541911 0 0 1 -4.55419,-4.55419 4.5541911,4.5541911 0 0 1 4.55419,-4.55419 4.5541911,4.5541911 0 0 1 1.09664,0.13401 m 0.55266,1.17151 a 3.643353,3.643353 0 0 1 1.99406,3.24867 3.643353,3.643353 0 0 1 -3.64336,3.64335 3.643353,3.643353 0 0 1 -3.64335,-3.64335 3.643353,3.643353 0 0 1 3.64335,-3.64335 3.643353,3.643353 0 0 1 0.88192,0.10835 m -0.0799,1.9844 a 1.745733,1.745733 0 0 1 0.94371,1.5506 1.745733,1.745733 0 0 1 -1.74573,1.74573 1.745733,1.745733 0 0 1 -1.74573,-1.74573 1.745733,1.745733 0 0 1 1.74573,-1.74574 1.745733,1.745733 0 0 1 0.43435,0.0549 m 0.77569,-0.67736 a 2.6594286,2.6594286 0 0 1 1.44939,2.3682 v 0 a 2.6594286,2.6594286 0 0 1 -2.65943,2.65943 2.6594286,2.6594286 0 0 1 -2.65943,-2.65943 2.6594286,2.6594286 0 0 1 2.65943,-2.65943 2.6594286,2.6594286 0 0 1 0.64979,0.0806" /><path
         style="display:inline;fill:none;fill-opacity:1;stroke:#ffffff;stroke-width:0.565;stroke-linecap:round;stroke-linejoin:round;stroke-dasharray:none;stroke-opacity:1"
         d="m 109.52695,110.42124 2.37368,-9.43756"
         id="path538" /></g></g><g
     id="layer2"
     style="display:none"
     transform="translate(-316.10651,-34.646317)"><g
       id="g47"
       transform="translate(0.09806562,0.32612114)"
       style="display:inline"><use
         x="0"
         y="0"
         xlink:href="#rect15"
         id="use16"
         transform="translate(154.75017,-0.03934479)" /><use
         x="0"
         y="0"
         xlink:href="#rect15"
         id="use15"
         transform="translate(77.375085)" /><rect
         style="fill:none;stroke:#008000;stroke-width:0.920947"
         id="rect15"
         width="72.860466"
         height="72.175049"
         x="225.80121"
         y="22.283091" /></g><use
       x="0"
       y="0"
       xlink:href="#path50"
       id="use52"
       transform="translate(77.375086)" /><path
       id="path50"
       style="display:none;fill:#999999;stroke:none;stroke-width:0.967665"
       d="m 238.95508,26.715341 c -4.61212,0 -8.37892,3.768737 -8.37892,8.38086 v 46.550781 c 0,4.612124 3.7668,8.378907 8.37892,8.378907 h 46.55273 c 4.61212,0 8.37891,-3.766783 8.37891,-8.378907 V 35.096201 c 0,-4.612123 -3.76679,-8.38086 -8.37891,-8.38086 z m 10.24023,3.5 h 36.3125 c 2.73365,0 4.87891,2.147197 4.87891,4.88086 v 37.666015 h -12.1836 c -1.6214,-2e-6 -2.93554,1.314155 -2.93554,2.935548 v 10.828125 h -36.3125 c -2.73367,0 -4.87892,-2.145245 -4.87892,-4.878907 V 43.980966 h 12.18361 c 1.62138,3e-6 2.93554,-1.314155 2.93554,-2.935546 z" /></g><g
     id="layer1"
     style="display:none"
     transform="translate(-316.10651,-34.646317)"><rect
       style="display:inline;fill:none;stroke:#000080"
       id="rect3"
       width="453.37231"
       height="360"
       x="0"
       y="0" /></g></svg>
