<?xml version="1.0" encoding="UTF-8" standalone="no"?>
<!-- Created with Inkscape (http://www.inkscape.org/) -->

<svg
   width="0.72269684in"
   height="1.0416665in"
   viewBox="0 0 18.356499 26.458329"
   version="1.1"
   id="svg5"
   inkscape:version="1.4.2 (ebf0e940d0, 2025-05-08)"
   sodipodi:docname="5_gauge.svg"
   xml:space="preserve"
   xmlns:inkscape="http://www.inkscape.org/namespaces/inkscape"
   xmlns:sodipodi="http://sodipodi.sourceforge.net/DTD/sodipodi-0.dtd"
   xmlns="http://www.w3.org/2000/svg"
   xmlns:svg="http://www.w3.org/2000/svg"><sodipodi:namedview
     id="namedview7"
     pagecolor="#ffffff"
     bordercolor="#666666"
     borderopacity="1.0"
     inkscape:showpageshadow="2"
     inkscape:pageopacity="0.0"
     inkscape:pagecheckerboard="0"
     inkscape:deskcolor="#d1d1d1"
     inkscape:document-units="mm"
     showgrid="false"
     inkscape:zoom="2.7135476"
     inkscape:cx="74.072775"
     inkscape:cy="66.70235"
     inkscape:window-width="1600"
     inkscape:window-height="767"
     inkscape:window-x="0"
     inkscape:window-y="0"
     inkscape:window-maximized="1"
     inkscape:current-layer="layer1"
     showguides="true"><inkscape:grid
       type="xygrid"
       id="grid1674"
       originx="-760.52148"
       originy="-631.47467"
       spacingy="1"
       spacingx="1"
       units="mm"
       visible="false" /><sodipodi:guide
       position="9.1782101,11.536249"
       orientation="-1,0"
       id="guide4"
       inkscape:locked="false"
       inkscape:label=""
       inkscape:color="rgb(0,134,229)" /><sodipodi:guide
       position="5.9209935,18.319214"
       orientation="0,1"
       id="guide11"
       inkscape:locked="false"
       inkscape:label=""
       inkscape:color="rgb(0,134,229)" /><sodipodi:guide
       position="5.9209935,13.794854"
       orientation="0,1"
       id="guide12"
       inkscape:locked="false"
       inkscape:label=""
       inkscape:color="rgb(0,134,229)" /><sodipodi:guide
       position="-0.42556603,9.263544"
       orientation="0,1"
       id="guide13"
       inkscape:locked="false"
       inkscape:label=""
       inkscape:color="rgb(0,134,229)" /><sodipodi:guide
       position="5.9207036,4.7455498"
       orientation="0,-1"
       id="guide14"
       inkscape:locked="false" /></sodipodi:namedview><defs
     id="defs2" /><g
     inkscape:label="Button Layer"
     inkscape:groupmode="layer"
     id="layer1"
     style="display:inline"
     transform="translate(-201.22131,-167.07767)"><path
       style="display:none;fill:#ffffff;fill-rule:evenodd;stroke-width:0.661458;stroke-linecap:round"
       d="m 210.20887,183.72987 v 6.31486 h 3.20601 c 1.78339,0 3.19102,-1.40608 3.19102,-3.18947 v -3.12539 z"
       id="path33"
       inkscape:label="6 gauge_1" /><path
       style="display:none;fill:#ffffff;fill-rule:evenodd;stroke-width:0.661458;stroke-linecap:round"
       d="m 203.0181,183.72987 v 3.12539 c 0,1.78339 1.40815,3.18947 3.19154,3.18947 h 3.20652 v -6.31486 z"
       id="path32"
       inkscape:label="6 gauge_2" /><path
       style="display:none;fill:#ffffff;fill-rule:evenodd;stroke-width:0.661458;stroke-linecap:round"
       d="m 210.20887,176.10501 v 6.83214 h 6.39703 v -6.83214 z"
       id="path31"
       inkscape:label="6 gauge_3" /><path
       style="display:none;fill:#ffffff;fill-rule:evenodd;stroke-width:0.661458;stroke-linecap:round"
       d="m 203.0181,176.10501 v 6.83214 h 6.39806 v -6.83214 z"
       id="path30"
       inkscape:label="6 gauge_4" /><path
       style="display:none;fill:#ffffff;fill-rule:evenodd;stroke-width:0.661458;stroke-linecap:round"
       d="m 210.20887,168.87651 v 6.43372 h 6.39703 v -3.24218 c 0,-1.78339 -1.40763,-3.19154 -3.19102,-3.19154 z"
       id="path29"
       inkscape:label="6 gauge_6" /><path
       style="display:none;fill:#ffffff;fill-rule:evenodd;stroke-width:0.661458;stroke-linecap:round"
       d="m 206.20964,168.87651 c -1.78339,0 -3.19154,1.40815 -3.19154,3.19154 v 3.24218 h 6.39806 v -6.43372 z"
       id="path28"
       inkscape:label="6 gauge_5" /><path
       id="path26"
       style="color:#000000;display:none;fill:#008000;fill-rule:evenodd;-inkscape-stroke:none"
       d="m 206.20964,167.07743 c -2.74838,0 -4.98833,2.24201 -4.98833,4.99039 v 14.78721 c 0,2.74838 2.23995,4.98781 4.98833,4.98781 h 7.20524 c 2.74838,0 4.98833,-2.23943 4.98833,-4.98781 v -14.78721 c 0,-2.74838 -2.23995,-4.99039 -4.98833,-4.99039 z m 0,1.79885 h 3.20652 V 175.31 h -6.39806 v -3.24218 c 0,-1.78339 1.40815,-3.19154 3.19154,-3.19154 z m 3.99923,0 h 3.20601 c 1.78339,0 3.19102,1.40815 3.19102,3.19154 V 175.31 h -6.39703 z m -7.19077,7.2285 h 6.39806 v 6.83215 h -6.39806 z m 7.19077,0 h 6.39703 v 6.83215 h -6.39703 z m -7.19077,7.62486 h 6.39806 v 6.31486 h -3.20652 c -1.78339,0 -3.19154,-1.40608 -3.19154,-3.18947 z m 7.19077,0 h 6.39703 v 3.12539 c 0,1.78339 -1.40763,3.18947 -3.19102,3.18947 h -3.20601 z"
       inkscape:label="6 gauge"
       inkscape:export-filename="..\..\..\..\web_dev_ai\sonar\.design\assets\6_gauge_fill6.svg"
       inkscape:export-xdpi="97.1796"
       inkscape:export-ydpi="97.1796" /><path
       id="path34"
       style="color:#000000;display:inline;fill:#ff00ff;fill-rule:evenodd;stroke-width:1.06836;-inkscape-stroke:none"
       inkscape:label="5 gauge"
       d="M 206.5507 167.07767 C 203.61445 167.07767 201.22131 169.47288 201.22131 172.40913 L 201.22131 188.20713 C 201.22131 191.14339 203.61445 193.536 206.5507 193.536 L 214.24842 193.536 C 217.18468 193.536 219.57781 191.14339 219.57781 188.20713 L 219.57781 172.40913 C 219.57781 169.47288 217.18468 167.07767 214.24842 167.07767 L 206.5507 167.07767 z M 206.5507 168.99952 L 208.26377 168.99952 L 209.97633 168.99952 L 210.82331 168.99952 L 213.10844 168.99952 L 214.24842 168.99952 C 216.15372 168.99952 217.65752 170.50384 217.65752 172.40913 L 217.65752 172.67681 L 203.14109 172.67681 L 203.14109 172.40913 C 203.14109 170.50384 204.6454 168.99952 206.5507 168.99952 z M 203.14109 173.52379 L 217.65752 173.52379 L 217.65752 175.873 L 217.65803 175.873 L 217.65803 176.72204 L 217.65803 177.62483 L 217.657 177.62483 L 217.657 177.48375 L 203.14161 177.48375 L 203.14161 176.72204 L 203.14109 176.72204 L 203.14109 175.873 L 203.14109 173.52379 z M 203.14161 178.3235 L 217.657 178.3235 L 217.657 178.47181 L 217.65803 178.47181 L 217.65803 182.1491 L 217.657 182.1491 L 217.657 182.29328 L 203.14161 182.29328 L 203.14161 182.1491 L 203.14161 181.55172 L 203.14161 178.61237 L 203.14161 178.47181 L 203.14161 178.3235 z M 217.657 182.99608 L 217.65803 182.99608 L 217.65803 184.02134 L 217.65752 184.02134 L 217.65752 184.86832 L 217.65752 185.29775 L 217.65752 187.0904 L 203.14109 187.0904 L 203.14109 184.86832 L 203.14161 184.86832 L 203.14161 184.02134 L 203.14161 183.13302 L 217.657 183.13302 L 217.657 182.99608 z M 203.14109 187.93738 L 217.65752 187.93738 L 217.65752 188.20713 C 217.65752 190.11243 216.15372 191.61467 214.24842 191.61467 L 213.10844 191.61467 L 210.82331 191.61467 L 209.97633 191.61467 L 208.26377 191.61467 L 206.5507 191.61467 C 204.6454 191.61467 203.14109 190.11243 203.14109 188.20713 L 203.14109 187.93738 z " /></g></svg>
