<?xml version="1.0" encoding="UTF-8" standalone="no"?>
<!-- Created with Inkscape (http://www.inkscape.org/) -->

<svg
   width="157.03709"
   height="49.677734"
   viewBox="0 0 41.549396 13.143901"
   version="1.1"
   id="svg5"
   inkscape:version="1.4.2 (ebf0e940d0, 2025-05-08)"
   sodipodi:docname="5_gauge.svg"
   xml:space="preserve"
   xmlns:inkscape="http://www.inkscape.org/namespaces/inkscape"
   xmlns:sodipodi="http://sodipodi.sourceforge.net/DTD/sodipodi-0.dtd"
   xmlns="http://www.w3.org/2000/svg"
   xmlns:svg="http://www.w3.org/2000/svg"><sodipodi:namedview
     id="namedview7"
     pagecolor="#000000"
     bordercolor="#666666"
     borderopacity="1.0"
     inkscape:showpageshadow="2"
     inkscape:pageopacity="0.0"
     inkscape:pagecheckerboard="0"
     inkscape:deskcolor="#d1d1d1"
     inkscape:document-units="mm"
     showgrid="false"
     inkscape:zoom="2"
     inkscape:cx="50.5"
     inkscape:cy="41.5"
     inkscape:window-width="1600"
     inkscape:window-height="767"
     inkscape:window-x="0"
     inkscape:window-y="0"
     inkscape:window-maximized="1"
     inkscape:current-layer="layer1"
     showguides="true"><inkscape:grid
       type="xygrid"
       id="grid1674"
       originx="-741.37952"
       originy="-635.52557"
       spacingy="1"
       spacingx="1"
       units="mm"
       visible="false" /><sodipodi:guide
       position="28.320189,2.2727403"
       orientation="-1,0"
       id="guide4"
       inkscape:locked="false"
       inkscape:label=""
       inkscape:color="rgb(0,134,229)" /><sodipodi:guide
       position="25.062973,9.0557054"
       orientation="0,1"
       id="guide11"
       inkscape:locked="false"
       inkscape:label=""
       inkscape:color="rgb(0,134,229)" /><sodipodi:guide
       position="25.062973,4.5313453"
       orientation="0,1"
       id="guide12"
       inkscape:locked="false"
       inkscape:label=""
       inkscape:color="rgb(0,134,229)" /><sodipodi:guide
       position="18.716413,3.5284094e-05"
       orientation="0,1"
       id="guide13"
       inkscape:locked="false"
       inkscape:label=""
       inkscape:color="rgb(0,134,229)" /><sodipodi:guide
       position="25.062683,-4.5179592"
       orientation="0,-1"
       id="guide14"
       inkscape:locked="false" /></sodipodi:namedview><defs
     id="defs2" /><g
     inkscape:label="Button Layer"
     inkscape:groupmode="layer"
     id="layer1"
     style="display:inline"
     transform="translate(-182.07933,-171.12859)"><path
       style="display:none;fill:#ffffff;fill-rule:evenodd;stroke-width:0.661458;stroke-linecap:round"
       d="m 210.20887,183.72987 v 6.31486 h 3.20601 c 1.78339,0 3.19102,-1.40608 3.19102,-3.18947 v -3.12539 z"
       id="path33"
       inkscape:label="6 gauge_1" /><path
       style="display:none;fill:#ffffff;fill-rule:evenodd;stroke-width:0.661458;stroke-linecap:round"
       d="m 203.0181,183.72987 v 3.12539 c 0,1.78339 1.40815,3.18947 3.19154,3.18947 h 3.20652 v -6.31486 z"
       id="path32"
       inkscape:label="6 gauge_2" /><path
       style="display:none;fill:#ffffff;fill-rule:evenodd;stroke-width:0.661458;stroke-linecap:round"
       d="m 210.20887,176.10501 v 6.83214 h 6.39703 v -6.83214 z"
       id="path31"
       inkscape:label="6 gauge_3" /><path
       style="display:none;fill:#ffffff;fill-rule:evenodd;stroke-width:0.661458;stroke-linecap:round"
       d="m 203.0181,176.10501 v 6.83214 h 6.39806 v -6.83214 z"
       id="path30"
       inkscape:label="6 gauge_4" /><path
       style="display:none;fill:#ffffff;fill-rule:evenodd;stroke-width:0.661458;stroke-linecap:round"
       d="m 210.20887,168.87651 v 6.43372 h 6.39703 v -3.24218 c 0,-1.78339 -1.40763,-3.19154 -3.19102,-3.19154 z"
       id="path29"
       inkscape:label="6 gauge_6" /><path
       style="display:none;fill:#ffffff;fill-rule:evenodd;stroke-width:0.661458;stroke-linecap:round"
       d="m 206.20964,168.87651 c -1.78339,0 -3.19154,1.40815 -3.19154,3.19154 v 3.24218 h 6.39806 v -6.43372 z"
       id="path28"
       inkscape:label="6 gauge_5" /><path
       id="path26"
       style="color:#000000;display:none;fill:#008000;fill-rule:evenodd;-inkscape-stroke:none"
       d="m 206.20964,167.07743 c -2.74838,0 -4.98833,2.24201 -4.98833,4.99039 v 14.78721 c 0,2.74838 2.23995,4.98781 4.98833,4.98781 h 7.20524 c 2.74838,0 4.98833,-2.23943 4.98833,-4.98781 v -14.78721 c 0,-2.74838 -2.23995,-4.99039 -4.98833,-4.99039 z m 0,1.79885 h 3.20652 V 175.31 h -6.39806 v -3.24218 c 0,-1.78339 1.40815,-3.19154 3.19154,-3.19154 z m 3.99923,0 h 3.20601 c 1.78339,0 3.19102,1.40815 3.19102,3.19154 V 175.31 h -6.39703 z m -7.19077,7.2285 h 6.39806 v 6.83215 h -6.39806 z m 7.19077,0 h 6.39703 v 6.83215 h -6.39703 z m -7.19077,7.62486 h 6.39806 v 6.31486 h -3.20652 c -1.78339,0 -3.19154,-1.40608 -3.19154,-3.18947 z m 7.19077,0 h 6.39703 v 3.12539 c 0,1.78339 -1.40763,3.18947 -3.19102,3.18947 h -3.20601 z"
       inkscape:label="6 gauge"
       inkscape:export-filename="..\..\..\..\web_dev_ai\sonar\.design\assets\6_gauge_fill6.svg"
       inkscape:export-xdpi="97.1796"
       inkscape:export-ydpi="97.1796" /><path
       id="path34"
       style="color:#000000;display:inline;fill:#ffffff;fill-rule:evenodd;stroke-width:1.06836;-inkscape-stroke:none"
       inkscape:label="5 gauge"
       d="m 192.43218,171.12859 c -4.57749,0 -5.30336,2.39314 -6.68279,5.32939 -1.21925,2.60674 -2.45388,5.20633 -3.67002,7.81451 h 41.54836 c 8.5e-4,-0.0388 10e-4,-0.0778 10e-4,-0.11679 v -8.93892 c 0,-2.41832 -1.87728,-4.08819 -4.81353,-4.08819 h -9.43521 -6.88072 z"
       sodipodi:nodetypes="scccsssccs" /></g></svg>
