<?xml version="1.0" encoding="UTF-8" standalone="no"?>
<!-- Created with Inkscape (http://www.inkscape.org/) -->

<svg
   width="0.67645258in"
   height="0.9750163in"
   viewBox="0 0 17.181895 24.765414"
   version="1.1"
   id="svg5"
   inkscape:version="1.3 (0e150ed6c4, 2023-07-21)"
   sodipodi:docname="Control Panel Layout.svg"
   xml:space="preserve"
   xmlns:inkscape="http://www.inkscape.org/namespaces/inkscape"
   xmlns:sodipodi="http://sodipodi.sourceforge.net/DTD/sodipodi-0.dtd"
   xmlns="http://www.w3.org/2000/svg"
   xmlns:svg="http://www.w3.org/2000/svg"><sodipodi:namedview
     id="namedview7"
     pagecolor="#ffffff"
     bordercolor="#666666"
     borderopacity="1.0"
     inkscape:showpageshadow="2"
     inkscape:pageopacity="0.0"
     inkscape:pagecheckerboard="0"
     inkscape:deskcolor="#d1d1d1"
     inkscape:document-units="mm"
     showgrid="false"
     inkscape:zoom="2"
     inkscape:cx="425.5"
     inkscape:cy="451.25"
     inkscape:window-width="2880"
     inkscape:window-height="1526"
     inkscape:window-x="-11"
     inkscape:window-y="-11"
     inkscape:window-maximized="1"
     inkscape:current-layer="layer1"
     showguides="true"><inkscape:grid
       type="xygrid"
       id="grid1674"
       originx="-760.5215"
       originy="-631.47465"
       spacingy="1"
       spacingx="1"
       units="mm"
       visible="false" /></sodipodi:namedview><defs
     id="defs2" /><g
     inkscape:label="Button Layer"
     inkscape:groupmode="layer"
     id="layer1"
     style="display:inline"
     transform="translate(-201.22131,-167.07767)"><path
       style="display:none;fill:#ffffff;fill-rule:evenodd;stroke-width:0.661458;stroke-linecap:round"
       d="m 210.20887,183.72987 v 6.31486 h 3.20601 c 1.78339,0 3.19102,-1.40608 3.19102,-3.18947 v -3.12539 z"
       id="path33"
       inkscape:label="6 gauge_1" /><path
       style="display:none;fill:#ffffff;fill-rule:evenodd;stroke-width:0.661458;stroke-linecap:round"
       d="m 203.0181,183.72987 v 3.12539 c 0,1.78339 1.40815,3.18947 3.19154,3.18947 h 3.20652 v -6.31486 z"
       id="path32"
       inkscape:label="6 gauge_2" /><path
       style="display:none;fill:#ffffff;fill-rule:evenodd;stroke-width:0.661458;stroke-linecap:round"
       d="m 210.20887,176.10501 v 6.83214 h 6.39703 v -6.83214 z"
       id="path31"
       inkscape:label="6 gauge_3" /><path
       style="display:none;fill:#ffffff;fill-rule:evenodd;stroke-width:0.661458;stroke-linecap:round"
       d="m 203.0181,176.10501 v 6.83214 h 6.39806 v -6.83214 z"
       id="path30"
       inkscape:label="6 gauge_4" /><path
       style="display:none;fill:#ffffff;fill-rule:evenodd;stroke-width:0.661458;stroke-linecap:round"
       d="m 210.20887,168.87651 v 6.43372 h 6.39703 v -3.24218 c 0,-1.78339 -1.40763,-3.19154 -3.19102,-3.19154 z"
       id="path29"
       inkscape:label="6 gauge_6" /><path
       style="display:none;fill:#ffffff;fill-rule:evenodd;stroke-width:0.661458;stroke-linecap:round"
       d="m 206.20964,168.87651 c -1.78339,0 -3.19154,1.40815 -3.19154,3.19154 v 3.24218 h 6.39806 v -6.43372 z"
       id="path28"
       inkscape:label="6 gauge_5" /><path
       id="path26"
       style="color:#000000;display:none;fill:#008000;fill-rule:evenodd;-inkscape-stroke:none"
       d="m 206.20964,167.07743 c -2.74838,0 -4.98833,2.24201 -4.98833,4.99039 v 14.78721 c 0,2.74838 2.23995,4.98781 4.98833,4.98781 h 7.20524 c 2.74838,0 4.98833,-2.23943 4.98833,-4.98781 v -14.78721 c 0,-2.74838 -2.23995,-4.99039 -4.98833,-4.99039 z m 0,1.79885 h 3.20652 V 175.31 h -6.39806 v -3.24218 c 0,-1.78339 1.40815,-3.19154 3.19154,-3.19154 z m 3.99923,0 h 3.20601 c 1.78339,0 3.19102,1.40815 3.19102,3.19154 V 175.31 h -6.39703 z m -7.19077,7.2285 h 6.39806 v 6.83215 h -6.39806 z m 7.19077,0 h 6.39703 v 6.83215 h -6.39703 z m -7.19077,7.62486 h 6.39806 v 6.31486 h -3.20652 c -1.78339,0 -3.19154,-1.40608 -3.19154,-3.18947 z m 7.19077,0 h 6.39703 v 3.12539 c 0,1.78339 -1.40763,3.18947 -3.19102,3.18947 h -3.20601 z"
       inkscape:label="6 gauge"
       inkscape:export-filename="..\..\..\..\web_dev_ai\sonar\.design\assets\6_gauge_fill6.svg"
       inkscape:export-xdpi="97.1796"
       inkscape:export-ydpi="97.1796" /><path
       id="path34"
       style="color:#000000;display:inline;fill:#ffffff;fill-rule:evenodd;-inkscape-stroke:none"
       inkscape:label="5 gauge"
       d="m 206.20964,167.07766 c -2.74838,0 -4.98833,2.24201 -4.98833,4.99039 v 14.78721 c 0,2.74838 2.23995,4.98781 4.98833,4.98781 h 7.20524 c 2.74838,0 4.98833,-2.23943 4.98833,-4.98781 v -14.78721 c 0,-2.74838 -2.23995,-4.99039 -4.98833,-4.99039 z m 0,1.79885 h 3.20652 v 6.43372 h -6.39806 v -3.24218 c 0,-1.78339 1.40815,-3.19154 3.19154,-3.19154 z m 3.99923,0 h 3.20601 c 1.78339,0 3.19102,1.40815 3.19102,3.19154 v 3.24218 h -6.39703 z m -7.19025,7.2285 h 13.5878 v 6.83214 h -13.5878 z m -5.2e-4,7.62486 h 6.39806 v 6.31486 h -3.20652 c -1.78339,0 -3.19154,-1.40608 -3.19154,-3.18947 z m 7.19077,0 h 6.39703 v 3.12539 c 0,1.78339 -1.40763,3.18947 -3.19102,3.18947 h -3.20601 z" /></g></svg>
