<?xml version="1.0" encoding="UTF-8" standalone="no"?>
<!-- Created with Inkscape (http://www.inkscape.org/) -->

<svg
   width="1.6686536in"
   height="0.97500646in"
   viewBox="0 0 42.383802 24.765164"
   version="1.1"
   id="svg5"
   inkscape:version="1.3 (0e150ed6c4, 2023-07-21)"
   sodipodi:docname="Control Panel Layout.svg"
   xml:space="preserve"
   xmlns:inkscape="http://www.inkscape.org/namespaces/inkscape"
   xmlns:sodipodi="http://sodipodi.sourceforge.net/DTD/sodipodi-0.dtd"
   xmlns="http://www.w3.org/2000/svg"
   xmlns:svg="http://www.w3.org/2000/svg"><sodipodi:namedview
     id="namedview7"
     pagecolor="#ffffff"
     bordercolor="#666666"
     borderopacity="1.0"
     inkscape:showpageshadow="2"
     inkscape:pageopacity="0.0"
     inkscape:pagecheckerboard="0"
     inkscape:deskcolor="#d1d1d1"
     inkscape:document-units="mm"
     showgrid="false"
     inkscape:zoom="1"
     inkscape:cx="598"
     inkscape:cy="599.5"
     inkscape:window-width="2880"
     inkscape:window-height="1526"
     inkscape:window-x="-11"
     inkscape:window-y="-11"
     inkscape:window-maximized="1"
     inkscape:current-layer="layer1"
     showguides="true"><inkscape:grid
       type="xygrid"
       id="grid1674"
       originx="-426.28438"
       originy="-216.47814"
       spacingy="1"
       spacingx="1"
       units="mm"
       visible="false" /></sodipodi:namedview><defs
     id="defs2" /><g
     inkscape:label="Button Layer"
     inkscape:groupmode="layer"
     id="layer1"
     style="display:inline"
     transform="translate(-112.78774,-57.276508)"><rect
       style="fill:#ffffff;stroke:#ffffff;stroke-width:1.798;stroke-linecap:round;stroke-linejoin:round;stroke-dasharray:none;paint-order:markers fill stroke"
       id="rect1264"
       width="40.5858"
       height="22.967165"
       x="113.68674"
       y="58.17551"
       ry="4.090045"
       rx="4.090045"
       inkscape:export-filename="..\..\..\..\web_dev_ai\sonar\.design\assets\sonar.svg"
       inkscape:export-xdpi="97.1796"
       inkscape:export-ydpi="97.1796" /></g><g
     inkscape:groupmode="layer"
     id="layer3"
     inkscape:label="Design Layer"
     style="display:inline"
     transform="translate(-112.78774,-57.276508)"><g
       id="g4032"
       inkscape:label="Sonar Ping"
       style="fill:#ffffff"><ellipse
         style="display:inline;fill:#ffffff;stroke:none;stroke-width:2.33386;stroke-linecap:round;stroke-linejoin:round;paint-order:markers fill stroke"
         id="path352"
         cx="-13.457943"
         cy="150.66057"
         rx="2.8017964"
         ry="3.2123849"
         transform="matrix(0.83760527,-0.54627595,0.92181397,0.38763256,0,0)"
         inkscape:label="Source" /><path
         style="color:#000000;display:inline;fill:#ffffff;fill-opacity:1;stroke-linecap:round;stroke-linejoin:round;-inkscape-stroke:none;paint-order:markers fill stroke"
         d="m 146.45117,62.523437 a 0.69999999,0.69999999 0 0 0 -0.23242,0.962891 c 0.9181,1.50131 1.08836,2.953057 0.61523,4.373047 -0.47312,1.41999 -1.63601,2.833585 -3.52929,4.068359 -5.21393,3.400459 -14.71638,4.542307 -22.9668,2.615235 a 0.69999999,0.69999999 0 0 0 -0.8418,0.521484 0.69999999,0.69999999 0 0 0 0.52344,0.841797 c 8.59362,2.007233 18.31763,0.93117 24.04883,-2.806641 2.08254,-1.358207 3.49249,-2.994266 4.09375,-4.798828 0.60126,-1.804562 0.34626,-3.752277 -0.75,-5.544922 a 0.69999999,0.69999999 0 0 0 -0.96094,-0.232422 z m -5.95508,0.816407 a 0.69999999,0.69999999 0 0 0 -0.23242,0.96289 c 0.60578,0.990658 0.70893,1.913885 0.40235,2.833985 -0.30659,0.9201 -1.07074,1.860568 -2.34766,2.693359 -3.51724,2.293902 -10.03845,3.092595 -15.67773,1.775391 a 0.69999999,0.69999999 0 0 0 -0.83985,0.523437 0.69999999,0.69999999 0 0 0 0.52149,0.839844 c 5.98247,1.397367 12.72721,0.666413 16.76171,-1.964844 1.46618,-0.956221 2.47543,-2.11917 2.91016,-3.423828 0.43473,-1.304658 0.24682,-2.725812 -0.53711,-4.007812 a 0.69999999,0.69999999 0 0 0 -0.96094,-0.232422 z m -4.82031,0.648437 a 0.69999999,0.69999999 0 0 0 -0.5293,0.08398 0.69999999,0.69999999 0 0 0 -0.23242,0.96289 c 0.32542,0.532024 0.36983,0.982015 0.21289,1.453125 -0.15694,0.47111 -0.56181,0.98723 -1.28515,1.458985 -1.99309,1.299866 -5.83719,1.790829 -9.13086,1.021484 a 0.69999999,0.69999999 0 0 0 -0.8418,0.521484 0.69999999,0.69999999 0 0 0 0.52344,0.841797 c 3.63687,0.849511 7.70253,0.426287 10.21289,-1.210937 0.91261,-0.595196 1.56454,-1.333733 1.84961,-2.189453 0.28506,-0.855721 0.15594,-1.803614 -0.34766,-2.626954 a 0.69999999,0.69999999 0 0 0 -0.43164,-0.316406 z"
         id="path1241" /></g></g></svg>
