<?xml version="1.0" encoding="UTF-8" standalone="no"?>
<!-- Created with Inkscape (http://www.inkscape.org/) -->

<svg
   width="1.6686536in"
   height="0.97500676in"
   viewBox="0 0 42.383802 24.765172"
   version="1.1"
   id="svg5"
   inkscape:version="1.3 (0e150ed6c4, 2023-07-21)"
   sodipodi:docname="Control Panel Layout.svg"
   xml:space="preserve"
   xmlns:inkscape="http://www.inkscape.org/namespaces/inkscape"
   xmlns:sodipodi="http://sodipodi.sourceforge.net/DTD/sodipodi-0.dtd"
   xmlns:xlink="http://www.w3.org/1999/xlink"
   xmlns="http://www.w3.org/2000/svg"
   xmlns:svg="http://www.w3.org/2000/svg"><sodipodi:namedview
     id="namedview7"
     pagecolor="#ffffff"
     bordercolor="#666666"
     borderopacity="1.0"
     inkscape:showpageshadow="2"
     inkscape:pageopacity="0.0"
     inkscape:pagecheckerboard="0"
     inkscape:deskcolor="#d1d1d1"
     inkscape:document-units="mm"
     showgrid="false"
     inkscape:zoom="1.4229885"
     inkscape:cx="298.66721"
     inkscape:cy="398.10582"
     inkscape:window-width="1600"
     inkscape:window-height="837"
     inkscape:window-x="-8"
     inkscape:window-y="-8"
     inkscape:window-maximized="1"
     inkscape:current-layer="layer3"
     showguides="true"><inkscape:grid
       type="xygrid"
       id="grid1674"
       originx="-331.40478"
       originy="-501.20771"
       spacingy="1"
       spacingx="1"
       units="mm"
       visible="false" /></sodipodi:namedview><defs
     id="defs2"><linearGradient
       inkscape:collect="always"
       id="linearGradient3063"><stop
         style="stop-color:#b3b3b3;stop-opacity:1;"
         offset="0"
         id="stop3059" /><stop
         style="stop-color:#b3b3b3;stop-opacity:0;"
         offset="1"
         id="stop3061" /></linearGradient><linearGradient
       inkscape:collect="always"
       xlink:href="#linearGradient3063"
       id="linearGradient3065"
       x1="108.74067"
       y1="145.0295"
       x2="117.67372"
       y2="153.79167"
       gradientUnits="userSpaceOnUse" /></defs><g
     inkscape:label="Button Layer"
     inkscape:groupmode="layer"
     id="layer1"
     style="display:inline"
     transform="translate(-87.684181,-132.61121)"><rect
       style="display:inline;fill:#1a1a1a;stroke:#b3b3b3;stroke-width:1.798;stroke-linecap:round;stroke-linejoin:round;stroke-dasharray:none;paint-order:markers fill stroke"
       id="rect343"
       width="40.5858"
       height="22.967165"
       x="88.583183"
       y="133.51021"
       ry="4.090045"
       rx="4.090045"
       inkscape:export-filename="system_buttons.png"
       inkscape:export-xdpi="97.1796"
       inkscape:export-ydpi="97.1796" /></g><g
     inkscape:groupmode="layer"
     id="layer3"
     inkscape:label="Design Layer"
     style="display:inline"
     transform="translate(-87.684181,-132.61121)"><path
       id="path1939"
       style="display:inline;fill:url(#linearGradient3065);fill-opacity:1;stroke:none;stroke-width:0.264583;stroke-linecap:round;stroke-linejoin:round;stroke-dasharray:none;paint-order:markers fill stroke"
       inkscape:label="Radiation"
       d="m 108.87604,136.31571 a 8.6691046,8.6779385 0 0 0 -8.66924,8.67802 8.6691046,8.6779385 0 0 0 8.66924,8.67803 8.6691046,8.6779385 0 0 0 8.66924,-8.67803 8.6691046,8.6779385 0 0 0 -8.66924,-8.67802 z m 0,0.83561 c 1.73014,0.0695 2.9631,0.49683 3.92534,1.06712 l -2.45721,4.26124 c -0.51072,-0.2095 -1.04772,-0.37593 -1.46813,-0.38293 -0.42041,-0.007 -0.95592,0.13447 -1.43402,0.40153 l -2.47272,-4.27984 c 0.94869,-0.49494 1.88151,-0.99622 3.90674,-1.06712 z m 0,6.1929 a 1.6495711,1.6495711 0 0 1 1.64951,1.64951 1.6495711,1.6495711 0 0 1 -1.64951,1.64952 1.6495711,1.6495711 0 0 1 -1.64951,-1.64952 1.6495711,1.6495711 0 0 1 1.64951,-1.64951 z m -7.7835,1.59422 4.91856,0.0708 c 0.0657,0.54809 0.18224,1.09805 0.38086,1.46864 0.19898,0.3704 0.58269,0.7702 1.04903,1.0573 l -2.5337,4.24367 c -0.8943,-0.58756 -1.78674,-1.15803 -2.83497,-2.89233 -0.78187,-1.54495 -1.00928,-2.82992 -0.97978,-3.94808 z m 15.63574,0.0388 v 5.1e-4 c -0.0452,1.06909 -0.0776,2.12775 -1.02785,3.91759 -0.9245,1.46407 -1.91037,2.31884 -2.88509,2.86753 l -2.46394,-4.25762 c 0.43662,-0.33777 0.84899,-0.71987 1.06506,-1.08056 0.2157,-0.3609 0.36145,-0.89573 0.36845,-1.44332 z" /></g></svg>
