<?xml version="1.0" encoding="UTF-8" standalone="no"?>
<!-- Created with Inkscape (http://www.inkscape.org/) -->

<svg
   width="1.6686542in"
   height="0.97500646in"
   viewBox="0 0 42.383817 24.765164"
   version="1.1"
   id="svg5"
   inkscape:version="1.3 (0e150ed6c4, 2023-07-21)"
   sodipodi:docname="Control Panel Layout.svg"
   xml:space="preserve"
   xmlns:inkscape="http://www.inkscape.org/namespaces/inkscape"
   xmlns:sodipodi="http://sodipodi.sourceforge.net/DTD/sodipodi-0.dtd"
   xmlns:xlink="http://www.w3.org/1999/xlink"
   xmlns="http://www.w3.org/2000/svg"
   xmlns:svg="http://www.w3.org/2000/svg"><sodipodi:namedview
     id="namedview7"
     pagecolor="#ffffff"
     bordercolor="#666666"
     borderopacity="1.0"
     inkscape:showpageshadow="2"
     inkscape:pageopacity="0.0"
     inkscape:pagecheckerboard="0"
     inkscape:deskcolor="#d1d1d1"
     inkscape:document-units="mm"
     showgrid="false"
     inkscape:zoom="1.4229885"
     inkscape:cx="298.66721"
     inkscape:cy="398.10582"
     inkscape:window-width="1600"
     inkscape:window-height="837"
     inkscape:window-x="-8"
     inkscape:window-y="-8"
     inkscape:window-maximized="1"
     inkscape:current-layer="layer3"
     showguides="true"><inkscape:grid
       type="xygrid"
       id="grid1674"
       originx="-518.26974"
       originy="-370.41426"
       spacingy="1"
       spacingx="1"
       units="mm"
       visible="false" /></sodipodi:namedview><defs
     id="defs2"><linearGradient
       inkscape:collect="always"
       id="linearGradient4194"><stop
         style="stop-color:#ffcc00;stop-opacity:0.09696969;"
         offset="0"
         id="stop4190" /><stop
         style="stop-color:#ffcc00;stop-opacity:1;"
         offset="1"
         id="stop4192" /></linearGradient><linearGradient
       inkscape:collect="always"
       xlink:href="#linearGradient4194"
       id="linearGradient4196"
       x1="173.7937"
       y1="103.86262"
       x2="148.46954"
       y2="119.399"
       gradientUnits="userSpaceOnUse" /></defs><g
     inkscape:label="Button Layer"
     inkscape:groupmode="layer"
     id="layer1"
     style="display:inline"
     transform="translate(-137.12553,-98.00544)"><rect
       style="display:inline;fill:#1a1a1a;stroke:#ffd700;stroke-width:1.798;stroke-linecap:round;stroke-linejoin:round;stroke-dasharray:none;stroke-opacity:1;paint-order:markers fill stroke"
       id="rect2154"
       width="40.5858"
       height="22.967165"
       x="138.02454"
       y="98.904434"
       ry="4.090045"
       rx="4.090045" /></g><g
     inkscape:groupmode="layer"
     id="layer3"
     inkscape:label="Design Layer"
     style="display:inline"
     transform="translate(-137.12553,-98.00544)"><path
       stroke="none"
       fill="#000000"
       fill-rule="evenodd"
       d="m 142.66861,118.55976 c -0.56098,-0.11099 -1.26139,-0.45399 -1.52718,-0.74792 -0.26859,-0.29702 -0.53991,-0.98225 -0.53695,-1.35617 0.006,-0.83293 0.96948,-2.20929 2.259,-3.22897 1.26253,-0.99833 2.46531,-1.58947 5.64893,-2.77636 l 2.78435,-1.03805 -0.05,-0.46547 c -0.0274,-0.25602 -0.08,-0.80285 -0.1165,-1.21518 l -0.0665,-0.74969 -0.63998,-0.43323 -0.63998,-0.43324 0.69858,-0.0335 c 0.50912,-0.0243 0.61073,0.0145 0.64361,-0.17664 0.015,-0.30777 0.4057,-0.74176 1.05539,-0.93063 0.58736,-0.17075 3.02246,-0.38668 3.13146,-0.27767 0.0261,0.0262 0.0477,0.57151 0.0477,1.21179 v 1.16416 h 0.79528 c 0.80897,0 0.9683,0.13736 0.31165,0.26869 -1.09109,0.21821 -1.1792,0.27783 -1.13059,0.63509 0.0425,0.29016 0.0868,0.3306 0.29044,0.26576 6.51848,-2.07542 11.39343,-3.36156 13.62944,-3.59583 0.71807,-0.0753 0.7791,-0.1031 0.88414,-0.4045 0.0983,-0.28191 0.1696,-0.3237 0.55247,-0.3237 0.38918,0 0.43961,0.031 0.43961,0.27093 0,0.25224 0.0329,0.26714 0.47881,0.21604 0.26334,-0.0302 0.53234,-0.0707 0.59778,-0.09 0.0655,-0.0193 0.26822,-0.52156 0.45064,-1.11608 0.33008,-1.07577 0.33342,-1.08097 0.69781,-1.0822 l 0.36616,-10e-4 v 1.18295 1.18292 h 0.50696 c 0.46392,0 0.50698,0.0237 0.50698,0.27807 0,0.18747 -0.10097,0.3328 -0.30982,0.44613 -0.29443,0.15972 -0.25968,0.16831 0.7001,0.17258 0.96181,0.004 1.00053,0.014 0.81281,0.20167 -0.14881,0.14883 -0.43082,0.20689 -1.15074,0.23687 l -0.95364,0.0398 v 1.04771 1.04768 l -0.35479,0.12367 c -0.48536,0.1692 -0.5124,0.16221 -0.59151,-0.15299 -0.0382,-0.15219 -0.12014,-0.41005 -0.18211,-0.57304 l -0.1127,-0.29635 -0.53424,0.44272 c -2.86857,2.37726 -7.13063,4.58335 -12.21243,6.3213 -0.88864,0.30391 -3.41545,1.27351 -5.61514,2.15466 -4.19844,1.68181 -5.86007,2.19914 -8.126,2.52996 -1.27461,0.1861 -2.67127,0.20944 -3.43929,0.0576 z"
       id="path3999"
       style="display:inline;fill:url(#linearGradient4196);fill-opacity:1;stroke:none;stroke-width:0.265;stroke-dasharray:none;stroke-opacity:1"
       sodipodi:nodetypes="cscssccccccccscscssccccsssssccccsscccccccssscsssscc"
       inkscape:label="Sub quarter view" /></g></svg>
