<svg version="1.1" xmlns="http://www.w3.org/2000/svg" xmlns:xlink="http://www.w3.org/1999/xlink" width="327" height="169" viewBox="0 0 327 169"><path stroke="none" fill="#000000" fill-rule="evenodd" d="M23.343746,159.958584C18.364345,158.973445 12.147416,155.928743 9.788138,153.319811C7.403968,150.683353 4.995762,144.601067 5.021962,141.282119C5.080325,133.888791 13.627350,121.671859 25.073395,112.621037C36.279953,103.759587 46.956175,98.512360 75.214649,87.977247L99.929298,78.763316L99.485897,74.631658C99.242026,72.359246 98.776720,67.505486 98.451883,63.845525L97.861272,57.191050L92.180636,53.345525L86.500000,49.500000L92.700794,49.203560C97.219855,48.987518 98.769258,48.562272 98.413668,47.635617C97.436352,45.088775 102.014710,41.051593 107.781417,39.375166C112.995113,37.859504 134.609562,35.942895 135.577117,36.910451C135.809703,37.143036 136.000000,41.983333 136.000000,47.666667L136.000000,58.000000L143.059017,58.000000C150.239707,58.000000 151.653875,59.219225 145.825289,60.384942C136.140547,62.321891 135.314929,62.785672 135.789948,66.022184C136.167965,68.597774 136.560173,68.956659 138.367898,68.381099C196.227577,49.959213 239.498819,38.543062 259.346223,36.463669C265.719892,35.795906 266.261580,35.548077 267.194048,32.873198C268.066346,30.370924 268.699413,30.000000 272.097825,30.000000C275.552304,30.000000 276.000000,30.275907 276.000000,32.404843C276.000000,34.643824 276.293123,34.776086 280.250000,34.322509C282.587500,34.054561 284.975222,33.694997 285.556049,33.523476C286.136876,33.351956 287.936876,28.893947 289.556049,23.616790C292.485867,14.068021 292.515602,14.021906 295.750000,14.010979L299.000000,14.000000L299.000000,24.500000L299.000000,35.000000L303.500000,35.000000C307.617805,35.000000 308.000000,35.209618 308.000000,37.468063C308.000000,39.132156 307.104189,40.422111 305.250000,41.428025C302.636544,42.845848 302.945099,42.921913 311.464286,42.959962C320.001542,42.998093 320.345227,43.083364 318.678980,44.750000C317.358173,46.071116 314.854892,46.586418 308.464695,46.852616L300.000000,47.205232L300.000000,56.504791L300.000000,65.804350L296.850777,66.902175C292.542561,68.404027 292.302645,68.341970 291.600425,65.544103C291.261410,64.193360 290.533990,61.904501 289.983937,60.457750L288.983839,57.827294L284.241920,61.757020C258.779687,82.858094 220.948628,102.439895 175.841385,117.866412C167.953623,120.563998 145.525000,129.170367 126.000000,136.991676C88.733637,151.919807 73.984625,156.511797 53.871662,159.448272C42.557938,161.100066 30.160849,161.307299 23.343746,159.958584z"/></svg>