<?xml version="1.0" encoding="UTF-8" standalone="no"?>
<!-- Created with Inkscape (http://www.inkscape.org/) -->

<svg
   width="63.01265mm"
   height="12.366914mm"
   viewBox="0 0 63.012649 12.366914"
   version="1.1"
   id="svg1"
   xml:space="preserve"
   inkscape:version="1.3 (0e150ed6c4, 2023-07-21)"
   sodipodi:docname="subs.svg"
   inkscape:export-filename="subs.png"
   inkscape:export-xdpi="97.1796"
   inkscape:export-ydpi="97.1796"
   xmlns:inkscape="http://www.inkscape.org/namespaces/inkscape"
   xmlns:sodipodi="http://sodipodi.sourceforge.net/DTD/sodipodi-0.dtd"
   xmlns="http://www.w3.org/2000/svg"
   xmlns:svg="http://www.w3.org/2000/svg"><sodipodi:namedview
     id="namedview1"
     pagecolor="#ffffff"
     bordercolor="#666666"
     borderopacity="1.0"
     inkscape:showpageshadow="2"
     inkscape:pageopacity="0.0"
     inkscape:pagecheckerboard="0"
     inkscape:deskcolor="#d1d1d1"
     inkscape:document-units="mm"
     inkscape:zoom="1.1697534"
     inkscape:cx="267.15033"
     inkscape:cy="74.374651"
     inkscape:window-width="1269"
     inkscape:window-height="474"
     inkscape:window-x="1636"
     inkscape:window-y="84"
     inkscape:window-maximized="0"
     inkscape:current-layer="layer2"
     showguides="true"
     showgrid="false" /><defs
     id="defs1" /><g
     inkscape:groupmode="layer"
     id="layer2"
     inkscape:label="VA Class"
     transform="translate(-12.501573,-6.4559339)"
     style="display:inline"><path
       id="path3"
       style="display:inline;opacity:1;vector-effect:non-scaling-stroke;fill:none;fill-rule:evenodd;stroke:#000000;stroke-width:0.264583;stroke-linecap:round;-inkscape-stroke:hairline"
       d="m 26.789063,6.4559339 v 1.36536 l -0.576709,-5.2e-4 v 2.5419701 l -1.464703,-0.0108 -0.07525,0.0696 -0.06614,2.24494 -1.256771,0.59532 c 0,0 -10.847917,-0.33073 -10.847917,2.87734 0,3.20807 11.972396,2.64583 11.972396,2.64583 h 31.499395 c 1.23422,0 10.16927,-1.02526 10.16927,-1.02526 l 1.02899,0.59532 h 1.48776 v 0.46302 h 1.80609 v -1.75339 l 1.63349,-0.33021 v 0.82683 c 1.545055,0 2.214317,-0.182414 2.81534,-0.36742 v -0.92605 l 0.48421,-0.15347 c 0.0434,-0.0727 0.23711,-0.22308 0,-0.53641 l -0.48421,-0.0966 v -0.99942 c -1.75287,-0.69453 -2.81534,-0.39326 -2.81534,-0.39326 v 0.82682 l -1.65312,-0.33073 0.008,-3.08405 h -1.45521 c 0,0 -0.37207,1.85208 -0.50436,2.68718 -7.0776,-1.38907 -14.94896,-1.25677 -14.94896,-1.25677 H 29.501042 v -2.34777 l -0.330729,-0.19844 -0.543636,-0.004 V 8.5375939 h -0.713135 v -2.08153 h -0.294039 v 3.9175901 l -0.387573,-0.004 V 6.4561939 Z"
       sodipodi:nodetypes="ccccccccscsccccccccccccccccccccccccccccccccc" /></g></svg>
