<?xml version="1.0" encoding="UTF-8" standalone="no"?>
<!-- Created with Inkscape (http://www.inkscape.org/) -->

<svg
   width="140.92668mm"
   height="39.741245mm"
   viewBox="0 0 140.92668 39.741245"
   version="1.1"
   id="svg1"
   xml:space="preserve"
   inkscape:version="1.3 (0e150ed6c4, 2023-07-21)"
   sodipodi:docname="subs.svg"
   inkscape:export-filename="subs.png"
   inkscape:export-xdpi="97.1796"
   inkscape:export-ydpi="97.1796"
   xmlns:inkscape="http://www.inkscape.org/namespaces/inkscape"
   xmlns:sodipodi="http://sodipodi.sourceforge.net/DTD/sodipodi-0.dtd"
   xmlns:xlink="http://www.w3.org/1999/xlink"
   xmlns="http://www.w3.org/2000/svg"
   xmlns:svg="http://www.w3.org/2000/svg"><sodipodi:namedview
     id="namedview1"
     pagecolor="#ffffff"
     bordercolor="#666666"
     borderopacity="1.0"
     inkscape:showpageshadow="2"
     inkscape:pageopacity="0.0"
     inkscape:pagecheckerboard="0"
     inkscape:deskcolor="#d1d1d1"
     inkscape:document-units="mm"
     inkscape:zoom="1.1697534"
     inkscape:cx="267.15033"
     inkscape:cy="74.374651"
     inkscape:window-width="1269"
     inkscape:window-height="474"
     inkscape:window-x="1636"
     inkscape:window-y="84"
     inkscape:window-maximized="0"
     inkscape:current-layer="layer2"
     showguides="true" /><defs
     id="defs1"><inkscape:path-effect
       effect="mirror_symmetry"
       start_point="82.298506,39.670961"
       end_point="167.54855,39.670961"
       center_point="124.92353,39.670961"
       id="path-effect8"
       is_visible="true"
       lpeversion="1.2"
       lpesatellites=""
       mode="free"
       discard_orig_path="false"
       fuse_paths="false"
       oposite_fuse="false"
       split_items="false"
       split_open="false"
       link_styles="false" /><inkscape:path-effect
       effect="mirror_symmetry"
       start_point="73.227487,162.48203"
       end_point="136.53585,162.48294"
       center_point="104.88167,162.48248"
       id="path-effect3"
       is_visible="true"
       lpeversion="1.2"
       lpesatellites=""
       mode="free"
       discard_orig_path="false"
       fuse_paths="false"
       oposite_fuse="false"
       split_items="false"
       split_open="false"
       link_styles="false" /><inkscape:path-effect
       effect="mirror_symmetry"
       start_point="73.32,157.68"
       end_point="136.38436,162.4826"
       center_point="104.85218,160.0813"
       id="path-effect2"
       is_visible="true"
       lpeversion="1.2"
       lpesatellites=""
       mode="free"
       discard_orig_path="false"
       fuse_paths="false"
       oposite_fuse="false"
       split_items="false"
       split_open="false"
       link_styles="false" /><inkscape:path-effect
       effect="mirror_symmetry"
       start_point="73.32,153.102"
       end_point="104.85,162.5"
       center_point="89.085,157.801"
       id="path-effect1"
       is_visible="true"
       lpeversion="1.2"
       lpesatellites=""
       mode="free"
       discard_orig_path="false"
       fuse_paths="false"
       oposite_fuse="false"
       split_items="false"
       split_open="false"
       link_styles="false" /></defs><g
     inkscape:label="Layer 1"
     inkscape:groupmode="layer"
     id="layer1"
     style="display:none"
     sodipodi:insensitive="true"
     transform="translate(-12.465518,-5.7376341)"><image
       width="71.966667"
       height="49.212502"
       preserveAspectRatio="none"
       xlink:href="va_class.jpg"
       id="image1"
       x="69.131859"
       y="123.89375"
       style="display:none" /><image
       width="97.93457"
       height="65.171005"
       preserveAspectRatio="none"
       xlink:href="russian.jpg"
       id="image1-4"
       x="86.43277"
       y="-0.54266"
       style="stroke-width:0.74295" /></g><g
     inkscape:groupmode="layer"
     id="layer2"
     inkscape:label="VA Class"
     transform="translate(-12.465518,-5.7376341)"
     style="display:inline"><path
       id="path1"
       style="display:inline;opacity:1;vector-effect:non-scaling-stroke;fill:none;fill-rule:evenodd;stroke:#000000;stroke-width:0.264583;stroke-linecap:round;-inkscape-stroke:hairline"
       d="m 21.471687,34.916732 -0.02222,2.256709 c -5.380759,0 -8.983948,0.737576 -8.983948,2.541964 -5.2e-5,1.804388 3.603189,2.541814 8.983948,2.541964 l 0.02222,2.25671 1.621089,-0.02171 0.0026,-2.043802 32.507577,-10e-4 c 4.579537,-0.0797 7.980468,-0.271392 11.620996,-0.664042 l 0.05943,0.287838 0.742073,0.05891 0.06615,1.455208 2.050004,-0.0093 0.07648,-2.329573 1.74718,-0.431498 v 0.735872 c 0,0 1.541706,0.317979 2.920752,-0.30179 0.139447,-0.23242 0.159681,-0.926042 0.159681,-0.926042 l 0.484724,-0.135392 v -0.471289 -0.471806 l -0.484724,-0.134876 c 0,0 -0.02024,-0.694138 -0.159681,-0.926558 -1.379028,-0.61981 -2.920752,-0.30179 -2.920752,-0.30179 v 0.735872 l -1.74718,-0.431498 -0.07648,-2.329574 -2.050004,-0.0093 -0.06615,1.455209 -0.742073,0.05891 -0.05943,0.287838 c -3.640517,-0.39276 -7.041461,-0.584759 -11.620996,-0.664559 l -32.507577,-0.0021 -0.0021,-2.043803 z" /><path
       id="path3"
       style="display:inline;opacity:1;vector-effect:non-scaling-stroke;fill:none;fill-rule:evenodd;stroke:#000000;stroke-width:0.264583;stroke-linecap:round;-inkscape-stroke:hairline"
       d="m 26.789063,6.4559339 v 1.36536 l -0.576709,-5.2e-4 v 2.5419701 l -1.464703,-0.0108 -0.07525,0.0696 -0.06614,2.24494 -1.256771,0.59532 c 0,0 -10.847917,-0.33073 -10.847917,2.87734 0,3.20807 11.972396,2.64583 11.972396,2.64583 h 31.499395 c 1.23422,0 10.16927,-1.02526 10.16927,-1.02526 l 1.02899,0.59532 h 1.48776 v 0.46302 h 1.80609 v -1.75339 l 1.63349,-0.33021 v 0.82683 c 1.545055,0 2.214317,-0.182414 2.81534,-0.36742 v -0.92605 l 0.48421,-0.15347 c 0.0434,-0.0727 0.23711,-0.22308 0,-0.53641 l -0.48421,-0.0966 v -0.99942 c -1.75287,-0.69453 -2.81534,-0.39326 -2.81534,-0.39326 v 0.82682 l -1.65312,-0.33073 0.008,-3.08405 h -1.45521 c 0,0 -0.37207,1.85208 -0.50436,2.68718 -7.0776,-1.38907 -14.94896,-1.25677 -14.94896,-1.25677 H 29.501042 v -2.34777 l -0.330729,-0.19844 -0.543636,-0.004 V 8.5375939 h -0.713135 v -2.08153 h -0.294039 v 3.9175901 l -0.387573,-0.004 V 6.4561939 Z"
       sodipodi:nodetypes="ccccccccscsccccccccccccccccccccccccccccccccc" /></g><g
     inkscape:groupmode="layer"
     id="layer3"
     inkscape:label="Khabarovsk Class"
     transform="translate(-12.465518,-5.7376341)"
     style="display:inline"><path
       id="path8"
       style="opacity:1;vector-effect:non-scaling-stroke;fill:none;fill-rule:evenodd;stroke:#000000;stroke-width:0.264583;stroke-linecap:round;-inkscape-stroke:hairline"
       d="m 144.24546,33.863049 v 2.318722 h -8.18348 l -10.45104,0.03307 h -22.02657 l -7.375255,0.992187 -1.256771,-2.877344 h -1.454175 v 3.494361 l -3.374471,0.763778 v -0.752409 l -2.250509,0.09922 v 1.21543 l -1.131197,0.520899 1.131197,0.520898 v 1.21543 l 2.250509,0.09922 v -0.752408 l 3.374471,0.763777 v 3.494361 h 1.454175 l 1.256771,-2.877344 7.375255,0.992187 h 22.02657 l 10.45104,0.03307 h 8.18348 v 2.318722 h 1.87069 v -2.318722 h 4.23333 c 0.42865,0 3.03702,-0.302625 3.03702,-3.489192 0,-3.186569 -2.60837,-3.489193 -3.03702,-3.489193 h -4.23333 v -2.318722 z"
       inkscape:export-filename=".\path8.png"
       inkscape:export-xdpi="97.1796"
       inkscape:export-ydpi="97.1796" /><path
       id="path7"
       style="display:inline;opacity:1;vector-effect:non-scaling-stroke;fill:none;fill-rule:evenodd;stroke:#000000;stroke-width:0.264583;stroke-linecap:round;-inkscape-stroke:hairline"
       d="m 128.74615,5.7376341 v 4.4488239 h -3.13521 v 2.215886 h -22.02657 l -7.375255,0.992187 -1.256771,-2.877344 h -1.454175 v 3.494361 l -3.374471,0.904337 v -0.892968 l -2.250509,0.09922 v 1.005107 l -1.122929,0.648539 1.091407,0.496094 v 0.926042 l 2.430859,0.281119 V 16.58607 h 0.694531 v 0.297656 l 1.12758,0.08888 -0.09353,2.338876 h 2.899564 l 0.09354,-1.63711 11.552779,1.64021 h 43.86864 c 0.13916,0 2.97657,-0.0844 2.97657,-3.373437 0,-3.186575 -2.61406,-3.571875 -3.04271,-3.571875 h -14.2875 v -2.182813 h -5.53351 V 8.0863281 h -0.86507 v 2.1001299 h -0.31424 V 5.7376341 Z"
       sodipodi:nodetypes="cccccccccccccccccccccccccsssccccccccc" /></g></svg>
