<?xml version="1.0" encoding="UTF-8" standalone="no"?>
<!-- Created with Inkscape (http://www.inkscape.org/) -->

<svg
   width="1.6686536in"
   height="0.97500616in"
   viewBox="0 0 42.383802 24.765157"
   version="1.1"
   id="svg5"
   inkscape:version="1.3 (0e150ed6c4, 2023-07-21)"
   sodipodi:docname="Control Panel Layout.svg"
   xml:space="preserve"
   xmlns:inkscape="http://www.inkscape.org/namespaces/inkscape"
   xmlns:sodipodi="http://sodipodi.sourceforge.net/DTD/sodipodi-0.dtd"
   xmlns:xlink="http://www.w3.org/1999/xlink"
   xmlns="http://www.w3.org/2000/svg"
   xmlns:svg="http://www.w3.org/2000/svg"><sodipodi:namedview
     id="namedview7"
     pagecolor="#ffffff"
     bordercolor="#666666"
     borderopacity="1.0"
     inkscape:showpageshadow="2"
     inkscape:pageopacity="0.0"
     inkscape:pagecheckerboard="0"
     inkscape:deskcolor="#d1d1d1"
     inkscape:document-units="mm"
     showgrid="false"
     inkscape:zoom="1.0062048"
     inkscape:cx="584.37406"
     inkscape:cy="440.76513"
     inkscape:window-width="1600"
     inkscape:window-height="837"
     inkscape:window-x="-8"
     inkscape:window-y="-8"
     inkscape:window-maximized="1"
     inkscape:current-layer="layer3"
     showguides="true"><inkscape:grid
       type="xygrid"
       id="grid1674"
       originx="-331.40478"
       originy="-631.47373"
       spacingy="1"
       spacingx="1"
       units="mm"
       visible="false" /></sodipodi:namedview><defs
     id="defs2"><linearGradient
       id="linearGradient15"
       inkscape:collect="always"><stop
         style="stop-color:#005aff;stop-opacity:1;"
         offset="0"
         id="stop15" /><stop
         style="stop-color:#005aff;stop-opacity:0;"
         offset="1"
         id="stop16" /></linearGradient><linearGradient
       inkscape:collect="always"
       xlink:href="#linearGradient15"
       id="linearGradient16"
       x1="93.770508"
       y1="171.50014"
       x2="143.30861"
       y2="198.87354"
       gradientUnits="userSpaceOnUse" /></defs><g
     inkscape:label="Button Layer"
     inkscape:groupmode="layer"
     id="layer1"
     style="display:inline"
     transform="translate(-87.684181,-167.07742)"><rect
       style="display:inline;fill:#1a1a1a;fill-opacity:1;stroke:#005aff;stroke-width:1.798;stroke-linecap:round;stroke-linejoin:round;stroke-dasharray:none;stroke-opacity:1;paint-order:markers fill stroke"
       id="rect9"
       width="40.5858"
       height="22.967165"
       x="88.583183"
       y="167.97643"
       ry="4.090045"
       rx="4.090045"
       inkscape:export-filename="..\..\..\..\web_dev_ai\sonar\.design\assets\surface.svg"
       inkscape:export-xdpi="97.1796"
       inkscape:export-ydpi="97.1796" /></g><g
     inkscape:groupmode="layer"
     id="layer3"
     inkscape:label="Design Layer"
     style="display:inline"
     transform="translate(-87.684181,-167.07742)"><path
       id="rect10"
       style="vector-effect:non-scaling-stroke;fill:url(#linearGradient16);fill-opacity:1;fill-rule:evenodd;stroke:none;stroke-width:0.264583;stroke-linecap:round;-inkscape-stroke:hairline"
       d="m 97.041105,171.50013 v 3.699 a 0.39687499,0.39687499 0 0 0 0,5.1e-4 h -3.270601 v 11.86749 h 7.334436 v -11.86749 h -3.271118 a 0.39687499,0.39687499 0 0 0 0,-5.1e-4 v -2.90629 h 10.777638 v 2.90629 a 0.39687499,0.39687499 0 0 0 0,5.1e-4 h -3.27112 v 11.86749 h 7.33444 v -11.86749 h -3.27061 a 0.39687499,0.39687499 0 0 0 0,-5.1e-4 v -2.90629 h 10.77557 v 2.90629 a 0.39687499,0.39687499 0 0 0 0,5.1e-4 h -3.26956 v 11.86749 h 7.33443 v -11.86749 h -3.27008 a 0.39687499,0.39687499 0 0 0 0,-5.1e-4 v -3.30265 a 0.39687499,0.39687499 0 0 0 -0.0532,-0.19792 0.39687499,0.39687499 0 0 0 -0.14521,-0.14521 0.39687499,0.39687499 0 0 0 -0.19792,-0.0532 z"
       inkscape:label="xo" /></g></svg>
