<?xml version="1.0" encoding="UTF-8" standalone="no"?>
<!-- Created with Inkscape (http://www.inkscape.org/) -->

<svg
   width="0.67651367in"
   height="0.9749552in"
   viewBox="0 0 17.183447 24.763862"
   version="1.1"
   id="svg5"
   inkscape:version="1.3 (0e150ed6c4, 2023-07-21)"
   sodipodi:docname="Control Panel Layout.svg"
   xml:space="preserve"
   xmlns:inkscape="http://www.inkscape.org/namespaces/inkscape"
   xmlns:sodipodi="http://sodipodi.sourceforge.net/DTD/sodipodi-0.dtd"
   xmlns="http://www.w3.org/2000/svg"
   xmlns:svg="http://www.w3.org/2000/svg"><sodipodi:namedview
     id="namedview7"
     pagecolor="#ffffff"
     bordercolor="#666666"
     borderopacity="1.0"
     inkscape:showpageshadow="2"
     inkscape:pageopacity="0.0"
     inkscape:pagecheckerboard="0"
     inkscape:deskcolor="#d1d1d1"
     inkscape:document-units="mm"
     showgrid="false"
     inkscape:zoom="1.4142136"
     inkscape:cx="901.9147"
     inkscape:cy="669.27657"
     inkscape:window-width="2880"
     inkscape:window-height="1526"
     inkscape:window-x="-11"
     inkscape:window-y="-11"
     inkscape:window-maximized="1"
     inkscape:current-layer="layer3"
     showguides="true"><inkscape:grid
       type="xygrid"
       id="grid1674"
       originx="-521.51252"
       originy="-631.47373"
       spacingy="1"
       spacingx="1"
       units="mm"
       visible="false" /></sodipodi:namedview><defs
     id="defs2" /><g
     inkscape:label="Button Layer"
     inkscape:groupmode="layer"
     id="layer1"
     style="display:inline"
     transform="translate(-137.98352,-167.07742)"><path
       id="path13"
       style="color:#000000;display:none;fill:#00ff00;stroke-linecap:round;stroke-linejoin:round;-inkscape-stroke:none;paint-order:markers fill stroke"
       d="m 142.97081,168.87445 c -1.78338,0 -3.18947,1.40814 -3.18947,3.19153 v 1.25574 h 13.5878 v -1.25574 c 0,-1.78339 -1.40815,-3.19153 -3.19154,-3.19153 z"
       inkscape:label="4 gauge_4" /><path
       id="path14"
       style="color:#000000;display:none;fill:#008000;stroke-linecap:round;stroke-linejoin:round;-inkscape-stroke:none;paint-order:markers fill stroke"
       d="m 139.78134,174.11495 v 4.94699 h 13.5878 v -4.94699 z"
       inkscape:label="4 gauge_3" /><path
       id="path15"
       style="color:#000000;display:none;fill:#005aff;stroke-linecap:round;stroke-linejoin:round;-inkscape-stroke:none;paint-order:markers fill stroke"
       d="m 139.78134,179.85672 v 4.9475 h 13.5878 v -4.9475 z"
       inkscape:label="4 gauge_2" /><path
       id="path20"
       style="color:#000000;display:inline;fill:#ffffff;stroke-linecap:round;stroke-linejoin:round;-inkscape-stroke:none;paint-order:markers fill stroke"
       d="m 139.78134,185.59901 v 1.25418 c 0,1.78338 1.40609,3.19102 3.18947,3.19102 h 7.20679 c 1.78339,0 3.19154,-1.40764 3.19154,-3.19102 v -1.25418 z"
       inkscape:label="4 gauge_1" /><path
       id="rect1"
       style="color:#000000;display:none;fill:#ffffff;stroke-linecap:round;stroke-linejoin:round;-inkscape-stroke:none;paint-order:markers fill stroke"
       d="m 142.97185,167.07743 c -2.74838,0 -4.98833,2.23995 -4.98833,4.98833 v 14.78721 c 0,2.74837 2.23995,4.98833 4.98833,4.98833 h 7.20679 c 2.74838,0 4.98833,-2.23996 4.98833,-4.98833 v -14.78721 c 0,-2.74838 -2.23995,-4.98833 -4.98833,-4.98833 z m 0,1.79679 h 7.20679 c 1.78339,0 3.19154,1.40815 3.19154,3.19154 v 1.25574 h -13.5878 v -1.25574 c 0,-1.78339 1.40609,-3.19154 3.18947,-3.19154 z m -3.18947,5.24051 h 13.5878 v 4.94699 h -13.5878 z m 0,5.74177 h 13.5878 v 4.9475 h -13.5878 z m 0,5.74228 h 13.5878 v 1.25419 c 0,1.78338 -1.40815,3.19102 -3.19154,3.19102 h -7.20679 c -1.78338,0 -3.18947,-1.40764 -3.18947,-3.19102 z"
       inkscape:label="4 gauge"
       inkscape:export-filename="..\..\..\..\web_dev_ai\sonar\.design\assets\4_gauge.svg"
       inkscape:export-xdpi="97.1796"
       inkscape:export-ydpi="97.1796" /></g></svg>
