<?xml version="1.0" encoding="UTF-8" standalone="no"?>
<!-- Created with Inkscape (http://www.inkscape.org/) -->

<svg
   width="6.3700247mm"
   height="3.1851091mm"
   viewBox="0 0 6.3700246 3.1851092"
   version="1.1"
   id="svg1"
   xml:space="preserve"
   xmlns:xlink="http://www.w3.org/1999/xlink"
   xmlns="http://www.w3.org/2000/svg"
   xmlns:svg="http://www.w3.org/2000/svg"><defs
     id="defs1" /><g
     id="layer1"
     transform="translate(-213.00927,-71.661186)"
     style="display:inline"><rect
       style="display:inline;fill:none;stroke:#ff0000;stroke-width:0.529167;stroke-dasharray:none"
       id="rect1"
       width="223.23836"
       height="103.11753"
       x="31.610878"
       y="49.578846" /><rect
       style="display:inline;fill:none;stroke:#00ff00;stroke-width:0.529167;stroke-dasharray:none"
       id="rect4"
       width="70.833061"
       height="103.11753"
       x="184.01617"
       y="49.578846" /></g><g
     id="layer6"
     transform="translate(-181.66298,-22.346924)"><g
       id="g30"
       transform="matrix(0.74397923,0,0,0.74397923,-27.245225,-70.232519)"
       style="display:inline"><path
         d="m 11.854404,28.87232 -3.185112,3.185012 3.185112,3.185012 z"
         style="display:inline;fill:#000000;stroke:none;stroke-width:0.102102"
         id="path33"
         transform="matrix(1.3441236,0,0,1.3441236,242.17773,99.308918)" /><path
         d="m 58.261958,28.87232 3.185112,3.185012 -3.185112,3.185012 z"
         style="display:inline;fill:#000000;stroke:none;stroke-width:0.102102"
         id="path34"
         transform="matrix(1.3441236,0,0,1.3441236,242.17773,99.308918)" /><path
         d="m 289.82401,154.10177 -4.28105,4.28119 -4.28105,-4.28119 z"
         style="display:inline;fill:#000000;stroke:none;stroke-width:0.137238"
         id="path35" /><path
         d="m 280.79842,128.71939 4.28105,-4.28118 4.28105,4.28118 z"
         style="display:inline;fill:#ffffff;stroke:none;stroke-width:0.137238"
         id="path36" /><use
         x="0"
         y="0"
         xlink:href="#rect27"
         id="use27"
         transform="translate(0,27.563589)" /><use
         x="0"
         y="0"
         xlink:href="#rect27"
         id="use29"
         transform="translate(-26.609327,14.712123)" /><use
         x="0"
         y="0"
         xlink:href="#rect27"
         id="use28"
         transform="translate(26.609327,14.712123)" /><path
         id="rect27"
         style="fill:none;stroke:#000000;stroke-width:0.984611"
         d="m 282.23103,120.58694 h 14.40258 c 2.07455,0 3.74467,1.43584 3.74467,3.21937 v 5.94346 c 0,1.78353 -1.67012,3.21937 -3.74467,3.21937 h -14.40258 c -2.07455,0 -3.74467,-1.43584 -3.74467,-3.21937 v -5.94346 c 0,-1.78353 1.67012,-3.21937 3.74467,-3.21937 z" /></g></g></svg>
