<?xml version="1.0" encoding="UTF-8" standalone="no"?>
<!-- Created with Inkscape (http://www.inkscape.org/) -->

<svg
   width="63.310562"
   height="63.310547"
   viewBox="0 0 63.310562 63.310547"
   version="1.1"
   id="svg1"
   xml:space="preserve"
   xmlns:xlink="http://www.w3.org/1999/xlink"
   xmlns="http://www.w3.org/2000/svg"
   xmlns:svg="http://www.w3.org/2000/svg"><defs
     id="defs1"><linearGradient
       id="linearGradient41"><stop
         style="stop-color:#ffcc00;stop-opacity:1;"
         offset="0"
         id="stop41" /><stop
         style="stop-color:#ffcc00;stop-opacity:0.09696969;"
         offset="1"
         id="stop40" /></linearGradient><radialGradient
       xlink:href="#linearGradient41"
       id="radialGradient44"
       gradientUnits="userSpaceOnUse"
       gradientTransform="matrix(0.89053584,1.0654706,-0.9564447,0.79939472,443.30386,48.211628)"
       cx="-78.010078"
       cy="116.68384"
       fx="-78.010078"
       fy="116.68384"
       r="23.930647" /></defs><g
     id="layer4"
     style="display:inline"
     transform="translate(-230.57616,-26.715342)"><path
       id="path44"
       style="display:none;fill:url(#radialGradient44);fill-opacity:1;stroke-width:0.777406;stroke-linecap:round;stroke-linejoin:round;paint-order:markers fill stroke"
       d="m 262.23249,32.873203 -9.72657,8.623655 h 5.51255 v 9.541377 c 1.40477,-0.784687 2.97877,-1.200519 4.21402,-1.179924 1.23527,0.02056 2.81122,0.510254 4.31184,1.125819 l 0.0354,-0.0603 v -9.426924 h 5.43557 z m -16.8748,15.713618 -8.62365,9.78277 8.62365,9.726577 v -5.512555 h 9.54137 c -0.78469,-1.40477 -1.20052,-2.978769 -1.17992,-4.214022 0.0206,-1.235265 0.51025,-2.811213 1.12581,-4.311833 l -0.0603,-0.03537 h -9.42691 z m 33.74755,0.05828 v 5.512555 h -9.54139 c 0.7847,1.40477 1.20053,2.978768 1.17993,4.214022 -0.0206,1.235264 -0.51025,2.811213 -1.12583,4.311833 l 0.0603,0.03537 h 9.42693 v 5.435564 l 8.62366,-9.78277 z m -16.87275,4.879931 a 4.8468206,4.8468206 0 0 0 -4.84664,4.846646 4.8468206,4.8468206 0 0 0 4.84664,4.846646 4.8468206,4.8468206 0 0 0 4.84665,-4.846646 4.8468206,4.8468206 0 0 0 -4.84665,-4.846646 z m 4.21195,12.178002 c -1.40477,0.784687 -2.97877,1.200519 -4.21402,1.179923 -1.23527,-0.02056 -2.81122,-0.510253 -4.31184,-1.125819 l -0.0354,0.06031 v 9.426924 h -5.43556 l 9.78277,8.623655 9.72659,-8.623655 h -5.51257 z" /></g><g
     id="layer2"
     style="display:inline"
     transform="translate(-230.57616,-26.715342)"><g
       id="g47"
       transform="translate(0.09806562,0.32612114)"
       style="display:inline"><use
         x="0"
         y="0"
         xlink:href="#rect15"
         id="use16"
         transform="translate(154.75017,-0.03934479)" /><use
         x="0"
         y="0"
         xlink:href="#rect15"
         id="use15"
         transform="translate(77.375085)" /><rect
         style="fill:none;stroke:#008000;stroke-width:0.920947"
         id="rect15"
         width="72.860466"
         height="72.175049"
         x="225.80121"
         y="22.283091" /></g><path
       id="use46"
       style="display:none;fill:#ffffff;stroke:none"
       d="m 43.462194,72.408409 h 16.885363 v 15.5251 a 6.4852846,6.4852846 135 0 1 -6.485284,6.485284 l -25.338629,2e-6 6.087489,-15.91893 a 9.4761519,9.4761519 145.46357 0 1 8.851061,-6.091456 z"
       transform="translate(231.87578,-6.0562701)" /><path
       style="font-size:10px;line-height:0px;font-family:'TeX Gyre Heros';-inkscape-font-specification:'TeX Gyre Heros';text-align:end;text-orientation:upright;text-anchor:end;white-space:pre;display:none;fill:#000000;stroke:#000000;stroke-width:0.85776;stroke-dasharray:none;stroke-opacity:1"
       d="m 284.74702,83.428452 -4.19417,-6.27967 4.0783,-5.86257 h -2.17818 l -2.9197,4.40272 -2.9197,-4.40272 h -2.20136 l 4.05514,5.955259 -4.28687,6.186981 h 2.20137 l 3.0819,-4.657616 3.03556,4.657616 z"
       id="path2"
       aria-label="x" /><path
       id="path50"
       style="display:inline;fill:#ffffff;stroke:none;stroke-width:0.967665"
       d="m 238.95508,26.715341 c -4.61212,0 -8.37892,3.768737 -8.37892,8.38086 v 46.550781 c 0,4.612124 3.7668,8.378907 8.37892,8.378907 h 46.55273 c 4.61212,0 8.37891,-3.766783 8.37891,-8.378907 V 35.096201 c 0,-4.612123 -3.76679,-8.38086 -8.37891,-8.38086 z m 10.24023,3.5 h 36.3125 c 2.73365,0 4.87891,2.147197 4.87891,4.88086 v 37.666015 h -12.1836 c -1.6214,-2e-6 -2.93554,1.314155 -2.93554,2.935548 v 10.828125 h -36.3125 c -2.73367,0 -4.87892,-2.145245 -4.87892,-4.878907 V 43.980966 h 12.18361 c 1.62138,3e-6 2.93554,-1.314155 2.93554,-2.935546 z" /><rect
       style="display:inline;vector-effect:non-scaling-stroke;fill:none;stroke:none;stroke-width:0.879209;stroke-dasharray:none;stroke-opacity:1;-inkscape-stroke:hairline"
       id="rect38"
       width="10"
       height="10"
       x="235.33327"
       y="30.686335" /><rect
       style="display:inline;vector-effect:non-scaling-stroke;fill:none;stroke:none;stroke-width:0.879209;stroke-dasharray:none;stroke-opacity:1;-inkscape-stroke:hairline"
       id="rect37"
       width="10"
       height="10"
       x="-289.12961"
       y="-86.054893"
       transform="scale(-1)" /></g><g
     id="layer1"
     style="display:inline"
     transform="translate(-230.57616,-26.715342)"><rect
       style="display:inline;fill:none;stroke:#000080"
       id="rect3"
       width="453.37231"
       height="360"
       x="0"
       y="0" /></g></svg>
