<?xml version="1.0" encoding="UTF-8" standalone="no"?>
<!-- Created with Inkscape (http://www.inkscape.org/) -->

<svg
   width="22.126329mm"
   height="22.126329mm"
   viewBox="0 0 22.126329 22.126328"
   version="1.1"
   id="svg1"
   inkscape:version="1.3 (0e150ed6c4, 2023-07-21)"
   sodipodi:docname="engine.svg"
   xmlns:inkscape="http://www.inkscape.org/namespaces/inkscape"
   xmlns:sodipodi="http://sodipodi.sourceforge.net/DTD/sodipodi-0.dtd"
   xmlns:xlink="http://www.w3.org/1999/xlink"
   xmlns="http://www.w3.org/2000/svg"
   xmlns:svg="http://www.w3.org/2000/svg">
  <sodipodi:namedview
     id="namedview1"
     pagecolor="#ffffff"
     bordercolor="#666666"
     borderopacity="1.0"
     inkscape:showpageshadow="2"
     inkscape:pageopacity="0.0"
     inkscape:pagecheckerboard="0"
     inkscape:deskcolor="#d1d1d1"
     inkscape:document-units="mm"
     inkscape:zoom="1.0672419"
     inkscape:cx="-37.479789"
     inkscape:cy="260.01604"
     inkscape:window-width="1600"
     inkscape:window-height="837"
     inkscape:window-x="-8"
     inkscape:window-y="-8"
     inkscape:window-maximized="1"
     inkscape:current-layer="layer1"
     showguides="true"
     showgrid="false" />
  <defs
     id="defs1">
    <linearGradient
       inkscape:collect="always"
       xlink:href="#linearGradient4194"
       id="linearGradient4196"
       x1="173.7937"
       y1="103.86262"
       x2="148.46954"
       y2="119.399"
       gradientUnits="userSpaceOnUse"
       gradientTransform="matrix(0.88103289,0,0,0.88103289,-64.695325,-33.3136)" />
    <linearGradient
       inkscape:collect="always"
       id="linearGradient4194">
      <stop
         style="stop-color:#ffcc00;stop-opacity:0.09696969;"
         offset="0"
         id="stop4190" />
      <stop
         style="stop-color:#ffcc00;stop-opacity:1;"
         offset="1"
         id="stop4192" />
    </linearGradient>
  </defs>
  <g
     inkscape:label="directionBox"
     inkscape:groupmode="layer"
     id="layer1"
     style="display:inline;fill:#000080"
     transform="translate(-59.380076,-59.69736)">
    <g
       id="cardinal_group"
       style="display:inline;fill:#ff00ff"
       inkscape:label="border">
      <path
         id="path29"
         style="color:#000000;display:inline;fill:#333333;fill-rule:evenodd;stroke-width:0.999999;-inkscape-stroke:none"
         inkscape:label="stripes"
         d="m 44.022326,52.155986 v 0.825206 l 0.350198,-0.825206 z m 2.910798,0 -1.685309,3.972072 h 2.5606 l 1.685309,-3.972072 z m 5.120786,0 -1.685305,3.972072 h 2.560599 l 1.685306,-3.972072 z m 5.121204,0 -1.685309,3.972072 h 2.560193 l 1.685306,-3.972072 z m 5.12079,0 -1.685306,3.972072 h 2.560596 l 1.685308,-3.972072 z m 5.120787,0 -1.685307,3.972072 h 2.5606 l 1.685308,-3.972072 z m 5.121204,0 -1.68531,3.972072 h 2.560192 l 1.685305,-3.972072 z m 5.120786,0 -1.685306,3.972072 h 2.56019 l 1.685307,-3.972072 z m 5.120792,0 -1.685308,3.972072 h 2.5606 l 1.685305,-3.972072 z m 5.120787,0 -1.685307,3.972072 h 2.5606 l 1.685307,-3.972072 z m 5.121203,0 -1.685308,3.972072 h 2.56019 l 1.685303,-3.972072 z m 3.785679,3.146866 -0.3502,0.825205 h 0.3502 z m -54.626135,2.911209 -3.972479,1.685309 v 2.560598 l 3.972479,-1.685305 z m 60.483043,0.337471 -3.972068,1.685308 v 2.560598 l 3.972068,-1.685305 z m -60.483043,4.783318 -3.972479,1.685309 v 2.5606 l 3.972479,-1.685309 z m 60.483043,0.33747 -3.972068,1.685309 v 2.560601 l 3.972068,-1.685306 z m -60.483043,4.78373 -3.972479,1.685309 v 2.56019 l 3.972479,-1.685309 z m 60.483043,0.337474 -3.972068,1.685306 v 2.56019 l 3.972068,-1.685306 z m -60.483043,4.783315 -3.972479,1.68531 v 2.5606 l 3.972479,-1.68531 z m 60.483043,0.337475 -3.972068,1.685305 v 2.5606 l 3.972068,-1.685309 z m -60.483043,4.783317 -3.972479,1.685308 v 2.5606 l 3.972479,-1.685308 z m 60.483043,0.33747 -3.972068,1.685308 v 2.5606 l 3.972068,-1.685305 z m -60.483043,4.78373 -3.972479,1.685305 v 2.56019 l 3.972479,-1.685307 z m 60.483043,0.337473 -3.972068,1.685307 v 2.560188 l 3.972068,-1.685305 z m -60.483043,4.783315 -3.972479,1.685307 v 2.560604 l 3.972479,-1.68531 z m 60.483043,0.337472 -3.972068,1.685309 v 2.5606 l 3.972068,-1.685309 z m -60.483043,4.78332 -3.972479,1.685309 v 2.560596 l 3.972479,-1.685306 z m 60.483043,0.33747 -3.972068,1.685309 v 2.560596 l 3.972068,-1.685306 z m -60.483043,4.783729 -3.972479,1.6853 v 2.5602 l 3.972479,-1.68532 z m 60.483043,0.337471 -3.972068,1.685309 v 2.5602 l 3.972068,-1.68533 z m -60.483043,4.783309 -3.972479,1.68532 v 2.56018 l 3.972479,-1.6853 z m 60.483043,0.33747 -3.972068,1.68533 v 2.56017 l 3.972068,-1.6853 z m -60.483043,4.78333 -3.972479,1.6853 v 2.56063 l 3.972479,-1.68533 z m 60.483043,0.33747 -3.972068,1.68531 v 2.56059 l 3.972068,-1.68529 z m -60.483043,4.78333 -3.972479,1.6853 v 2.5606 l 3.972479,-1.6853 z m 60.483043,0.33748 -3.972068,1.6853 v 2.5606 l 3.972068,-1.6853 z m -60.483043,4.78372 -3.972479,1.6853 v 2.56018 l 3.972479,-1.6853 z m 60.483043,0.33748 -3.972068,1.6853 v 2.56017 l 3.972068,-1.6853 z m -60.483043,4.7833 -3.972479,1.6853 v 2.56059 l 3.972479,-1.68529 z m 60.483043,0.33747 -3.972068,1.6853 v 2.5606 l 3.972068,-1.6853 z m -60.483043,4.78333 -3.972479,1.6853 v 2.5606 l 3.972479,-1.6853 z m 60.483043,0.33745 -3.972068,1.6853 v 2.5606 l 3.972068,-1.6853 z m -60.483043,4.78375 -3.972479,1.6853 v 2.56016 l 3.972479,-1.6853 z m 60.483043,0.33745 -3.972068,1.68531 v 2.56018 l 3.972068,-1.68529 z m -57.416235,6.3229 1.685309,3.97206 h 2.56019 l -1.685309,-3.97206 z m 5.12079,0 1.685305,3.97206 h 2.5606 l -1.685306,-3.97206 z m 5.120789,0 1.685309,3.97206 h 2.560601 l -1.685306,-3.97206 z m 5.121204,0 1.685306,3.97206 h 2.560188 l -1.685305,-3.97206 z m 5.120786,0 1.685308,3.97206 h 2.56019 l -1.685308,-3.97206 z m 5.120791,0 1.685307,3.97206 h 2.5606 l -1.685305,-3.97206 z m 5.120787,0 1.68531,3.97206 h 2.5606 l -1.685307,-3.97206 z m 5.121203,0 1.685308,3.97206 h 2.56019 l -1.685308,-3.97206 z m 5.120788,0 1.685307,3.97206 h 2.5606 l -1.685307,-3.97206 z m 5.12079,0 1.68531,3.97206 h 2.560595 l -1.685303,-3.97206 z m 5.121199,0 0.3502,0.82521 v -0.82521 z m -52.434615,3.14686 v 0.8252 h 0.350197 z"
         inkscape:export-filename="..\..\..\..\web_dev_ai\sonar\public\assets\ui\directionBorder.svg"
         inkscape:export-xdpi="97.1796"
         inkscape:export-ydpi="97.1796" />
      <path
         id="path26"
         style="color:#000000;display:inline;fill:#008080;fill-rule:evenodd;stroke-width:0.999999;-inkscape-stroke:none"
         d="m 97.718153,51.316413 c -0.1977,-0.007 -0.396876,-0.0025 -0.596535,0.0135 -0.104813,-1.99e-4 -0.209625,1.86e-4 -0.314477,0 v 5.645463 c 0.25015,2.07e-4 0.500346,-2.18e-4 0.750487,0 0.417914,0.210125 0.309665,0.695147 0.284098,1.122445 h 5.650804 c -2.8e-4,-0.366475 3e-4,-0.732978 0,-1.099455 -0.13504,-2.985963 -2.80854,-5.580079 -5.774384,-5.682008 z m -54.548952,0.0046 c -3.1978,0.08049 -6.009735,3.087633 -5.78629,6.297423 -2.78e-4,0.1597 2.7e-4,0.31941 0,0.479115 h 5.652862 c 2.5e-4,-0.284095 -2.57e-4,-0.568213 0,-0.852305 0.105937,-0.33623 0.580723,-0.308385 0.861333,-0.27795 0.04175,1.7e-5 0.0835,-2.3e-5 0.1252,0 V 51.321 c -0.284248,6e-5 -0.568475,-5.2e-5 -0.852713,0 z m -5.776438,88.627547 c 0.0019,0.35786 -9.52e-4,0.7158 0.0012,1.0736 0.263615,3.10175 3.233795,5.7111 6.3586,5.46403 0.0899,1.4e-4 0.179825,-1.8e-4 0.269728,0 v -5.65327 c -0.2403,-3.2e-4 -0.480633,3.1e-4 -0.720928,0 -0.330395,-0.17225 -0.31666,-0.52859 -0.286565,-0.88436 z m 60.44404,0 c -1.8e-4,0.2085 1.93e-4,0.41687 0,0.62528 -0.20395,0.36655 -0.632465,0.30157 -1.029662,0.26927 v 5.65164 c 0.559722,-0.004 1.118532,-0.0175 1.674226,-0.0824 2.930753,-0.4894 5.250413,-3.36617 5.018973,-6.3467 1e-5,-0.0394 0,-0.0781 0,-0.11751 z"
         inkscape:label="corners"
         inkscape:export-filename="..\..\..\..\web_dev_ai\sonar\public\assets\ui\directionCorners.svg"
         inkscape:export-xdpi="97.1796"
         inkscape:export-ydpi="97.1796" />
      <path
         id="directionLabel"
         style="display:none;opacity:1;fill:#ff00ff;fill-rule:evenodd;stroke-width:3"
         transform="rotate(-90)"
         d="m -66.581424,26.561394 h 25.147597 c 2.42792,0 4.382527,1.954607 4.382527,4.382527 v 16.85928 c 0,2.42792 -1.954607,4.382527 -4.382527,4.382527 h -25.147597 c -2.42792,0 -4.382527,-1.954607 -4.382527,-4.382527 v -16.85928 c 0,-2.42792 1.954607,-4.382527 4.382527,-4.382527 z"
         inkscape:export-filename="..\..\..\..\web_dev_ai\sonar\public\assets\ui\directionLabel.svg"
         inkscape:export-xdpi="97.1796"
         inkscape:export-ydpi="97.1796" />
    </g>
    <g
       inkscape:groupmode="layer"
       id="system_slots"
       inkscape:label="system_slots"
       style="display:inline;fill:#ffffff">
      <path
         id="circle5"
         style="display:inline;opacity:1;fill:#ffffff;fill-rule:evenodd;stroke:none;stroke-width:1.7;stroke-dasharray:none"
         inkscape:label="circuitColor"
         d="m 70.443416,59.697361 a 11.063162,11.063162 0 0 0 -11.06334,11.062987 11.063162,11.063162 0 0 0 11.06334,11.06334 11.063162,11.063162 0 0 0 11.062987,-11.06334 11.063162,11.063162 0 0 0 -11.062987,-11.062987 z m 0,1.864917 a 9.1981891,9.1981891 0 0 1 9.198071,9.19807 9.1981891,9.1981891 0 0 1 -9.198071,9.198425 9.1981891,9.1981891 0 0 1 -9.198424,-9.198425 9.1981891,9.1981891 0 0 1 9.198424,-9.19807 z"
         inkscape:export-filename="..\..\..\..\web_dev_ai\sonar\public\assets\ui\circuitColor.svg"
         inkscape:export-xdpi="97.1796"
         inkscape:export-ydpi="97.1796" />
      <path
         id="path1"
         style="display:none;opacity:1;fill:#ffffff;fill-rule:evenodd;stroke-width:1.7"
         inkscape:label="toggle"
         d="m 79.641527,70.760524 a 9.1981891,9.1981891 0 0 1 -9.198187,9.198188 9.1981891,9.1981891 0 0 1 -9.198188,-9.198188 9.1981891,9.1981891 0 0 1 9.198188,-9.198187 9.1981891,9.1981891 0 0 1 9.198187,9.198187 z"
         inkscape:export-filename="..\..\..\..\web_dev_ai\sonar\public\assets\ui\toggle.svg"
         inkscape:export-xdpi="97.1796"
         inkscape:export-ydpi="97.1796" />
    </g>
  </g>
  <g
     inkscape:groupmode="layer"
     id="layer4"
     inkscape:label="circuits"
     sodipodi:insensitive="true"
     style="display:none"
     transform="translate(-59.380076,-59.69736)">
    <rect
       style="display:inline;fill:none;fill-rule:evenodd;stroke:#00aad4;stroke-width:3;stroke-dasharray:none"
       id="rect53"
       width="112.22038"
       height="72.144714"
       x="70.443359"
       y="62.835556" />
  </g>
  <g
     inkscape:groupmode="layer"
     id="layer2"
     inkscape:label="buttons"
     style="display:none"
     transform="translate(-59.380076,-59.69736)"
     sodipodi:insensitive="true">
    <path
       id="silent_run"
       style="display:inline;fill:url(#linearGradient4196);fill-opacity:1;stroke:none;stroke-width:0.265;stroke-dasharray:none;stroke-opacity:1"
       inkscape:label="silent"
       d="m 71.741742,58.904628 c -0.66817,0.02 -1.971954,0.15537 -2.360066,0.2682 -0.572394,0.1664 -0.916956,0.54843 -0.930176,0.81959 -0.02897,0.16842 -0.118339,0.13414 -0.56689,0.15554 l -0.615466,0.0295 0.56379,0.38189 0.563789,0.38189 0.05891,0.66042 c 0.03216,0.36327 0.07818,0.84518 0.102319,1.07074 l 0.04393,0.40979 -2.45308,0.91467 c -2.804869,1.04569 -3.864112,1.56628 -4.976441,2.44585 -1.136109,0.89837 -1.985276,2.11096 -1.990576,2.84479 -0.0026,0.32944 0.236719,0.93358 0.473356,1.19527 0.23417,0.25896 0.850896,0.56108 1.345138,0.65888 0.67665,0.13372 1.907334,0.11331 3.030306,-0.0506 1.996354,-0.29146 3.460301,-0.74707 7.15925,-2.2288 1.938,-0.77632 4.16407,-1.63083 4.94699,-1.89859 2.02233,-0.69163 4.63212,-1.733462 6.31316,-2.569272 -0.05978,-1.835702 0.252815,-1.446484 -0.74503,-4.998228 -2.28265,0.53189 -5.45089,1.43418 -9.28729,2.65565 -0.17938,0.0571 -0.21891,0.0216 -0.25631,-0.23409 -0.04283,-0.31475 0.03504,-0.36741 0.99632,-0.55966 0.57853,-0.11571 0.41449,-0.0539 -0.2744,-0.23668 l -0.70073,-0.18603 v -0.83974 c 0,-0.56411 -0.01938,-1.04454 -0.04238,-1.06764 -0.02401,-0.024 -0.1757,-0.0299 -0.39842,-0.0232 z"
       sodipodi:nodetypes="cscccccccccscsccssccccsccsccc"
       inkscape:export-filename="..\..\..\..\web_dev_ai\sonar\public\assets\ui\stealth.svg"
       inkscape:export-xdpi="97.1796"
       inkscape:export-ydpi="97.1796" />
  </g>
</svg>
