<?xml version="1.0" encoding="UTF-8" standalone="no"?>
<!-- Created with Inkscape (http://www.inkscape.org/) -->

<svg
   width="15.000001mm"
   height="15.118308mm"
   viewBox="0 0 15.000001 15.118307"
   version="1.1"
   id="svg1"
   inkscape:version="1.3 (0e150ed6c4, 2023-07-21)"
   sodipodi:docname="engine.svg"
   xmlns:inkscape="http://www.inkscape.org/namespaces/inkscape"
   xmlns:sodipodi="http://sodipodi.sourceforge.net/DTD/sodipodi-0.dtd"
   xmlns:xlink="http://www.w3.org/1999/xlink"
   xmlns="http://www.w3.org/2000/svg"
   xmlns:svg="http://www.w3.org/2000/svg">
  <sodipodi:namedview
     id="namedview1"
     pagecolor="#ffffff"
     bordercolor="#666666"
     borderopacity="1.0"
     inkscape:showpageshadow="2"
     inkscape:pageopacity="0.0"
     inkscape:pagecheckerboard="0"
     inkscape:deskcolor="#d1d1d1"
     inkscape:document-units="mm"
     inkscape:zoom="0.9983453"
     inkscape:cx="52.086187"
     inkscape:cy="426.20524"
     inkscape:window-width="1600"
     inkscape:window-height="837"
     inkscape:window-x="-8"
     inkscape:window-y="-8"
     inkscape:window-maximized="1"
     inkscape:current-layer="layer2"
     showguides="true"
     showgrid="false" />
  <defs
     id="defs1">
    <linearGradient
       inkscape:collect="always"
       xlink:href="#linearGradient1194"
       id="linearGradient1158"
       x1="112.36775"
       y1="107.6194"
       x2="116.24602"
       y2="111.50089"
       gradientUnits="userSpaceOnUse" />
    <linearGradient
       inkscape:collect="always"
       id="linearGradient1194">
      <stop
         style="stop-color:#00ff00;stop-opacity:1;"
         offset="0"
         id="stop1190" />
      <stop
         style="stop-color:#00ff00;stop-opacity:0;"
         offset="1"
         id="stop1192" />
    </linearGradient>
  </defs>
  <g
     inkscape:label="directionBox"
     inkscape:groupmode="layer"
     id="layer1"
     style="display:none;fill:#000080"
     transform="translate(-62.943339,-92.152986)">
    <g
       inkscape:groupmode="layer"
       id="system_slots"
       inkscape:label="system_slots"
       style="display:inline;fill:#ffffff">
      <path
         id="use1"
         style="display:inline;fill:#999999;fill-rule:evenodd;stroke-width:1.7"
         inkscape:label="toggle"
         d="m 79.641527,99.712137 a 9.1981891,9.1981891 0 0 1 -9.198187,9.198193 9.1981891,9.1981891 0 0 1 -9.198188,-9.198193 9.1981891,9.1981891 0 0 1 9.198188,-9.198187 9.1981891,9.1981891 0 0 1 9.198187,9.198187 z"
         inkscape:export-filename="..\..\..\..\web_dev_ai\sonar\public\assets\ui\toggle.svg"
         inkscape:export-xdpi="97.1796"
         inkscape:export-ydpi="97.1796" />
    </g>
  </g>
  <g
     inkscape:groupmode="layer"
     id="layer4"
     inkscape:label="circuits"
     sodipodi:insensitive="true"
     style="display:none"
     transform="translate(-62.943339,-92.152986)">
    <rect
       style="display:inline;fill:none;fill-rule:evenodd;stroke:#00aad4;stroke-width:3;stroke-dasharray:none"
       id="rect53"
       width="112.22038"
       height="72.144714"
       x="70.443359"
       y="62.835556" />
    <path
       style="display:inline;fill:none;fill-rule:evenodd;stroke:#00aad4;stroke-width:3;stroke-dasharray:none"
       d="M 70.443356,98.907908 H 182.66374"
       id="path53" />
  </g>
  <g
     inkscape:groupmode="layer"
     id="layer2"
     inkscape:label="buttons"
     style="display:inline"
     transform="translate(-62.943339,-92.152986)">
    <g
       id="detection"
       inkscape:label="detection"
       style="display:inline;stroke-width:1.27791"
       transform="matrix(0.77997361,0,0,0.78005596,-14.95385,13.661672)"
       inkscape:export-filename="..\..\..\..\web_dev_ai\sonar\public\assets\ui\detection.png"
       inkscape:export-xdpi="97.1796"
       inkscape:export-ydpi="97.1796">
      <path
         id="path8"
         style="display:inline;fill:none;fill-opacity:1;stroke:url(#linearGradient1158);stroke-width:0.50733;stroke-linecap:butt;stroke-linejoin:round;stroke-dasharray:none;paint-order:markers fill stroke"
         transform="matrix(2,0,0,2,-115.20856,-104.81757)"
         d="m 114.40396,103.53913 a 4.5541911,4.5541911 0 0 1 2.49815,4.06366 4.5541911,4.5541911 0 0 1 -4.55419,4.55419 4.5541911,4.5541911 0 0 1 -4.55419,-4.55419 4.5541911,4.5541911 0 0 1 4.55419,-4.55419 4.5541911,4.5541911 0 0 1 1.09664,0.13401 m 0.55266,1.17151 a 3.643353,3.643353 0 0 1 1.99406,3.24867 3.643353,3.643353 0 0 1 -3.64336,3.64335 3.643353,3.643353 0 0 1 -3.64335,-3.64335 3.643353,3.643353 0 0 1 3.64335,-3.64335 3.643353,3.643353 0 0 1 0.88192,0.10835 m -0.0799,1.9844 a 1.745733,1.745733 0 0 1 0.94371,1.5506 1.745733,1.745733 0 0 1 -1.74573,1.74573 1.745733,1.745733 0 0 1 -1.74573,-1.74573 1.745733,1.745733 0 0 1 1.74573,-1.74574 1.745733,1.745733 0 0 1 0.43435,0.0549 m 0.77569,-0.67736 a 2.6594286,2.6594286 0 0 1 1.44939,2.3682 v 0 a 2.6594286,2.6594286 0 0 1 -2.65943,2.65943 2.6594286,2.6594286 0 0 1 -2.65943,-2.65943 2.6594286,2.6594286 0 0 1 2.65943,-2.65943 2.6594286,2.6594286 0 0 1 0.64979,0.0806"
         inkscape:label="rings" />
      <path
         style="display:inline;fill:none;fill-opacity:1;stroke:#00ff00;stroke-width:0.722019;stroke-linecap:round;stroke-linejoin:round;stroke-dasharray:none;stroke-opacity:1"
         d="m 109.52695,110.42124 2.37368,-9.43756"
         id="path538"
         sodipodi:nodetypes="cc"
         inkscape:label="Heading" />
    </g>
  </g>
</svg>
