<?xml version="1.0" encoding="UTF-8" standalone="no"?>
<!-- Created with Inkscape (http://www.inkscape.org/) -->

<svg
   width="224.0298"
   height="82.027435"
   viewBox="0 0 224.0298 82.027435"
   version="1.1"
   id="svg1"
   xml:space="preserve"
   xmlns:xlink="http://www.w3.org/1999/xlink"
   xmlns="http://www.w3.org/2000/svg"
   xmlns:svg="http://www.w3.org/2000/svg"><defs
     id="defs1"><linearGradient
       id="linearGradient41"><stop
         style="stop-color:#ffcc00;stop-opacity:1;"
         offset="0"
         id="stop41" /><stop
         style="stop-color:#ffcc00;stop-opacity:0.09696969;"
         offset="1"
         id="stop40" /></linearGradient><linearGradient
       xlink:href="#linearGradient3557"
       id="linearGradient3559"
       x1="197.29285"
       y1="110.38802"
       x2="216.95833"
       y2="119.75254"
       gradientUnits="userSpaceOnUse"
       gradientTransform="matrix(2.8139139,0,0,2.8139139,-545.89303,-252.2701)" /><linearGradient
       id="linearGradient3557"><stop
         style="stop-color:#ff0000;stop-opacity:1;"
         offset="0"
         id="stop3553" /><stop
         style="stop-color:#ff0000;stop-opacity:0;"
         offset="1"
         id="stop3555" /></linearGradient><linearGradient
       xlink:href="#linearGradient3063"
       id="linearGradient3065"
       x1="108.74067"
       y1="145.0295"
       x2="117.67372"
       y2="153.79167"
       gradientUnits="userSpaceOnUse"
       gradientTransform="matrix(2.757683,0,0,2.757683,-207.26188,-341.49448)" /><linearGradient
       id="linearGradient3063"><stop
         style="stop-color:#b3b3b3;stop-opacity:1;"
         offset="0"
         id="stop3059" /><stop
         style="stop-color:#b3b3b3;stop-opacity:0;"
         offset="1"
         id="stop3061" /></linearGradient><radialGradient
       xlink:href="#linearGradient41"
       id="radialGradient40"
       cx="-58.268368"
       cy="48.514782"
       fx="-58.268368"
       fy="48.514782"
       r="23.930124"
       gradientTransform="matrix(1.6137316,-0.52510513,0.41394222,1.2721147,222.97436,-33.960989)"
       gradientUnits="userSpaceOnUse" /><radialGradient
       xlink:href="#linearGradient41"
       id="radialGradient43"
       cx="-78.010078"
       cy="116.68384"
       fx="-78.010078"
       fy="116.68384"
       r="23.930647"
       gradientTransform="matrix(0.89053584,1.0654706,-0.9564447,0.79939472,330.09934,48.193294)"
       gradientUnits="userSpaceOnUse" /></defs><g
     id="layer4"
     style="display:none"
     transform="translate(-3.9291842,-17.337891)"><path
       id="path1878"
       style="display:inline;fill:none;stroke:url(#linearGradient3559);stroke-width:5.97676;stroke-linecap:butt;stroke-linejoin:miter;stroke-dasharray:none;stroke-opacity:1"
       d="m 9.2720348,58.352265 v 0 m 2.6350902,0 h 18.425094 m 7.925865,-7.905297 V 32.001312 m 26.35096,26.350953 H 46.142786 m -7.884724,7.904256 2.2e-5,18.446725 M 56.35105,58.687768 c 0,10.177729 -8.250704,18.428434 -18.428436,18.428434 -10.177733,0 -18.428437,-8.250705 -18.428437,-18.428434 0,-10.17773 8.250704,-18.428435 18.428437,-18.428435 10.177732,0 18.428436,8.250705 18.428436,18.428435 v 0" /><path
       id="path1939"
       style="display:inline;fill:url(#linearGradient3065);fill-opacity:1;stroke:none;stroke-width:0.729636;stroke-linecap:round;stroke-linejoin:round;stroke-dasharray:none;paint-order:markers fill stroke"
       d="M 92.983726,34.421039 A 23.906643,23.931003 0 0 0 69.076711,58.352263 23.906643,23.931003 0 0 0 92.983726,82.283522 23.906643,23.931003 0 0 0 116.89075,58.352263 23.906643,23.931003 0 0 0 92.983726,34.421039 Z m 0,2.304347 c 4.771174,0.19166 8.171294,1.370097 10.824844,2.942779 L 97.032363,51.41931 c -1.408404,-0.577733 -2.889283,-1.036689 -4.048637,-1.055996 -1.159356,-0.01933 -2.636127,0.370824 -3.954573,1.10729 L 82.210177,39.668165 c 2.616186,-1.364889 5.188609,-2.747259 10.773549,-2.942779 z m 0,17.078057 a 4.5489941,4.5489941 0 0 1 4.548824,4.54882 4.5489941,4.5489941 0 0 1 -4.548824,4.548855 4.5489941,4.5489941 0 0 1 -4.548827,-4.548855 4.5489941,4.5489941 0 0 1 4.548827,-4.54882 z m -21.464423,4.396348 13.563827,0.195243 c 0.181176,1.511464 0.502559,3.02808 1.05029,4.050047 0.548723,1.021448 1.606872,2.123966 2.892894,2.915695 l -6.987142,11.702697 c -2.466195,-1.620304 -4.927268,-3.193474 -7.81795,-7.976128 -2.156151,-4.260481 -2.783274,-7.804021 -2.701919,-10.887554 z m 43.118417,0.107001 v 0.0014 c -0.12465,2.948206 -0.21401,5.86766 -2.83448,10.803471 -2.54948,4.037438 -5.2682,6.394625 -7.95617,7.907739 L 97.052295,65.27829 c 1.204066,-0.931462 2.341248,-1.985174 2.937106,-2.979837 0.594829,-0.995246 0.996769,-2.470142 1.016069,-3.980221 z" /><path
       id="path31"
       style="display:inline;fill:url(#radialGradient43);fill-opacity:1;stroke-width:0.777406;stroke-linecap:round;stroke-linejoin:round;paint-order:markers fill stroke"
       d="m 149.02797,32.854869 -9.72657,8.623655 h 5.51255 v 9.541377 c 1.40477,-0.784687 2.97877,-1.200519 4.21402,-1.179924 1.23527,0.02056 2.81122,0.510254 4.31184,1.125819 l 0.0354,-0.0603 v -9.426924 h 5.43557 z m -16.8748,15.713618 -8.62365,9.78277 8.62365,9.726577 v -5.512555 h 9.54137 c -0.78469,-1.40477 -1.20052,-2.978769 -1.17992,-4.214022 0.0206,-1.235265 0.51025,-2.811213 1.12581,-4.311833 l -0.0603,-0.03537 h -9.42691 z m 33.74755,0.05828 v 5.512555 h -9.54139 c 0.7847,1.40477 1.20053,2.978768 1.17993,4.214022 -0.0206,1.235264 -0.51025,2.811213 -1.12583,4.311833 l 0.0603,0.03537 h 9.42693 v 5.435564 l 8.62366,-9.78277 z m -16.87275,4.879931 a 4.8468206,4.8468206 0 0 0 -4.84664,4.846646 4.8468206,4.8468206 0 0 0 4.84664,4.846646 4.8468206,4.8468206 0 0 0 4.84665,-4.846646 4.8468206,4.8468206 0 0 0 -4.84665,-4.846646 z m 4.21195,12.178002 c -1.40477,0.784687 -2.97877,1.200519 -4.21402,1.179923 -1.23527,-0.02056 -2.81122,-0.510253 -4.31184,-1.125819 l -0.0354,0.06031 v 9.426924 h -5.43556 l 9.78277,8.623655 9.72659,-8.623655 h -5.51257 z" /><path
       id="path36"
       style="display:none;fill:url(#radialGradient40);fill-opacity:1;stroke-width:0.903319;stroke-linecap:round;stroke-linejoin:round;paint-order:markers fill stroke"
       d="m 166.73458,36.410937 -18.20943,3.654185 6.92619,2.134887 -6.62588,8.210802 c 2.30991,-0.131219 4.57631,0.120496 6.11403,0.616611 1.53773,0.496091 3.17777,1.52782 4.63574,2.63869 l 0.0863,-0.03825 6.5464,-8.112311 6.82944,2.105068 z m -32.11426,6.987088 -17.62859,5.078798 4.08057,11.709925 3.82812,-4.743823 11.98815,3.695153 c -0.0107,-1.512776 0.56018,-3.028299 1.44387,-4.083324 0.88366,-1.055028 2.59332,-2.221568 4.40881,-3.274527 L 142.69,51.72641 130.84567,48.075586 Z m 42.36121,13.119774 -3.82812,4.743823 -11.98814,-3.695153 c 0.0107,1.512776 -0.56019,3.0283 -1.44387,4.083324 -0.88366,1.055029 -2.59332,2.221569 -4.40881,3.274528 l 0.0513,0.05382 11.84433,3.650823 -3.77465,4.677562 17.62859,-5.078797 z m -24.58834,-2.334991 a 4.54695,6.9755727 84.629363 0 0 -9.45519,2.293774 4.54695,6.9755727 84.629363 0 0 2.72381,6.047756 4.54695,6.9755727 84.629363 0 0 9.45519,-2.293775 4.54695,6.9755727 84.629363 0 0 -2.72381,-6.047755 z m -3.16481,12.110928 c -2.30991,0.131219 -4.57631,-0.120496 -6.11403,-0.616611 -1.53776,-0.49609 -3.17777,-1.527819 -4.63574,-2.638688 l -0.0864,0.03825 -6.5464,8.112308 -6.82944,-2.105067 6.30285,11.2097 18.20943,-3.654185 -6.92619,-2.134887 z" /></g><g
     id="layer2"
     style="display:none"
     transform="translate(-3.9291842,-17.337891)"><g
       id="g47"
       transform="translate(0.09806562,0.32612114)"
       style="display:inline"><use
         x="0"
         y="0"
         xlink:href="#rect15"
         id="use16"
         transform="translate(154.75017,-0.03934479)" /><use
         x="0"
         y="0"
         xlink:href="#rect15"
         id="use15"
         transform="translate(77.375085)" /><rect
         style="fill:none;stroke:#008000;stroke-width:0.920947"
         id="rect15"
         width="72.860466"
         height="72.175049"
         x="225.80121"
         y="22.283091" /></g></g><g
     id="layer3"
     style="display:none"
     transform="translate(-3.9291842,-17.337891)"><g
       id="g6"
       style="display:none"><rect
         style="display:inline;fill:none;stroke:#008080;stroke-width:1.01514"
         id="use9"
         width="46.81403"
         height="74.333138"
         x="140.14146"
         y="22.96549"
         transform="matrix(1,0,-0.24149456,0.97040217,0,0)" /><rect
         style="display:inline;fill:none;stroke:#008080;stroke-width:1.01514"
         id="use8"
         width="46.81403"
         height="74.333138"
         x="84.098282"
         y="22.96549"
         transform="matrix(1,0,-0.24149456,0.97040217,0,0)" /><rect
         style="display:inline;fill:none;stroke:#008080;stroke-width:1.01514"
         id="rect13"
         width="46.81403"
         height="74.333138"
         x="28.085646"
         y="22.96549"
         transform="matrix(1,0,-0.24149456,0.97040217,0,0)" /></g><path
       id="rect12"
       style="display:none;fill:#ff00ff;stroke:none"
       d="M 43.462891,72.408203 A 9.4761519,9.4761519 0 0 0 34.611328,78.5 l -6.08789,15.917969 h 22.847656 l 5.476562,-22.009766 z" /><use
       x="0"
       y="0"
       xlink:href="#rect12"
       id="use43"
       transform="rotate(180,48.875177,58.356005)"
       style="display:none" /><path
       style="font-size:10px;line-height:0px;font-family:'TeX Gyre Heros';-inkscape-font-specification:'TeX Gyre Heros';text-align:end;text-orientation:upright;text-anchor:end;white-space:pre;display:none;fill:#000000;stroke:#000000;stroke-width:1;stroke-dasharray:none"
       d="m 47.984799,88.517643 -2.524782,-6.133191 5.45035,-5.725819 h -2.12738 l -3.953422,4.300022 -1.749766,-4.300022 h -2.150012 l 2.470181,5.816346 -5.735224,6.042664 h 2.150012 l 4.175635,-4.548972 1.799133,4.548972 z"
       id="text2"
       aria-label="x" /></g><g
     id="layer1"
     style="display:inline"
     transform="translate(-3.9291842,-17.337891)"><rect
       style="display:inline;fill:none;stroke:#000080"
       id="rect3"
       width="453.37231"
       height="360"
       x="0"
       y="0" /><g
       id="g7"
       transform="matrix(1,0,-0.25086764,1,45.594093,8.3060696e-4)"
       style="display:inline"><use
         x="0"
         y="0"
         xlink:href="#rect2154-9"
         id="use7"
         transform="translate(65.943147,262.86032)" /><use
         x="0"
         y="0"
         xlink:href="#rect2154-9"
         id="use6"
         transform="translate(43.962098,175.24021)" /><use
         x="0"
         y="0"
         xlink:href="#rect2154-9"
         id="use5"
         transform="translate(21.98105,87.620107)" /><path
         id="rect2154-9"
         style="baseline-shift:baseline;display:inline;overflow:visible;opacity:1;vector-effect:none;fill:#ffffff;stroke-linecap:round;stroke-linejoin:round;paint-order:markers fill stroke;enable-background:accumulate;stop-color:#000000;stop-opacity:1"
         d="m 144.5267,17.33706 a 4.5443323,3.5383708 41.425256 0 0 -2.77747,1.548828 H -2.3269379 c -0.9121936,0 -1.8030507,0.08341 -2.6824376,0.207031 -0.2730672,0.03838 -0.5381767,0.09477 -0.8074918,0.144532 -0.6282191,0.116013 -1.244393,0.259947 -1.8497197,0.435547 -0.2628087,0.07625 -0.5244917,0.149278 -0.7825098,0.236328 -0.7055599,0.237906 -1.3921354,0.513242 -2.0578752,0.828125 -0.110031,0.05206 -0.225495,0.0924 -0.334346,0.146484 -0.767888,0.381318 -1.498698,0.818201 -2.202489,1.294922 -0.05752,0.03896 -0.123511,0.0659 -0.180573,0.105469 h 0.03711 c -1.639106,1.132836 -3.101333,2.497479 -4.298712,4.072265 -1.159854,1.525365 -2.084322,3.231223 -2.718747,5.06836 l 4.9e-4,0.002 c -0.316961,0.918102 -0.562184,1.868653 -0.727512,2.845703 l 4.9e-4,0.002 c -0.165229,0.977044 -0.252276,1.980523 -0.252276,3.003906 l 9.23e-4,42.146485 c 0,1.549581 0.198515,3.054191 0.569814,4.490234 0.14534,0.562882 0.322722,1.111609 0.519988,1.652344 0.05894,0.161387 0.12842,0.317301 0.19182,0.476562 0.151498,0.380965 0.311016,0.756878 0.487304,1.125 0.08179,0.170689 0.168863,0.338084 0.25581,0.50586 0.181948,0.351269 0.375615,0.695346 0.57951,1.033203 0.09572,0.158557 0.190057,0.317197 0.290449,0.472656 0.237592,0.368056 0.489007,0.724372 0.751909,1.074219 0.06256,0.08325 0.115479,0.173682 0.179421,0.255859 l -9.87e-4,-0.01172 c 1.170949,1.506334 2.576544,2.824464 4.15672,3.917969 h -0.02539 c 0.08442,0.05856 0.174972,0.10879 0.260398,0.166016 0.183985,0.123239 0.370363,0.242413 0.558906,0.359375 0.228034,0.141484 0.458311,0.27811 0.692738,0.410156 0.201904,0.113716 0.405652,0.223542 0.612103,0.330078 0.229506,0.118435 0.461706,0.230515 0.696584,0.339844 0.215381,0.100268 0.431435,0.198588 0.6511316,0.291016 0.2361717,0.09934 0.4761191,0.191191 0.7170409,0.28125 0.2291106,0.08567 0.457941,0.170972 0.6911331,0.248046 0.2510143,0.08295 0.5069131,0.155766 0.7624053,0.228516 0.2226591,0.06342 0.4437226,0.130041 0.6695946,0.185547 0.2722615,0.0669 0.5486901,0.120641 0.8253478,0.175781 0.2290226,0.04567 0.4557745,0.09538 0.6876153,0.132813 0.2588868,0.04177 0.5225735,0.06832 0.7847544,0.09961 0.2501236,0.02988 0.4976635,0.06774 0.7505645,0.08789 0.5080937,0.04044 1.0210366,0.0625 1.5391167,0.0625 H 142.02279 a 2.7763764,2.1617806 41.425256 0 0 2.65856,1.535156 l 59.56984,0.01367 a 3.445723,2.6829565 41.425256 0 0 2.27812,-3.041016 L 187.44818,20.262841 A 3.3148598,2.5810619 41.425256 0 0 183.78842,17.33706 Z M -2.3269001,25.682763 H 29.325444 l 0.130907,65.335938 H -2.3268526 c -6.7956102,0 -12.0608404,-5.167255 -12.0608404,-11.59375 l 0.001,-42.146485 c 0,-6.426266 5.2646697,-11.595703 12.0597629,-11.595703 z m 40.8828121,0 h 46.8125 l 0.130907,65.335938 h -46.8125 z m 56.042969,0 h 46.808589 l 0.1231,65.335938 H 94.729788 Z" /><rect
         style="display:inline;fill:none;stroke:none;stroke-width:1.28395;stroke-dasharray:none;stroke-opacity:1"
         id="rect14"
         width="30.421871"
         height="42.233871"
         x="187.11598"
         y="37.234627"
         transform="matrix(1,0,0.25086764,1,-45.594301,-8.3060696e-4)" /></g></g></svg>
