<?xml version="1.0" encoding="UTF-8" standalone="no"?>
<!-- Created with Inkscape (http://www.inkscape.org/) -->

<svg
   width="452.4989"
   height="82.027435"
   viewBox="0 0 452.4989 82.027435"
   version="1.1"
   id="svg1"
   xml:space="preserve"
   sodipodi:docname="directionFrame.svg"
   inkscape:export-filename="directionFrame.svg"
   inkscape:export-xdpi="96"
   inkscape:export-ydpi="96"
   inkscape:version="1.4.2 (ebf0e940d0, 2025-05-08)"
   xmlns:inkscape="http://www.inkscape.org/namespaces/inkscape"
   xmlns:sodipodi="http://sodipodi.sourceforge.net/DTD/sodipodi-0.dtd"
   xmlns="http://www.w3.org/2000/svg"
   xmlns:svg="http://www.w3.org/2000/svg"><sodipodi:namedview
     id="namedview1"
     pagecolor="#505050"
     bordercolor="#eeeeee"
     borderopacity="1"
     inkscape:showpageshadow="0"
     inkscape:pageopacity="0"
     inkscape:pagecheckerboard="0"
     inkscape:deskcolor="#505050"
     showgrid="false"
     inkscape:zoom="2.441308"
     inkscape:cx="192.92936"
     inkscape:cy="9.4211791"
     inkscape:window-width="1600"
     inkscape:window-height="767"
     inkscape:window-x="0"
     inkscape:window-y="0"
     inkscape:window-maximized="1"
     inkscape:current-layer="svg1" /><defs
     id="defs1" /><g
     id="layer1"
     style="display:inline"
     transform="translate(-3.9291841,-17.337891)"
     inkscape:label="frame_layer"
     sodipodi:insensitive="true"><g
       id="g7"
       transform="matrix(1,0,-0.25086764,1,45.594093,8.3060696e-4)"
       style="display:inline"
       inkscape:label="directionFrame"><path
         id="rect2154-9"
         style="baseline-shift:baseline;display:inline;overflow:visible;opacity:1;vector-effect:none;fill:#ffffff;stroke-linecap:round;stroke-linejoin:round;paint-order:markers fill stroke;enable-background:accumulate;stop-color:#000000;stop-opacity:1"
         d="m 144.5267,17.33706 a 4.5443323,3.5383708 41.425256 0 0 -2.77747,1.548828 H -2.3269379 c -0.9121936,0 -1.8030507,0.08341 -2.6824376,0.207031 -0.2730672,0.03838 -0.5381767,0.09477 -0.8074918,0.144532 -0.6282191,0.116013 -1.244393,0.259947 -1.8497197,0.435547 -0.2628087,0.07625 -0.5244917,0.149278 -0.7825098,0.236328 -0.7055599,0.237906 -1.3921354,0.513242 -2.0578752,0.828125 -0.110031,0.05206 -0.225495,0.0924 -0.334346,0.146484 -0.767888,0.381318 -1.498698,0.818201 -2.202489,1.294922 -0.05752,0.03896 -0.123511,0.0659 -0.180573,0.105469 h 0.03711 c -1.639106,1.132836 -3.101333,2.497479 -4.298712,4.072265 -1.159854,1.525365 -2.084322,3.231223 -2.718747,5.06836 l 4.9e-4,0.002 c -0.316961,0.918102 -0.562184,1.868653 -0.727512,2.845703 l 4.9e-4,0.002 c -0.165229,0.977044 -0.252276,1.980523 -0.252276,3.003906 l 9.23e-4,42.146485 c 0,1.549581 0.198515,3.054191 0.569814,4.490234 0.14534,0.562882 0.322722,1.111609 0.519988,1.652344 0.05894,0.161387 0.12842,0.317301 0.19182,0.476562 0.151498,0.380965 0.311016,0.756878 0.487304,1.125 0.08179,0.170689 0.168863,0.338084 0.25581,0.50586 0.181948,0.351269 0.375615,0.695346 0.57951,1.033203 0.09572,0.158557 0.190057,0.317197 0.290449,0.472656 0.237592,0.368056 0.489007,0.724372 0.751909,1.074219 0.06256,0.08325 0.115479,0.173682 0.179421,0.255859 l -9.87e-4,-0.01172 c 1.170949,1.506334 2.576544,2.824464 4.15672,3.917969 h -0.02539 c 0.08442,0.05856 0.174972,0.10879 0.260398,0.166016 0.183985,0.123239 0.370363,0.242413 0.558906,0.359375 0.228034,0.141484 0.458311,0.27811 0.692738,0.410156 0.201904,0.113716 0.405652,0.223542 0.612103,0.330078 0.229506,0.118435 0.461706,0.230515 0.696584,0.339844 0.215381,0.100268 0.431435,0.198588 0.6511316,0.291016 0.2361717,0.09934 0.4761191,0.191191 0.7170409,0.28125 0.2291106,0.08567 0.457941,0.170972 0.6911331,0.248046 0.2510143,0.08295 0.5069131,0.155766 0.7624053,0.228516 0.2226591,0.06342 0.4437226,0.130041 0.6695946,0.185547 0.2722615,0.0669 0.5486901,0.120641 0.8253478,0.175781 0.2290226,0.04567 0.4557745,0.09538 0.6876153,0.132813 0.2588868,0.04177 0.5225735,0.06832 0.7847544,0.09961 0.2501236,0.02988 0.4976635,0.06774 0.7505645,0.08789 0.5080937,0.04044 1.0210366,0.0625 1.5391167,0.0625 H 142.02279 a 2.7763764,2.1617806 41.425256 0 0 2.65856,1.535156 l 59.56984,0.01367 a 3.445723,2.6829565 41.425256 0 0 2.27812,-3.041016 L 187.44818,20.262841 A 3.3148598,2.5810619 41.425256 0 0 183.78842,17.33706 Z M -2.3269001,25.682763 H 29.325444 l 0.130907,65.335938 H -2.3268526 c -6.7956102,0 -12.0608404,-5.167255 -12.0608404,-11.59375 l 0.001,-42.146485 c 0,-6.426266 5.2646697,-11.595703 12.0597629,-11.595703 z m 40.8828121,0 h 46.8125 l 0.130907,65.335938 h -46.8125 z m 56.042969,0 h 46.808589 l 0.1231,65.335938 H 94.729788 Z"
         inkscape:label="frame" /><path
         id="rect14"
         style="display:inline;fill:none;stroke:#000000;stroke-width:1.28395"
         inkscape:label="Direction_label"
         transform="matrix(1,0,0.25086764,1,-45.594301,-8.3060696e-4)"
         d="m 187.11598,37.234627 h 30.42187 v 42.233871 h -30.42187 z" /></g></g></svg>
