<?xml version="1.0" encoding="UTF-8" standalone="no"?>
<!-- Created with Inkscape (http://www.inkscape.org/) -->

<svg
   width="1.6686536in"
   height="0.97500646in"
   viewBox="0 0 42.383802 24.765164"
   version="1.1"
   id="svg5"
   inkscape:version="1.3 (0e150ed6c4, 2023-07-21)"
   sodipodi:docname="Control Panel Layout.svg"
   xml:space="preserve"
   xmlns:inkscape="http://www.inkscape.org/namespaces/inkscape"
   xmlns:sodipodi="http://sodipodi.sourceforge.net/DTD/sodipodi-0.dtd"
   xmlns:xlink="http://www.w3.org/1999/xlink"
   xmlns="http://www.w3.org/2000/svg"
   xmlns:svg="http://www.w3.org/2000/svg"><sodipodi:namedview
     id="namedview7"
     pagecolor="#ffffff"
     bordercolor="#666666"
     borderopacity="1.0"
     inkscape:showpageshadow="2"
     inkscape:pageopacity="0.0"
     inkscape:pagecheckerboard="0"
     inkscape:deskcolor="#d1d1d1"
     inkscape:document-units="mm"
     showgrid="false"
     inkscape:zoom="4.0000001"
     inkscape:cx="671.12498"
     inkscape:cy="276.87499"
     inkscape:window-width="1600"
     inkscape:window-height="837"
     inkscape:window-x="-8"
     inkscape:window-y="-8"
     inkscape:window-maximized="1"
     inkscape:current-layer="layer3"
     showguides="true"><inkscape:grid
       type="xygrid"
       id="grid1674"
       originx="-606.28447"
       originy="-216.47814"
       spacingy="1"
       spacingx="1"
       units="mm"
       visible="false" /></sodipodi:namedview><defs
     id="defs2"><linearGradient
       id="linearGradient19"
       inkscape:collect="always"
       inkscape:label="white_fade"><stop
         style="stop-color:#ffffff;stop-opacity:1;"
         offset="0.4125874"
         id="stop18" /><stop
         style="stop-color:#ffffff;stop-opacity:0;"
         offset="1"
         id="stop19" /></linearGradient><linearGradient
       inkscape:collect="always"
       xlink:href="#linearGradient19"
       id="linearGradient4141"
       gradientUnits="userSpaceOnUse"
       x1="171.89531"
       y1="62.011131"
       x2="192.35701"
       y2="80.789612"
       gradientTransform="matrix(1.0880843,0,0.34154322,0.81242032,-39.720191,12.730316)" /></defs><g
     inkscape:label="Button Layer"
     inkscape:groupmode="layer"
     id="layer1"
     style="display:inline"
     transform="translate(-160.41277,-57.276508)"><rect
       style="fill:none;stroke:#ffffff;stroke-width:1.798;stroke-linecap:round;stroke-linejoin:round;stroke-dasharray:none;paint-order:markers fill stroke"
       id="rect3376"
       width="40.5858"
       height="22.967165"
       x="161.31177"
       y="58.17551"
       ry="4.090045"
       rx="4.090045"
       inkscape:export-filename="..\..\..\..\web_dev_ai\sonar\.design\assets\drone.svg"
       inkscape:export-xdpi="97.1796"
       inkscape:export-ydpi="97.1796" /></g><g
     inkscape:groupmode="layer"
     id="layer3"
     inkscape:label="Design Layer"
     style="display:inline"
     transform="translate(-160.41277,-57.276508)"><path
       id="rect3636"
       style="display:inline;fill:#ffffff;fill-opacity:1;stroke:#00ff00;stroke-width:0.94;stroke-linecap:round;stroke-linejoin:round;stroke-dasharray:none;stroke-opacity:0;paint-order:markers fill stroke"
       inkscape:label="Sector"
       d="m 170.33163,67.475707 1.83575,4.36665 h 6.90315 l -1.83575,-4.36665 z m 3.76761,0.729664 c 0.45918,0 0.8808,0.08492 1.26487,0.254837 0.38594,0.168556 0.63121,0.37795 0.73636,0.628066 0.12972,0.308565 -0.004,0.525258 -0.40079,0.650316 -0.1294,0.04078 -0.20325,0.07631 -0.22243,0.106217 -0.0192,0.0299 -0.008,0.09357 0.0327,0.191442 h -1.35904 l -0.054,-0.128468 c -0.0714,-0.169915 -0.09,-0.294708 -0.0553,-0.374908 0.034,-0.08156 0.13226,-0.144906 0.29414,-0.189763 l 0.22332,-0.0613 c 0.16864,-0.04622 0.23545,-0.111363 0.20002,-0.19564 -0.0206,-0.04893 -0.0685,-0.09029 -0.14386,-0.12427 -0.0753,-0.03398 -0.15742,-0.05122 -0.24533,-0.05122 -0.23936,0 -0.31979,0.09264 -0.24207,0.277508 h -1.26401 c -0.10401,-0.247397 -0.0866,-0.449492 0.0529,-0.605814 0.10285,-0.115544 0.26099,-0.207023 0.47423,-0.274989 0.21323,-0.06797 0.44942,-0.102019 0.70833,-0.102019 z m 0.81654,1.976979 c 0.23937,0 0.46449,0.04833 0.67603,0.144841 0.214,0.09651 0.34924,0.211466 0.40524,0.344681 0.056,0.133213 0.0183,0.246688 -0.11325,0.340482 -0.13213,0.09243 -0.31903,0.138543 -0.56084,0.138543 -0.25157,0 -0.4783,-0.04505 -0.67967,-0.134766 -0.19949,-0.09107 -0.32852,-0.206349 -0.38738,-0.346359 -0.0572,-0.135931 -0.0209,-0.250886 0.10812,-0.34468 0.12852,-0.09515 0.31239,-0.142742 0.55175,-0.142742 z" /><path
       id="path4046"
       style="fill:none;fill-opacity:1;stroke:url(#linearGradient4141);stroke-width:0.94;stroke-linecap:butt;stroke-linejoin:round;stroke-dasharray:none;stroke-opacity:1"
       d="m 170.33154,67.475868 1.83567,4.366449 m -3.67133,-8.732898 h 6.90352 l 1.83567,4.36645 h -6.90353 z m 3.67133,8.732898 h 6.90352 l 1.83567,4.36645 h -6.90353 z m 10.13573,-8.732898 h 6.90352 l 1.83567,4.36645 h -6.90353 z m 1.83566,4.36645 h 6.90353 l 1.83566,4.366449 h -6.90352 z m -8.7392,-4.36645 h 6.90354 l 1.83566,4.36645 h -6.90353 z m 8.7392,4.36645 h 6.90353 l 1.83566,4.366449 h -6.90352 z m 1.83567,4.366448 h 6.90352 l 1.83567,4.36645 h -6.90353 z m -6.90354,0 h 6.90354 l 1.83566,4.36645 h -6.90353 z m -1.83566,-4.366448 h 6.90353 l 1.83567,4.366449 h -6.90354 z" /></g></svg>
