<?xml version="1.0" encoding="UTF-8" standalone="no"?>
<!-- Created with Inkscape (http://www.inkscape.org/) -->

<svg
   width="452.4989"
   height="82.027435"
   viewBox="0 0 452.4989 82.027435"
   version="1.1"
   id="svg1"
   xml:space="preserve"
   sodipodi:docname="engine_system_slots.svg"
   inkscape:version="1.4.2 (ebf0e940d0, 2025-05-08)"
   xmlns:inkscape="http://www.inkscape.org/namespaces/inkscape"
   xmlns:sodipodi="http://sodipodi.sourceforge.net/DTD/sodipodi-0.dtd"
   xmlns:xlink="http://www.w3.org/1999/xlink"
   xmlns="http://www.w3.org/2000/svg"
   xmlns:svg="http://www.w3.org/2000/svg"><sodipodi:namedview
     id="row_grid_view"
     pagecolor="#505050"
     bordercolor="#eeeeee"
     borderopacity="1"
     inkscape:showpageshadow="0"
     inkscape:pageopacity="0"
     inkscape:pagecheckerboard="0"
     inkscape:deskcolor="#505050"
     showgrid="false"
     inkscape:zoom="4.2879925"
     inkscape:cx="149.4872"
     inkscape:cy="58.069131"
     inkscape:window-width="1600"
     inkscape:window-height="767"
     inkscape:window-x="0"
     inkscape:window-y="0"
     inkscape:window-maximized="1"
     inkscape:current-layer="layer2" /><defs
     id="defs1" /><g
     id="layer2"
     style="display:inline"
     transform="translate(-1.4714851,-17.337891)"
     inkscape:label="engine_system_positions"><g
       id="g6"
       style="display:inline"
       transform="translate(-2.457699)"
       inkscape:label="reactorSlots"><path
         id="use9"
         style="display:inline;fill:none;stroke:#008080;stroke-width:1.01514"
         transform="matrix(1,0,-0.24149456,0.97040217,0,0)"
         d="m 140.14146,22.96549 h 46.81403 v 74.333138 h -46.81403 z"
         inkscape:label="reactor03" /><path
         id="use8"
         style="display:inline;fill:none;stroke:#008080;stroke-width:1.01514"
         transform="matrix(1,0,-0.24149456,0.97040217,0,0)"
         d="M 84.098282,22.96549 H 130.91231 V 97.298628 H 84.098282 Z"
         inkscape:label="reactor02" /><path
         id="rect13"
         style="display:inline;fill:none;stroke:#008080;stroke-width:1.01514"
         d="M 28.085646,22.96549 H 74.899675 V 97.298628 H 28.085646 Z"
         inkscape:label="reactor01"
         transform="matrix(1,0,-0.24149456,0.97040217,0,0)" /></g><g
       id="g47"
       transform="translate(0.09806562,0.32612114)"
       style="display:inline;stroke:#ff00ff"
       inkscape:label="frameSlots"><use
         x="0"
         y="0"
         xlink:href="#rect15"
         id="use16"
         transform="translate(154.75017,-0.03934479)"
         style="stroke:#ff00ff"
         inkscape:label="slot03" /><use
         x="0"
         y="0"
         xlink:href="#rect15"
         id="use15"
         transform="translate(77.375085)"
         style="stroke:#ff00ff"
         inkscape:label="slot02" /><path
         id="rect15"
         style="fill:none;stroke-width:0.920947"
         d="m 225.80121,22.283091 h 72.86046 v 72.175048 h -72.86046 z"
         inkscape:label="slot01" /></g><a
       id="a6"><path
         id="path1"
         style="fill:#ffffff;stroke-width:3.87696;stroke-opacity:0.780392"
         d="m 57.513396,58.352281 a 23.000003,23 0 0 1 -23,23 23.000003,23 0 0 1 -23,-23 23.000003,23 0 0 1 23,-23 23.000003,23 0 0 1 23,23 z" /></a><use
       x="0"
       y="0"
       xlink:href="#path1"
       id="use1"
       transform="translate(56.012636)" /><use
       x="0"
       y="0"
       xlink:href="#path1"
       id="use2"
       transform="translate(112.05581)" /><path
       id="use3"
       style="fill:#ffffff;stroke-width:4.51699;stroke-opacity:0.780392"
       d="M 289.12646,58.696736 A 26.796952,26.796948 0 0 1 262.32951,85.493684 26.796952,26.796948 0 0 1 235.53256,58.696736 26.796952,26.796948 0 0 1 262.32951,31.899788 26.796952,26.796948 0 0 1 289.12646,58.696736 Z" /><use
       x="0"
       y="0"
       xlink:href="#use3"
       id="use5"
       transform="translate(77.375081)" /><use
       x="0"
       y="0"
       xlink:href="#use3"
       id="use6"
       transform="translate(154.75017,-0.03934465)" /></g></svg>
