<?xml version="1.0" encoding="UTF-8" standalone="no"?>
<!-- Created with Inkscape (http://www.inkscape.org/) -->

<svg
   width="1.6686536in"
   height="0.97500676in"
   viewBox="0 0 42.383802 24.765172"
   version="1.1"
   id="svg5"
   inkscape:version="1.3 (0e150ed6c4, 2023-07-21)"
   sodipodi:docname="Control Panel Layout.svg"
   xml:space="preserve"
   xmlns:inkscape="http://www.inkscape.org/namespaces/inkscape"
   xmlns:sodipodi="http://sodipodi.sourceforge.net/DTD/sodipodi-0.dtd"
   xmlns:xlink="http://www.w3.org/1999/xlink"
   xmlns="http://www.w3.org/2000/svg"
   xmlns:svg="http://www.w3.org/2000/svg"><sodipodi:namedview
     id="namedview7"
     pagecolor="#ffffff"
     bordercolor="#666666"
     borderopacity="1.0"
     inkscape:showpageshadow="2"
     inkscape:pageopacity="0.0"
     inkscape:pagecheckerboard="0"
     inkscape:deskcolor="#d1d1d1"
     inkscape:document-units="mm"
     showgrid="false"
     inkscape:zoom="1.4142136"
     inkscape:cx="753.77583"
     inkscape:cy="470.57956"
     inkscape:window-width="2880"
     inkscape:window-height="1526"
     inkscape:window-x="-11"
     inkscape:window-y="-11"
     inkscape:window-maximized="1"
     inkscape:current-layer="layer3"
     showguides="true"><inkscape:grid
       type="xygrid"
       id="grid1674"
       originx="-141.24713"
       originy="-501.20771"
       spacingy="1"
       spacingx="1"
       units="mm"
       visible="false" /></sodipodi:namedview><defs
     id="defs2"><linearGradient
       id="linearGradient12"
       inkscape:collect="always"
       inkscape:label="white_fade"><stop
         style="stop-color:#ffffff;stop-opacity:1;"
         offset="0"
         id="stop12" /><stop
         style="stop-color:#ffffff;stop-opacity:0;"
         offset="1"
         id="stop13" /></linearGradient><linearGradient
       inkscape:collect="always"
       xlink:href="#linearGradient12"
       id="linearGradient13"
       x1="53.183315"
       y1="138.78636"
       x2="67.927635"
       y2="154.35854"
       gradientUnits="userSpaceOnUse" /></defs><g
     inkscape:label="Button Layer"
     inkscape:groupmode="layer"
     id="layer1"
     style="display:inline"
     transform="translate(-37.371635,-132.61121)"><rect
       style="display:inline;fill:none;stroke:#ffffff;stroke-width:1.798;stroke-linecap:round;stroke-linejoin:round;stroke-dasharray:none;paint-order:markers fill stroke"
       id="use1"
       width="40.5858"
       height="22.967165"
       x="38.270638"
       y="133.51021"
       ry="4.090045"
       rx="4.090045"
       inkscape:export-filename="..\..\..\..\web_dev_ai\sonar\public\assets\ui\mine_sys.svg"
       inkscape:export-xdpi="97.1796"
       inkscape:export-ydpi="97.1796" /><path
       id="path3253"
       style="display:inline;fill:url(#linearGradient13);fill-opacity:1;stroke:none;stroke-width:0.349478"
       inkscape:label="Mine"
       d="m 57.978373,135.62945 v 1.17047 h -0.584977 v 1.26969 c -0.271257,0.0455 -0.537126,0.10673 -0.796851,0.18242 a 7.0238104,7.0238104 0 0 0 -0.03566,0.0114 c -0.295239,0.0878 -0.581314,0.19624 -0.858863,0.32039 a 7.0238104,7.0238104 0 0 0 -0.102319,0.046 c -0.276629,0.12911 -0.544359,0.27399 -0.799951,0.43667 a 7.0238104,7.0238104 0 0 0 -0.08733,0.0589 c -0.07267,0.0478 -0.145766,0.0948 -0.216525,0.14521 l -0.898136,-0.89865 -0.414445,0.41444 -0.827856,-0.82786 -0.827857,0.82786 0.827857,0.82786 -0.413412,0.41341 0.898653,0.89865 c -0.04977,0.0699 -0.09641,0.14217 -0.14366,0.21394 a 7.0238104,7.0238104 0 0 0 -0.06098,0.0899 c -0.163723,0.25725 -0.309488,0.52661 -0.43925,0.80512 a 7.0238104,7.0238104 0 0 0 -0.04082,0.0909 c -0.125456,0.27961 -0.234484,0.56803 -0.322978,0.86558 a 7.0238104,7.0238104 0 0 0 -0.01137,0.0351 c -0.07573,0.25969 -0.137396,0.52565 -0.182935,0.79685 h -1.268656 v 0.58498 h -1.170988 v 1.17047 h 1.170988 v 0.58497 h 1.269173 c 0.04359,0.25968 0.103837,0.51367 0.175183,0.76275 a 7.0238104,7.0238104 0 0 0 0.01705,0.0656 c 8.64e-4,0.003 0.0017,0.006 0.0026,0.009 h 10e-4 a 7.0238104,7.0238104 0 0 0 0.579293,1.34927 h -0.01809 c 0.07388,0.13543 0.15292,0.26746 0.235128,0.3974 a 7.0238104,7.0238104 0 0 0 0.07183,0.108 c 0.04542,0.0689 0.08964,0.13852 0.137459,0.20567 l -0.898136,0.89814 0.413411,0.41393 -0.827856,0.82785 0.827856,0.82786 0.827857,-0.82786 0.413928,0.41393 0.898136,-0.89865 c 0.07115,0.0507 0.144998,0.0982 0.218075,0.14624 a 7.0238104,7.0238104 0 0 0 0.08475,0.0569 c 0.2568,0.16353 0.525606,0.3096 0.803569,0.43925 a 7.0238104,7.0238104 0 0 0 0.09612,0.0434 c 0.27857,0.12485 0.565572,0.23327 0.861963,0.32143 a 7.0238104,7.0238104 0 0 0 0.03617,0.0114 c 0.259654,0.0757 0.525651,0.1374 0.796851,0.18294 v 1.26917 h 0.584977 v 1.17099 h 1.170988 v -1.17099 h 0.584977 v -1.26917 c 0.24781,-0.0416 0.489367,-0.10105 0.727605,-0.16795 a 7.0238104,7.0238104 0 0 0 0.14366,-0.0413 c 0.04631,-0.0141 0.09415,-0.0248 0.140043,-0.0398 0.771703,-0.27238 0.777353,-0.27686 1.289327,-0.57155 0.102568,-0.0585 0.20348,-0.11961 0.302824,-0.18293 a 7.0238104,7.0238104 0 0 0 5.17e-4,0 7.0238104,7.0238104 0 0 0 0.06305,-0.0424 c 0.07752,-0.0506 0.154665,-0.10192 0.22996,-0.15554 l 0.898653,0.89813 0.413929,-0.41341 0.827339,0.82786 0.827857,-0.82786 -0.827857,-0.82785 0.414445,-0.41393 -0.898653,-0.89865 c 0.04823,-0.0678 0.09267,-0.13822 0.138493,-0.20774 a 7.0238104,7.0238104 0 0 0 0.06976,-0.10439 c 0.0826,-0.13034 0.162025,-0.26253 0.236161,-0.39843 h -0.0186 a 7.0238104,7.0238104 0 0 0 0.579293,-1.34927 h 0.001 c 9.16e-4,-0.003 0.0017,-0.006 0.0026,-0.009 a 7.0238104,7.0238104 0 0 0 0.01654,-0.0636 c 0.07159,-0.24963 0.131992,-0.504 0.1757,-0.7643 h 1.26969 v -0.58601 h 1.169955 v -1.16943 H 66.75765 v -0.5855 h -1.26969 c -0.0456,-0.27163 -0.1071,-0.53785 -0.182934,-0.79788 a 7.0238104,7.0238104 0 0 0 -0.0098,-0.0305 c -0.08877,-0.29924 -0.198393,-0.58918 -0.324528,-0.87023 a 7.0238104,7.0238104 0 0 0 -0.04031,-0.0889 c -0.1298,-0.27871 -0.275898,-0.54822 -0.439767,-0.80563 a 7.0238104,7.0238104 0 0 0 -0.05839,-0.0873 c -0.0478,-0.0727 -0.09482,-0.14577 -0.145211,-0.21653 l 0.898653,-0.89865 -0.414445,-0.41393 0.827857,-0.82734 -0.827857,-0.82786 -0.827856,0.82786 -0.413928,-0.41444 -0.898137,0.89813 c -0.07461,-0.0531 -0.151061,-0.10343 -0.227893,-0.15348 a 7.0238104,7.0238104 0 0 0 -0.07441,-0.0491 c -0.09482,-0.06 -0.191185,-0.11835 -0.288871,-0.17415 v 0.0165 a 7.0238104,7.0238104 0 0 0 -1.291394,-0.57826 v -0.0119 c -0.04494,-0.0147 -0.09162,-0.0254 -0.136943,-0.0393 a 7.0238104,7.0238104 0 0 0 -0.153996,-0.0444 c -0.237088,-0.0665 -0.477417,-0.125 -0.723986,-0.1664 v -1.26969 h -0.584978 v -1.17047 z" /></g></svg>
