<?xml version="1.0" encoding="UTF-8" standalone="no"?>
<!-- Created with Inkscape (http://www.inkscape.org/) -->

<svg
   width="71.886719"
   height="71.886719"
   viewBox="0 0 19.020027 19.020028"
   version="1.1"
   id="svg1"
   xmlns:xlink="http://www.w3.org/1999/xlink"
   xmlns="http://www.w3.org/2000/svg"
   xmlns:svg="http://www.w3.org/2000/svg">
  <defs
     id="defs1">
    <linearGradient
       id="linearGradient18">
      <stop
         style="stop-color:#ffffff;stop-opacity:0.78039199;"
         offset="0"
         id="stop18" />
      <stop
         style="stop-color:#ffffff;stop-opacity:0;"
         offset="1"
         id="stop19" />
    </linearGradient>
    <radialGradient
       xlink:href="#linearGradient18"
       id="radialGradient19"
       cx="11.906247"
       cy="11.90625"
       fx="11.906247"
       fy="11.90625"
       r="9.5100136"
       gradientUnits="userSpaceOnUse"
       gradientTransform="matrix(1.2519877,1.2519517,-1.2519699,1.2519698,11.90604,-17.906062)" />
  </defs>
  <g
     id="layer1"
     transform="translate(-2.3962362,-2.3962361)">
    <path
       id="path10"
       style="baseline-shift:baseline;display:inline;overflow:visible;opacity:1;vector-effect:none;fill:url(#radialGradient19);fill-opacity:1;enable-background:accumulate;stop-color:#000000;stop-opacity:1"
       d="m 11.90625,2.3962361 c -5.2399135,0 -9.5100139,4.2701004 -9.5100139,9.5100139 2e-7,5.239913 4.2701005,9.510013 9.5100139,9.510013 5.239913,-1e-6 9.510012,-4.2701 9.510013,-9.510013 0,-5.2399134 -4.2701,-9.5100137 -9.510013,-9.5100139 z M 11.041186,4.584733 c 0.188209,-0.00292 0.335897,0.1474695 0.335897,0.342098 v 6.061645 a 0.38832538,0.38832538 0 0 1 -0.388607,0.388607 H 4.9521524 c -0.2216828,0 -0.3890687,-0.179558 -0.3612183,-0.399459 0.4261398,-3.3647052 3.0435318,-5.9751631 6.4120119,-6.3903072 0.01288,-0.00159 0.02569,-0.00239 0.03824,-0.00258 z m 1.752865,0.0031 c 0.01339,2.481e-4 0.02708,0.00136 0.04082,0.0031 3.364706,0.4261398 5.975164,3.0435317 6.390308,6.412012 0.02539,0.206012 -0.131911,0.374137 -0.339514,0.374137 H 12.824023 A 0.38832538,0.38832538 0 0 1 12.435416,10.988476 V 4.9521524 c 0,-0.2078276 0.157727,-0.3680397 0.358635,-0.3643194 z m -7.86722,7.847582 h 6.061645 a 0.38832538,0.38832538 0 0 1 0.388607,0.388607 v 6.036324 c 0,0.221683 -0.179558,0.389069 -0.399459,0.361218 -3.3647052,-0.426137 -5.9751631,-3.043531 -6.3903072,-6.41201 -0.02539,-0.206012 0.1319105,-0.374137 0.3395142,-0.374139 z m 7.897192,0 h 6.036324 c 0.221683,0 0.389069,0.179558 0.361218,0.399459 -0.426139,3.364706 -3.043532,5.975164 -6.412011,6.390308 -0.206012,0.02539 -0.374138,-0.131911 -0.374138,-0.339514 v -6.061646 a 0.38832538,0.38832538 0 0 1 0.388607,-0.388607 z" />
  </g>
</svg>
