<?xml version="1.0" encoding="UTF-8" standalone="no"?>
<!-- Created with Inkscape (http://www.inkscape.org/) -->

<svg
   width="14.999997mm"
   height="15.015201mm"
   viewBox="0 0 14.999997 15.0152"
   version="1.1"
   id="svg1"
   inkscape:version="1.3 (0e150ed6c4, 2023-07-21)"
   sodipodi:docname="engine.svg"
   xmlns:inkscape="http://www.inkscape.org/namespaces/inkscape"
   xmlns:sodipodi="http://sodipodi.sourceforge.net/DTD/sodipodi-0.dtd"
   xmlns:xlink="http://www.w3.org/1999/xlink"
   xmlns="http://www.w3.org/2000/svg"
   xmlns:svg="http://www.w3.org/2000/svg">
  <sodipodi:namedview
     id="namedview1"
     pagecolor="#ffffff"
     bordercolor="#666666"
     borderopacity="1.0"
     inkscape:showpageshadow="2"
     inkscape:pageopacity="0.0"
     inkscape:pagecheckerboard="0"
     inkscape:deskcolor="#d1d1d1"
     inkscape:document-units="mm"
     inkscape:zoom="0.9983453"
     inkscape:cx="52.086187"
     inkscape:cy="426.20524"
     inkscape:window-width="1600"
     inkscape:window-height="837"
     inkscape:window-x="-8"
     inkscape:window-y="-8"
     inkscape:window-maximized="1"
     inkscape:current-layer="layer2"
     showguides="true"
     showgrid="false" />
  <defs
     id="defs1">
    <linearGradient
       inkscape:collect="always"
       xlink:href="#linearGradient3063"
       id="linearGradient3065"
       x1="108.74067"
       y1="145.0295"
       x2="117.67372"
       y2="153.79167"
       gradientUnits="userSpaceOnUse"
       gradientTransform="matrix(0.86512779,0,0,0.86512779,1.7796661,48.83918)" />
    <linearGradient
       inkscape:collect="always"
       id="linearGradient3063">
      <stop
         style="stop-color:#b3b3b3;stop-opacity:1;"
         offset="0"
         id="stop3059" />
      <stop
         style="stop-color:#b3b3b3;stop-opacity:0;"
         offset="1"
         id="stop3061" />
    </linearGradient>
  </defs>
  <g
     inkscape:groupmode="layer"
     id="layer2"
     inkscape:label="buttons"
     style="display:inline"
     transform="translate(-88.471353,-166.76969)">
    <path
       id="path1939"
       style="display:inline;fill:url(#linearGradient3065);fill-opacity:1;stroke:none;stroke-width:0.188475;stroke-linecap:round;stroke-linejoin:round;stroke-dasharray:none;paint-order:markers fill stroke"
       inkscape:label="Radiation"
       d="m 95.971354,166.76969 a 7.4998835,7.5075256 0 0 0 -7.500001,7.50759 7.4998835,7.5075256 0 0 0 7.500001,7.50761 7.4998835,7.5075256 0 0 0 7.499996,-7.50761 7.4998835,7.5075256 0 0 0 -7.499996,-7.50759 z m 0,0.72291 c 1.496794,0.0601 2.563461,0.42982 3.395923,0.92319 l -2.125805,3.68652 c -0.44184,-0.18125 -0.90641,-0.32523 -1.270118,-0.33128 -0.363709,-0.006 -0.826993,0.11633 -1.240611,0.34738 l -2.139219,-3.70262 c 0.820738,-0.42818 1.627747,-0.86185 3.37983,-0.92319 z m 0,5.35765 a 1.4270898,1.4270898 0 0 1 1.427034,1.42703 1.4270898,1.4270898 0 0 1 -1.427034,1.42705 1.4270898,1.4270898 0 0 1 -1.427037,-1.42705 1.4270898,1.4270898 0 0 1 1.427037,-1.42703 z m -6.733722,1.3792 4.255183,0.0613 c 0.05684,0.47417 0.15766,0.94996 0.329492,1.27056 0.172143,0.32045 0.504101,0.66633 0.907545,0.9147 l -2.191974,3.67132 c -0.773684,-0.50832 -1.545758,-1.00185 -2.452611,-2.50224 -0.676418,-1.33657 -0.873157,-2.44824 -0.847635,-3.41559 z m 13.526908,0.0335 v 4.4e-4 c -0.0391,0.9249 -0.0671,1.84078 -0.88922,3.38922 -0.79981,1.26661 -1.65271,2.00609 -2.495969,2.48077 L 97.247727,176.45 c 0.377736,-0.29221 0.734486,-0.62278 0.921412,-0.93482 0.186614,-0.31222 0.312706,-0.77492 0.318761,-1.24866 z"
       inkscape:export-filename="..\..\..\..\web_dev_ai\sonar\public\assets\ui\reactor.svg"
       inkscape:export-xdpi="97.1796"
       inkscape:export-ydpi="97.1796" />
  </g>
</svg>
