<?xml version="1.0" encoding="UTF-8" standalone="no"?>
<!-- Created with Inkscape (http://www.inkscape.org/) -->

<svg
   width="51"
   height="51.051674"
   viewBox="0 0 51 51.051674"
   version="1.1"
   id="svg1"
   xml:space="preserve"
   xmlns:xlink="http://www.w3.org/1999/xlink"
   xmlns="http://www.w3.org/2000/svg"
   xmlns:svg="http://www.w3.org/2000/svg"><defs
     id="defs1"><linearGradient
       id="linearGradient2"><stop
         style="stop-color:#ffffff;stop-opacity:1;"
         offset="0"
         id="stop1" /><stop
         style="stop-color:#ffffff;stop-opacity:0;"
         offset="1"
         id="stop2" /></linearGradient><linearGradient
       id="linearGradient41"><stop
         style="stop-color:#ffcc00;stop-opacity:1;"
         offset="0"
         id="stop41" /><stop
         style="stop-color:#ffcc00;stop-opacity:0.09696969;"
         offset="1"
         id="stop40" /></linearGradient><linearGradient
       id="linearGradient3557"><stop
         style="stop-color:#ff0000;stop-opacity:1;"
         offset="0"
         id="stop3553" /><stop
         style="stop-color:#ff0000;stop-opacity:0;"
         offset="1"
         id="stop3555" /></linearGradient><linearGradient
       xlink:href="#linearGradient2"
       id="linearGradient1158"
       x1="107.59523"
       y1="102.8501"
       x2="117.10061"
       y2="112.35548"
       gradientUnits="userSpaceOnUse" /><linearGradient
       xlink:href="#linearGradient3063"
       id="linearGradient3065"
       x1="100.2068"
       y1="136.3157"
       x2="117.67372"
       y2="153.79167"
       gradientUnits="userSpaceOnUse"
       gradientTransform="matrix(2.757683,0,0,2.757683,-207.26188,-341.49448)" /><linearGradient
       id="linearGradient3063"><stop
         style="stop-color:#b3b3b3;stop-opacity:1;"
         offset="0"
         id="stop3059" /><stop
         style="stop-color:#b3b3b3;stop-opacity:0;"
         offset="1"
         id="stop3061" /></linearGradient><linearGradient
       xlink:href="#linearGradient2"
       id="linearGradient16"
       gradientUnits="userSpaceOnUse"
       gradientTransform="matrix(2.9414341,0,0,2.9414341,-19.306745,-294.28946)"
       x1="105.39824"
       y1="138.13484"
       x2="117.67372"
       y2="153.79167" /><radialGradient
       xlink:href="#linearGradient41"
       id="radialGradient40"
       cx="-58.268368"
       cy="48.514782"
       fx="-58.268368"
       fy="48.514782"
       r="23.930124"
       gradientTransform="matrix(1.6137316,-0.52510513,0.41394222,1.2721147,222.97436,-33.960989)"
       gradientUnits="userSpaceOnUse" /><radialGradient
       xlink:href="#linearGradient41"
       id="radialGradient43"
       cx="-78.010078"
       cy="116.68384"
       fx="-78.010078"
       fy="116.68384"
       r="23.930647"
       gradientTransform="matrix(0.89053584,1.0654706,-0.9564447,0.79939472,330.09934,48.193294)"
       gradientUnits="userSpaceOnUse" /><radialGradient
       xlink:href="#linearGradient2"
       id="radialGradient44"
       gradientUnits="userSpaceOnUse"
       gradientTransform="matrix(0.89053584,1.0654706,-0.9564447,0.79939472,443.30386,48.211628)"
       cx="-78.010078"
       cy="116.68384"
       fx="-78.010078"
       fy="116.68384"
       r="23.930647" /><linearGradient
       xlink:href="#linearGradient3557"
       id="linearGradient43"
       x1="10.517851"
       y1="32.001953"
       x2="64.609375"
       y2="84.703125"
       gradientUnits="userSpaceOnUse"
       gradientTransform="translate(-1.2867174)" /><linearGradient
       xlink:href="#linearGradient2"
       id="linearGradient45"
       gradientUnits="userSpaceOnUse"
       gradientTransform="translate(378.72379,-0.02126876)"
       x1="10.517851"
       y1="32.001953"
       x2="64.609375"
       y2="84.703125" /></defs><g
     id="layer4"
     style="display:inline"
     transform="translate(-275.44496,-106.67423)"><path
       style="baseline-shift:baseline;display:inline;overflow:visible;opacity:1;vector-effect:none;fill:url(#linearGradient43);fill-opacity:1;enable-background:accumulate;stop-color:#000000;stop-opacity:1"
       d="m 33.982814,32.001953 v 5.537109 C 24.548747,38.727736 17.032643,46.019818 15.55508,55.363281 h -4.935547 v 5.976563 h 4.867187 c 1.216189,9.656809 8.839453,17.279342 18.496094,18.496093 v 4.867188 h 5.976563 V 79.767578 C 49.303186,78.28994 56.595362,70.774411 57.783595,61.339844 h 5.539063 V 55.363281 H 57.715236 C 56.27246,46.23992 49.082746,39.05018 39.959377,37.607422 v -5.605469 z m 0,11.511719 v 6.933594 h 5.976563 v -6.824219 c 5.874922,1.278964 10.462576,5.865562 11.742187,11.740234 h -6.845703 v 5.976563 h 6.955078 c -1.065532,6.192606 -5.755474,11.08695 -11.851562,12.414062 v -7.498047 h -5.976563 v 7.607422 C 27.566873,72.758638 22.565329,67.75601 21.46133,61.339844 h 7.583984 v -5.976563 h -7.474609 c 1.327544,-6.094729 6.220842,-10.783637 12.412109,-11.849609 z"
       id="path1878" /><path
       id="path1939"
       style="display:inline;fill:url(#linearGradient3065);fill-opacity:1;stroke:none;stroke-width:0.729636;stroke-linecap:round;stroke-linejoin:round;stroke-dasharray:none;paint-order:markers fill stroke"
       d="M 92.983726,34.421039 A 23.906643,23.931003 0 0 0 69.076711,58.352263 23.906643,23.931003 0 0 0 92.983726,82.283522 23.906643,23.931003 0 0 0 116.89075,58.352263 23.906643,23.931003 0 0 0 92.983726,34.421039 Z m 0,2.304347 c 4.771174,0.19166 8.171294,1.370097 10.824844,2.942779 L 97.032363,51.41931 c -1.408404,-0.577733 -2.889283,-1.036689 -4.048637,-1.055996 -1.159356,-0.01933 -2.636127,0.370824 -3.954573,1.10729 L 82.210177,39.668165 c 2.616186,-1.364889 5.188609,-2.747259 10.773549,-2.942779 z m 0,17.078057 a 4.5489941,4.5489941 0 0 1 4.548824,4.54882 4.5489941,4.5489941 0 0 1 -4.548824,4.548855 4.5489941,4.5489941 0 0 1 -4.548827,-4.548855 4.5489941,4.5489941 0 0 1 4.548827,-4.54882 z m -21.464423,4.396348 13.563827,0.195243 c 0.181176,1.511464 0.502559,3.02808 1.05029,4.050047 0.548723,1.021448 1.606872,2.123966 2.892894,2.915695 l -6.987142,11.702697 c -2.466195,-1.620304 -4.927268,-3.193474 -7.81795,-7.976128 -2.156151,-4.260481 -2.783274,-7.804021 -2.701919,-10.887554 z m 43.118417,0.107001 v 0.0014 c -0.12465,2.948206 -0.21401,5.86766 -2.83448,10.803471 -2.54948,4.037438 -5.2682,6.394625 -7.95617,7.907739 L 97.052295,65.27829 c 1.204066,-0.931462 2.341248,-1.985174 2.937106,-2.979837 0.594829,-0.995246 0.996769,-2.470142 1.016069,-3.980221 z" /><g
       id="g3845"
       style="display:inline"
       transform="matrix(2.4722841,0,0,2.4722841,68.922865,-214.31561)"><path
         id="path8"
         style="display:inline;fill:none;fill-opacity:1;stroke:url(#linearGradient1158);stroke-width:0.397;stroke-linecap:butt;stroke-linejoin:round;stroke-dasharray:none;paint-order:markers fill stroke"
         transform="matrix(2,0,0,2,-115.20856,-104.81757)"
         d="m 114.40396,103.53913 a 4.5541911,4.5541911 0 0 1 2.49815,4.06366 4.5541911,4.5541911 0 0 1 -4.55419,4.55419 4.5541911,4.5541911 0 0 1 -4.55419,-4.55419 4.5541911,4.5541911 0 0 1 4.55419,-4.55419 4.5541911,4.5541911 0 0 1 1.09664,0.13401 m 0.55266,1.17151 a 3.643353,3.643353 0 0 1 1.99406,3.24867 3.643353,3.643353 0 0 1 -3.64336,3.64335 3.643353,3.643353 0 0 1 -3.64335,-3.64335 3.643353,3.643353 0 0 1 3.64335,-3.64335 3.643353,3.643353 0 0 1 0.88192,0.10835 m -0.0799,1.9844 a 1.745733,1.745733 0 0 1 0.94371,1.5506 1.745733,1.745733 0 0 1 -1.74573,1.74573 1.745733,1.745733 0 0 1 -1.74573,-1.74573 1.745733,1.745733 0 0 1 1.74573,-1.74574 1.745733,1.745733 0 0 1 0.43435,0.0549 m 0.77569,-0.67736 a 2.6594286,2.6594286 0 0 1 1.44939,2.3682 v 0 a 2.6594286,2.6594286 0 0 1 -2.65943,2.65943 2.6594286,2.6594286 0 0 1 -2.65943,-2.65943 2.6594286,2.6594286 0 0 1 2.65943,-2.65943 2.6594286,2.6594286 0 0 1 0.64979,0.0806" /><path
         style="display:inline;fill:#ffffff;fill-opacity:1;stroke:#ffffff;stroke-width:0.565;stroke-linecap:round;stroke-linejoin:round;stroke-dasharray:none;stroke-opacity:0.780392"
         d="m 109.52695,110.42124 2.37368,-9.43756"
         id="path538" /></g><path
       id="path16"
       style="display:inline;fill:url(#linearGradient16);fill-opacity:1;stroke:none;stroke-width:0.778254;stroke-linecap:round;stroke-linejoin:round;stroke-dasharray:none;paint-order:markers fill stroke"
       d="m 300.94497,106.67423 a 25.499601,25.525585 0 0 0 -25.50001,25.52582 25.499601,25.525585 0 0 0 25.50001,25.52585 25.499601,25.525585 0 0 0 25.49999,-25.52585 25.499601,25.525585 0 0 0 -25.49999,-25.52582 z m 0,2.4579 c 5.08908,0.20443 8.71576,1.46138 11.54612,3.13886 l -7.22771,12.53415 c -1.50226,-0.61623 -3.08181,-1.10577 -4.31841,-1.12636 -1.23662,-0.0206 -2.81178,0.39554 -4.21808,1.18106 l -7.27335,-12.58885 c 2.79052,-1.45585 5.53435,-2.93032 11.49143,-3.13886 z m 0,18.216 a 4.8521047,4.8521047 0 0 1 4.85192,4.85192 4.8521047,4.8521047 0 0 1 -4.85192,4.85195 4.8521047,4.8521047 0 0 1 -4.85194,-4.85195 4.8521047,4.8521047 0 0 1 4.85194,-4.85192 z m -22.89465,4.68929 14.46761,0.20824 c 0.19325,1.61218 0.53604,3.22985 1.12027,4.31992 0.58529,1.08952 1.71395,2.26549 3.08566,3.10995 l -7.4527,12.48249 c -2.63054,-1.72828 -5.2556,-3.40627 -8.33889,-8.50759 -2.29983,-4.54436 -2.96874,-8.32402 -2.88195,-11.61301 z m 45.99149,0.11407 v 0.001 c -0.13289,3.14467 -0.22828,6.25865 -3.02334,11.52334 -2.71936,4.30646 -5.61924,6.82072 -8.48632,8.43466 l -7.24752,-12.52346 c 1.28429,-0.99352 2.49726,-2.11744 3.1328,-3.17839 0.63448,-1.06156 1.0632,-2.63473 1.08378,-4.24543 z" /><path
       id="path31"
       style="display:inline;fill:url(#radialGradient43);fill-opacity:1;stroke-width:0.777406;stroke-linecap:round;stroke-linejoin:round;paint-order:markers fill stroke"
       d="m 149.02797,32.854869 -9.72657,8.623655 h 5.51255 v 9.541377 c 1.40477,-0.784687 2.97877,-1.200519 4.21402,-1.179924 1.23527,0.02056 2.81122,0.510254 4.31184,1.125819 l 0.0354,-0.0603 v -9.426924 h 5.43557 z m -16.8748,15.713618 -8.62365,9.78277 8.62365,9.726577 v -5.512555 h 9.54137 c -0.78469,-1.40477 -1.20052,-2.978769 -1.17992,-4.214022 0.0206,-1.235265 0.51025,-2.811213 1.12581,-4.311833 l -0.0603,-0.03537 h -9.42691 z m 33.74755,0.05828 v 5.512555 h -9.54139 c 0.7847,1.40477 1.20053,2.978768 1.17993,4.214022 -0.0206,1.235264 -0.51025,2.811213 -1.12583,4.311833 l 0.0603,0.03537 h 9.42693 v 5.435564 l 8.62366,-9.78277 z m -16.87275,4.879931 a 4.8468206,4.8468206 0 0 0 -4.84664,4.846646 4.8468206,4.8468206 0 0 0 4.84664,4.846646 4.8468206,4.8468206 0 0 0 4.84665,-4.846646 4.8468206,4.8468206 0 0 0 -4.84665,-4.846646 z m 4.21195,12.178002 c -1.40477,0.784687 -2.97877,1.200519 -4.21402,1.179923 -1.23527,-0.02056 -2.81122,-0.510253 -4.31184,-1.125819 l -0.0354,0.06031 v 9.426924 h -5.43556 l 9.78277,8.623655 9.72659,-8.623655 h -5.51257 z" /><path
       id="path36"
       style="display:none;fill:url(#radialGradient40);fill-opacity:1;stroke-width:0.903319;stroke-linecap:round;stroke-linejoin:round;paint-order:markers fill stroke"
       d="m 166.73458,36.410937 -18.20943,3.654185 6.92619,2.134887 -6.62588,8.210802 c 2.30991,-0.131219 4.57631,0.120496 6.11403,0.616611 1.53773,0.496091 3.17777,1.52782 4.63574,2.63869 l 0.0863,-0.03825 6.5464,-8.112311 6.82944,2.105068 z m -32.11426,6.987088 -17.62859,5.078798 4.08057,11.709925 3.82812,-4.743823 11.98815,3.695153 c -0.0107,-1.512776 0.56018,-3.028299 1.44387,-4.083324 0.88366,-1.055028 2.59332,-2.221568 4.40881,-3.274527 L 142.69,51.72641 130.84567,48.075586 Z m 42.36121,13.119774 -3.82812,4.743823 -11.98814,-3.695153 c 0.0107,1.512776 -0.56019,3.0283 -1.44387,4.083324 -0.88366,1.055029 -2.59332,2.221569 -4.40881,3.274528 l 0.0513,0.05382 11.84433,3.650823 -3.77465,4.677562 17.62859,-5.078797 z m -24.58834,-2.334991 a 4.54695,6.9755727 84.629363 0 0 -9.45519,2.293774 4.54695,6.9755727 84.629363 0 0 2.72381,6.047756 4.54695,6.9755727 84.629363 0 0 9.45519,-2.293775 4.54695,6.9755727 84.629363 0 0 -2.72381,-6.047755 z m -3.16481,12.110928 c -2.30991,0.131219 -4.57631,-0.120496 -6.11403,-0.616611 -1.53776,-0.49609 -3.17777,-1.527819 -4.63574,-2.638688 l -0.0864,0.03825 -6.5464,8.112308 -6.82944,-2.105067 6.30285,11.2097 18.20943,-3.654185 -6.92619,-2.134887 z" /><path
       id="path44"
       style="display:inline;fill:url(#radialGradient44);fill-opacity:1;stroke-width:0.777406;stroke-linecap:round;stroke-linejoin:round;paint-order:markers fill stroke"
       d="m 262.23249,32.873203 -9.72657,8.623655 h 5.51255 v 9.541377 c 1.40477,-0.784687 2.97877,-1.200519 4.21402,-1.179924 1.23527,0.02056 2.81122,0.510254 4.31184,1.125819 l 0.0354,-0.0603 v -9.426924 h 5.43557 z m -16.8748,15.713618 -8.62365,9.78277 8.62365,9.726577 v -5.512555 h 9.54137 c -0.78469,-1.40477 -1.20052,-2.978769 -1.17992,-4.214022 0.0206,-1.235265 0.51025,-2.811213 1.12581,-4.311833 l -0.0603,-0.03537 h -9.42691 z m 33.74755,0.05828 v 5.512555 h -9.54139 c 0.7847,1.40477 1.20053,2.978768 1.17993,4.214022 -0.0206,1.235264 -0.51025,2.811213 -1.12583,4.311833 l 0.0603,0.03537 h 9.42693 v 5.435564 l 8.62366,-9.78277 z m -16.87275,4.879931 a 4.8468206,4.8468206 0 0 0 -4.84664,4.846646 4.8468206,4.8468206 0 0 0 4.84664,4.846646 4.8468206,4.8468206 0 0 0 4.84665,-4.846646 4.8468206,4.8468206 0 0 0 -4.84665,-4.846646 z m 4.21195,12.178002 c -1.40477,0.784687 -2.97877,1.200519 -4.21402,1.179923 -1.23527,-0.02056 -2.81122,-0.510253 -4.31184,-1.125819 l -0.0354,0.06031 v 9.426924 h -5.43556 l 9.78277,8.623655 9.72659,-8.623655 h -5.51257 z" /><path
       style="baseline-shift:baseline;display:inline;overflow:visible;opacity:1;vector-effect:none;fill:url(#linearGradient45);fill-opacity:1;stroke:none;enable-background:accumulate;stop-color:#000000;stop-opacity:1"
       d="m 413.99333,31.980685 v 5.537109 c -9.43407,1.188674 -16.95018,8.480756 -18.42774,17.824219 h -4.93555 v 5.976563 h 4.86719 c 1.21619,9.656809 8.83945,17.279342 18.4961,18.496093 v 4.867188 h 5.97656 V 79.74631 c 9.34382,-1.477638 16.63599,-8.993167 17.82423,-18.427734 h 5.53906 v -5.976563 h -5.60742 c -1.44279,-9.123361 -8.6325,-16.313101 -17.75587,-17.755859 v -5.605469 z m 0,11.511719 v 6.933594 h 5.97656 v -6.824219 c 5.87492,1.278964 10.46257,5.865562 11.74219,11.740234 h -6.84571 v 5.976563 h 6.95508 c -1.06553,6.192606 -5.75547,11.08695 -11.85156,12.414062 v -7.498047 h -5.97656 v 7.607422 C 407.57738,72.73737 402.57584,67.734742 401.47184,61.318576 h 7.58399 v -5.976563 h -7.47461 c 1.32754,-6.094729 6.22084,-10.783637 12.41211,-11.849609 z"
       id="path45" /></g><g
     id="layer1"
     style="display:inline"
     transform="translate(-275.44496,-106.67423)"><rect
       style="display:inline;fill:none;stroke:#000080"
       id="rect3"
       width="453.37231"
       height="360"
       x="0"
       y="0" /><g
       id="g7"
       transform="matrix(1,0,-0.25086764,1,45.594093,8.3060696e-4)"
       style="display:inline"><use
         x="0"
         y="0"
         xlink:href="#rect2154-9"
         id="use7"
         transform="translate(65.943147,262.86032)" /><use
         x="0"
         y="0"
         xlink:href="#rect2154-9"
         id="use6"
         transform="translate(43.962098,175.24021)" /><use
         x="0"
         y="0"
         xlink:href="#rect2154-9"
         id="use5"
         transform="translate(21.98105,87.620107)" /><path
         id="rect2154-9"
         style="baseline-shift:baseline;display:inline;overflow:visible;opacity:1;vector-effect:none;fill:#000000;stroke-linecap:round;stroke-linejoin:round;paint-order:markers fill stroke;enable-background:accumulate;stop-color:#000000;stop-opacity:1"
         d="m 144.5267,17.33706 a 4.5443323,3.5383708 41.425256 0 0 -2.77747,1.548828 H -2.3269379 c -0.9121936,0 -1.8030507,0.08341 -2.6824376,0.207031 -0.2730672,0.03838 -0.5381767,0.09477 -0.8074918,0.144532 -0.6282191,0.116013 -1.244393,0.259947 -1.8497197,0.435547 -0.2628087,0.07625 -0.5244917,0.149278 -0.7825098,0.236328 -0.7055599,0.237906 -1.3921354,0.513242 -2.0578752,0.828125 -0.110031,0.05206 -0.225495,0.0924 -0.334346,0.146484 -0.767888,0.381318 -1.498698,0.818201 -2.202489,1.294922 -0.05752,0.03896 -0.123511,0.0659 -0.180573,0.105469 h 0.03711 c -1.639106,1.132836 -3.101333,2.497479 -4.298712,4.072265 -1.159854,1.525365 -2.084322,3.231223 -2.718747,5.06836 l 4.9e-4,0.002 c -0.316961,0.918102 -0.562184,1.868653 -0.727512,2.845703 l 4.9e-4,0.002 c -0.165229,0.977044 -0.252276,1.980523 -0.252276,3.003906 l 9.23e-4,42.146485 c 0,1.549581 0.198515,3.054191 0.569814,4.490234 0.14534,0.562882 0.322722,1.111609 0.519988,1.652344 0.05894,0.161387 0.12842,0.317301 0.19182,0.476562 0.151498,0.380965 0.311016,0.756878 0.487304,1.125 0.08179,0.170689 0.168863,0.338084 0.25581,0.50586 0.181948,0.351269 0.375615,0.695346 0.57951,1.033203 0.09572,0.158557 0.190057,0.317197 0.290449,0.472656 0.237592,0.368056 0.489007,0.724372 0.751909,1.074219 0.06256,0.08325 0.115479,0.173682 0.179421,0.255859 l -9.87e-4,-0.01172 c 1.170949,1.506334 2.576544,2.824464 4.15672,3.917969 h -0.02539 c 0.08442,0.05856 0.174972,0.10879 0.260398,0.166016 0.183985,0.123239 0.370363,0.242413 0.558906,0.359375 0.228034,0.141484 0.458311,0.27811 0.692738,0.410156 0.201904,0.113716 0.405652,0.223542 0.612103,0.330078 0.229506,0.118435 0.461706,0.230515 0.696584,0.339844 0.215381,0.100268 0.431435,0.198588 0.6511316,0.291016 0.2361717,0.09934 0.4761191,0.191191 0.7170409,0.28125 0.2291106,0.08567 0.457941,0.170972 0.6911331,0.248046 0.2510143,0.08295 0.5069131,0.155766 0.7624053,0.228516 0.2226591,0.06342 0.4437226,0.130041 0.6695946,0.185547 0.2722615,0.0669 0.5486901,0.120641 0.8253478,0.175781 0.2290226,0.04567 0.4557745,0.09538 0.6876153,0.132813 0.2588868,0.04177 0.5225735,0.06832 0.7847544,0.09961 0.2501236,0.02988 0.4976635,0.06774 0.7505645,0.08789 0.5080937,0.04044 1.0210366,0.0625 1.5391167,0.0625 H 142.02279 a 2.7763764,2.1617806 41.425256 0 0 2.65856,1.535156 l 59.56984,0.01367 a 3.445723,2.6829565 41.425256 0 0 2.27812,-3.041016 L 187.44818,20.262841 A 3.3148598,2.5810619 41.425256 0 0 183.78842,17.33706 Z M -2.3269001,25.682763 H 29.325444 l 0.130907,65.335938 H -2.3268526 c -6.7956102,0 -12.0608404,-5.167255 -12.0608404,-11.59375 l 0.001,-42.146485 c 0,-6.426266 5.2646697,-11.595703 12.0597629,-11.595703 z m 40.8828121,0 h 46.8125 l 0.130907,65.335938 h -46.8125 z m 56.042969,0 h 46.808589 l 0.1231,65.335938 H 94.729788 Z" /><rect
         style="display:inline;fill:none;stroke:#ffcc00;stroke-width:1.28395;stroke-dasharray:none;stroke-opacity:1"
         id="rect14"
         width="30.421871"
         height="42.233871"
         x="187.11598"
         y="37.234627"
         transform="matrix(1,0,0.25086764,1,-45.594301,-8.3060696e-4)" /></g><rect
       style="display:inline;fill:none;stroke:#800080;stroke-width:1;stroke-dasharray:none;stroke-opacity:1"
       id="rect16"
       width="186.62769"
       height="360"
       x="453.37231"
       y="0" /><rect
       style="fill:none;stroke:#808000;stroke-width:1;stroke-dasharray:none;stroke-opacity:1"
       id="rect36"
       width="168.87473"
       height="151.77538"
       x="463.2149"
       y="196.78983" /></g></svg>
