<?xml version="1.0" encoding="UTF-8" standalone="no"?>
<!-- Created with Inkscape (http://www.inkscape.org/) -->

<svg
   width="62.803177mm"
   height="25.616978mm"
   viewBox="0 0 62.803177 25.616976"
   version="1.1"
   id="svg1"
   inkscape:version="1.3 (0e150ed6c4, 2023-07-21)"
   sodipodi:docname="engine.svg"
   xmlns:inkscape="http://www.inkscape.org/namespaces/inkscape"
   xmlns:sodipodi="http://sodipodi.sourceforge.net/DTD/sodipodi-0.dtd"
   xmlns:xlink="http://www.w3.org/1999/xlink"
   xmlns="http://www.w3.org/2000/svg"
   xmlns:svg="http://www.w3.org/2000/svg">
  <sodipodi:namedview
     id="namedview1"
     pagecolor="#ffffff"
     bordercolor="#666666"
     borderopacity="1.0"
     inkscape:showpageshadow="2"
     inkscape:pageopacity="0.0"
     inkscape:pagecheckerboard="0"
     inkscape:deskcolor="#d1d1d1"
     inkscape:document-units="mm"
     inkscape:zoom="0.70593673"
     inkscape:cx="66.578204"
     inkscape:cy="133.86469"
     inkscape:window-width="1600"
     inkscape:window-height="837"
     inkscape:window-x="-8"
     inkscape:window-y="-8"
     inkscape:window-maximized="1"
     inkscape:current-layer="cardinal_group"
     showguides="true"
     showgrid="false" />
  <defs
     id="defs1">
    <linearGradient
       inkscape:collect="always"
       xlink:href="#linearGradient3063"
       id="linearGradient3065"
       x1="108.74067"
       y1="145.0295"
       x2="117.67372"
       y2="153.79167"
       gradientUnits="userSpaceOnUse"
       gradientTransform="matrix(0.86512779,0,0,0.86512779,1.7796661,48.83918)" />
    <linearGradient
       inkscape:collect="always"
       id="linearGradient3063">
      <stop
         style="stop-color:#b3b3b3;stop-opacity:1;"
         offset="0"
         id="stop3059" />
      <stop
         style="stop-color:#b3b3b3;stop-opacity:0;"
         offset="1"
         id="stop3061" />
    </linearGradient>
  </defs>
  <g
     inkscape:label="directionBox"
     inkscape:groupmode="layer"
     id="layer1"
     style="display:none;fill:#000080"
     transform="translate(-38.141446,-148.05695)">
    <g
       id="cardinal_group"
       style="display:none;fill:#ff0000;stroke-width:1.01747"
       inkscape:label="border"
       transform="matrix(0.97206586,0,0,0.99372313,1.0002063,0.32208658)">
      <path
         id="path29"
         style="color:#000000;display:inline;fill:#000000;fill-rule:evenodd;stroke-width:1.01747;-inkscape-stroke:none"
         inkscape:label="stripes"
         d="m 44.022326,52.155986 v 0.825206 l 0.350198,-0.825206 z m 2.910798,0 -1.685309,3.972072 h 2.5606 l 1.685309,-3.972072 z m 5.120786,0 -1.685305,3.972072 h 2.560599 l 1.685306,-3.972072 z m 5.121204,0 -1.685309,3.972072 h 2.560193 l 1.685306,-3.972072 z m 5.12079,0 -1.685306,3.972072 h 2.560596 l 1.685308,-3.972072 z m 5.120787,0 -1.685307,3.972072 h 2.5606 l 1.685308,-3.972072 z m 5.121204,0 -1.68531,3.972072 h 2.560192 l 1.685305,-3.972072 z m 5.120786,0 -1.685306,3.972072 h 2.56019 l 1.685307,-3.972072 z m 5.120792,0 -1.685308,3.972072 h 2.5606 l 1.685305,-3.972072 z m 5.120787,0 -1.685307,3.972072 h 2.5606 l 1.685307,-3.972072 z m 5.121203,0 -1.685308,3.972072 h 2.56019 l 1.685303,-3.972072 z m 3.785679,3.146866 -0.3502,0.825205 h 0.3502 z m -54.626135,2.911209 -3.972479,1.685309 v 2.560598 l 3.972479,-1.685305 z m 60.483043,0.337471 -3.972068,1.685308 v 2.560598 l 3.972068,-1.685305 z m -60.483043,4.783318 -3.972479,1.685309 v 2.5606 l 3.972479,-1.685309 z m 60.483043,0.33747 -3.972068,1.685309 v 2.560601 l 3.972068,-1.685306 z m -60.483043,4.78373 -3.972479,1.685309 v 2.56019 l 3.972479,-1.685309 z m 60.483043,0.337474 -3.972068,1.685306 v 2.56019 l 3.972068,-1.685306 z m -60.483043,4.783315 -3.972479,1.68531 v 2.5606 l 3.972479,-1.68531 z m 60.483043,0.337475 -3.972068,1.685305 v 2.5606 l 3.972068,-1.685309 z m -60.483043,4.783317 -3.972479,1.685308 v 2.5606 l 3.972479,-1.685308 z m 60.483043,0.33747 -3.972068,1.685308 v 2.5606 l 3.972068,-1.685305 z m -60.483043,4.78373 -3.972479,1.685305 v 2.56019 l 3.972479,-1.685307 z m 60.483043,0.337473 -3.972068,1.685307 v 2.560188 l 3.972068,-1.685305 z m -60.483043,4.783315 -3.972479,1.685307 v 2.560604 l 3.972479,-1.68531 z m 60.483043,0.337472 -3.972068,1.685309 v 2.5606 l 3.972068,-1.685309 z m -60.483043,4.78332 -3.972479,1.685309 v 2.560596 l 3.972479,-1.685306 z m 60.483043,0.33747 -3.972068,1.685309 v 2.560596 l 3.972068,-1.685306 z m -60.483043,4.783729 -3.972479,1.6853 v 2.5602 l 3.972479,-1.68532 z m 60.483043,0.337471 -3.972068,1.685309 v 2.5602 l 3.972068,-1.68533 z m -60.483043,4.783309 -3.972479,1.68532 v 2.56018 l 3.972479,-1.6853 z m 60.483043,0.33747 -3.972068,1.68533 v 2.56017 l 3.972068,-1.6853 z m -60.483043,4.78333 -3.972479,1.6853 v 2.56063 l 3.972479,-1.68533 z m 60.483043,0.33747 -3.972068,1.68531 v 2.56059 l 3.972068,-1.68529 z m -60.483043,4.78333 -3.972479,1.6853 v 2.5606 l 3.972479,-1.6853 z m 60.483043,0.33748 -3.972068,1.6853 v 2.5606 l 3.972068,-1.6853 z m -60.483043,4.78372 -3.972479,1.6853 v 2.56018 l 3.972479,-1.6853 z m 60.483043,0.33748 -3.972068,1.6853 v 2.56017 l 3.972068,-1.6853 z m -60.483043,4.7833 -3.972479,1.6853 v 2.56059 l 3.972479,-1.68529 z m 60.483043,0.33747 -3.972068,1.6853 v 2.5606 l 3.972068,-1.6853 z m -60.483043,4.78333 -3.972479,1.6853 v 2.5606 l 3.972479,-1.6853 z m 60.483043,0.33745 -3.972068,1.6853 v 2.5606 l 3.972068,-1.6853 z m -60.483043,4.78375 -3.972479,1.6853 v 2.56016 l 3.972479,-1.6853 z m 60.483043,0.33745 -3.972068,1.68531 v 2.56018 l 3.972068,-1.68529 z m -57.416235,6.3229 1.685309,3.97206 h 2.56019 l -1.685309,-3.97206 z m 5.12079,0 1.685305,3.97206 h 2.5606 l -1.685306,-3.97206 z m 5.120789,0 1.685309,3.97206 h 2.560601 l -1.685306,-3.97206 z m 5.121204,0 1.685306,3.97206 h 2.560188 l -1.685305,-3.97206 z m 5.120786,0 1.685308,3.97206 h 2.56019 l -1.685308,-3.97206 z m 5.120791,0 1.685307,3.97206 h 2.5606 l -1.685305,-3.97206 z m 5.120787,0 1.68531,3.97206 h 2.5606 l -1.685307,-3.97206 z m 5.121203,0 1.685308,3.97206 h 2.56019 l -1.685308,-3.97206 z m 5.120788,0 1.685307,3.97206 h 2.5606 l -1.685307,-3.97206 z m 5.12079,0 1.68531,3.97206 h 2.560595 l -1.685303,-3.97206 z m 5.121199,0 0.3502,0.82521 v -0.82521 z m -52.434615,3.14686 v 0.8252 h 0.350197 z"
         inkscape:export-filename="..\..\..\..\web_dev_ai\sonar\public\assets\ui\directionBorder.svg"
         inkscape:export-xdpi="97.1796"
         inkscape:export-ydpi="97.1796" />
      <path
         id="path26"
         style="color:#000000;display:inline;fill:#008080;fill-rule:evenodd;stroke-width:1.01747;-inkscape-stroke:none"
         d="m 97.718153,51.316413 c -0.1977,-0.007 -0.396876,-0.0025 -0.596535,0.0135 -0.104813,-1.99e-4 -0.209625,1.86e-4 -0.314477,0 v 5.645463 c 0.25015,2.07e-4 0.500346,-2.18e-4 0.750487,0 0.417914,0.210125 0.309665,0.695147 0.284098,1.122445 h 5.650804 c -2.8e-4,-0.366475 3e-4,-0.732978 0,-1.099455 -0.13504,-2.985963 -2.80854,-5.580079 -5.774384,-5.682008 z m -54.548952,0.0046 c -3.1978,0.08049 -6.009735,3.087633 -5.78629,6.297423 -2.78e-4,0.1597 2.7e-4,0.31941 0,0.479115 h 5.652862 c 2.5e-4,-0.284095 -2.57e-4,-0.568213 0,-0.852305 0.105937,-0.33623 0.580723,-0.308385 0.861333,-0.27795 0.04175,1.7e-5 0.0835,-2.3e-5 0.1252,0 V 51.321 c -0.284248,6e-5 -0.568475,-5.2e-5 -0.852713,0 z m -5.776438,88.627547 c 0.0019,0.35786 -9.52e-4,0.7158 0.0012,1.0736 0.263615,3.10175 3.233795,5.7111 6.3586,5.46403 0.0899,1.4e-4 0.179825,-1.8e-4 0.269728,0 v -5.65327 c -0.2403,-3.2e-4 -0.480633,3.1e-4 -0.720928,0 -0.330395,-0.17225 -0.31666,-0.52859 -0.286565,-0.88436 z m 60.44404,0 c -1.8e-4,0.2085 1.93e-4,0.41687 0,0.62528 -0.20395,0.36655 -0.632465,0.30157 -1.029662,0.26927 v 5.65164 c 0.559722,-0.004 1.118532,-0.0175 1.674226,-0.0824 2.930753,-0.4894 5.250413,-3.36617 5.018973,-6.3467 1e-5,-0.0394 0,-0.0781 0,-0.11751 z"
         inkscape:label="corners"
         inkscape:export-filename="..\..\..\..\web_dev_ai\sonar\public\assets\ui\directionCorners.svg"
         inkscape:export-xdpi="97.1796"
         inkscape:export-ydpi="97.1796" />
      <path
         id="directionLabel"
         style="display:inline;opacity:1;fill:#ffffff;fill-rule:evenodd;stroke-width:3.05239"
         d="M 35.805872,71.467435 V 54.304279 c 0,-1.657048 1.334013,-2.991062 2.99106,-2.991062 h 11.506407 c 1.657047,0 2.99106,1.334014 2.99106,2.991062 v 17.163156 c 0,1.657049 -1.334013,2.991062 -2.99106,2.991062 H 38.796932 c -1.657047,0 -2.99106,-1.334013 -2.99106,-2.991062 z"
         inkscape:export-filename="..\..\..\..\web_dev_ai\sonar\public\assets\ui\directionLabel.svg"
         inkscape:export-xdpi="97.1796"
         inkscape:export-ydpi="97.1796" />
      <path
         id="reactorGrid"
         style="display:inline;opacity:1;fill:#ffffff;fill-opacity:1;fill-rule:evenodd;stroke:none;stroke-width:1.72969;stroke-dasharray:none;image-rendering:auto"
         d="m 39.614161,148.66803 c -0.849227,0.58186 -1.405599,1.55749 -1.405599,2.66909 v 19.87475 c 0,1.79214 1.442804,3.23495 3.234945,3.23495 H 99.58156 c 1.79214,0 3.23495,-1.44281 3.23495,-3.23495 v -19.87475 c 0,-1.11134 -0.55672,-2.08666 -1.4056,-2.66857 v 21.40799 c 0,1.79214 -1.442806,3.23495 -3.234949,3.23495 H 81.647148 v -23.36033 l -0.701249,-1.2821 -0.700733,1.2821 v 23.36033 H 60.777834 v -23.36033 l -0.701249,-1.2821 -0.701249,1.2821 v 23.36033 h -16.52623 c -1.792141,0 -3.234945,-1.44281 -3.234945,-3.23495 z"
         transform="translate(1.1458333e-6)"
         sodipodi:nodetypes="csssssscssccccccccccssc"
         inkscape:label="reactorGrid" />
    </g>
  </g>
  <g
     inkscape:groupmode="layer"
     id="layer2"
     inkscape:label="buttons"
     style="display:none"
     transform="translate(-38.141446,-148.05695)">
    <path
       id="path1939"
       style="display:inline;fill:url(#linearGradient3065);fill-opacity:1;stroke:none;stroke-width:0.188475;stroke-linecap:round;stroke-linejoin:round;stroke-dasharray:none;paint-order:markers fill stroke"
       inkscape:label="Radiation"
       d="m 95.971354,166.76969 a 7.4998835,7.5075256 0 0 0 -7.500001,7.50759 7.4998835,7.5075256 0 0 0 7.500001,7.50761 7.4998835,7.5075256 0 0 0 7.499996,-7.50761 7.4998835,7.5075256 0 0 0 -7.499996,-7.50759 z m 0,0.72291 c 1.496794,0.0601 2.563461,0.42982 3.395923,0.92319 l -2.125805,3.68652 c -0.44184,-0.18125 -0.90641,-0.32523 -1.270118,-0.33128 -0.363709,-0.006 -0.826993,0.11633 -1.240611,0.34738 l -2.139219,-3.70262 c 0.820738,-0.42818 1.627747,-0.86185 3.37983,-0.92319 z m 0,5.35765 a 1.4270898,1.4270898 0 0 1 1.427034,1.42703 1.4270898,1.4270898 0 0 1 -1.427034,1.42705 1.4270898,1.4270898 0 0 1 -1.427037,-1.42705 1.4270898,1.4270898 0 0 1 1.427037,-1.42703 z m -6.733722,1.3792 4.255183,0.0613 c 0.05684,0.47417 0.15766,0.94996 0.329492,1.27056 0.172143,0.32045 0.504101,0.66633 0.907545,0.9147 l -2.191974,3.67132 c -0.773684,-0.50832 -1.545758,-1.00185 -2.452611,-2.50224 -0.676418,-1.33657 -0.873157,-2.44824 -0.847635,-3.41559 z m 13.526908,0.0335 v 4.4e-4 c -0.0391,0.9249 -0.0671,1.84078 -0.88922,3.38922 -0.79981,1.26661 -1.65271,2.00609 -2.495969,2.48077 L 97.247727,176.45 c 0.377736,-0.29221 0.734486,-0.62278 0.921412,-0.93482 0.186614,-0.31222 0.312706,-0.77492 0.318761,-1.24866 z"
       inkscape:export-filename="..\..\..\..\web_dev_ai\sonar\public\assets\ui\reactor.svg"
       inkscape:export-xdpi="97.1796"
       inkscape:export-ydpi="97.1796" />
  </g>
</svg>
