<?xml version="1.0" encoding="UTF-8" standalone="no"?>
<!-- Created with Inkscape (http://www.inkscape.org/) -->

<svg
   width="1.6686538in"
   height="0.97500646in"
   viewBox="0 0 42.383808 24.765164"
   version="1.1"
   id="svg5"
   inkscape:version="1.3 (0e150ed6c4, 2023-07-21)"
   sodipodi:docname="Control Panel Layout.svg"
   xml:space="preserve"
   xmlns:inkscape="http://www.inkscape.org/namespaces/inkscape"
   xmlns:sodipodi="http://sodipodi.sourceforge.net/DTD/sodipodi-0.dtd"
   xmlns:xlink="http://www.w3.org/1999/xlink"
   xmlns="http://www.w3.org/2000/svg"
   xmlns:svg="http://www.w3.org/2000/svg"><sodipodi:namedview
     id="namedview7"
     pagecolor="#ffffff"
     bordercolor="#666666"
     borderopacity="1.0"
     inkscape:showpageshadow="2"
     inkscape:pageopacity="0.0"
     inkscape:pagecheckerboard="0"
     inkscape:deskcolor="#d1d1d1"
     inkscape:document-units="mm"
     showgrid="false"
     inkscape:zoom="5.6919539"
     inkscape:cx="421.73567"
     inkscape:cy="421.55999"
     inkscape:window-width="1600"
     inkscape:window-height="837"
     inkscape:window-x="-8"
     inkscape:window-y="-8"
     inkscape:window-maximized="1"
     inkscape:current-layer="g3845"
     showguides="true"><inkscape:grid
       type="xygrid"
       id="grid1674"
       originx="-333.71485"
       originy="-370.41426"
       spacingy="1"
       spacingx="1"
       units="mm"
       visible="false" /></sodipodi:namedview><defs
     id="defs2"><linearGradient
       inkscape:collect="always"
       id="linearGradient1194"><stop
         style="stop-color:#00ff00;stop-opacity:1;"
         offset="0"
         id="stop1190" /><stop
         style="stop-color:#00ff00;stop-opacity:0;"
         offset="1"
         id="stop1192" /></linearGradient><linearGradient
       inkscape:collect="always"
       xlink:href="#linearGradient1194"
       id="linearGradient1158"
       x1="112.36775"
       y1="107.6194"
       x2="116.24602"
       y2="111.50089"
       gradientUnits="userSpaceOnUse" /><linearGradient
       inkscape:collect="always"
       xlink:href="#linearGradient1194"
       id="linearGradient4"
       gradientUnits="userSpaceOnUse"
       x1="112.36775"
       y1="107.6194"
       x2="116.24602"
       y2="111.50089" /><linearGradient
       inkscape:collect="always"
       xlink:href="#linearGradient1194"
       id="linearGradient5"
       gradientUnits="userSpaceOnUse"
       x1="112.36775"
       y1="107.6194"
       x2="116.24602"
       y2="111.50089" /><linearGradient
       inkscape:collect="always"
       xlink:href="#linearGradient1194"
       id="linearGradient10"
       gradientUnits="userSpaceOnUse"
       x1="112.36775"
       y1="107.6194"
       x2="116.24602"
       y2="111.50089" /></defs><g
     inkscape:label="Button Layer"
     inkscape:groupmode="layer"
     id="layer1"
     style="display:inline"
     transform="translate(-88.295387,-98.00544)"><rect
       style="display:inline;fill:none;stroke:#00ff00;stroke-width:1.798;stroke-linecap:round;stroke-linejoin:round;stroke-dasharray:none;paint-order:markers fill stroke"
       id="rect184-2"
       width="40.5858"
       height="22.967165"
       x="89.194389"
       y="98.904434"
       ry="4.090045"
       rx="4.090045"
       inkscape:export-filename="..\..\..\..\web_dev_ai\sonar\public\assets\ui\role_sonar.svg"
       inkscape:export-xdpi="97.1796"
       inkscape:export-ydpi="97.1796" /></g><g
     inkscape:groupmode="layer"
     id="layer3"
     inkscape:label="Design Layer"
     style="display:inline"
     transform="translate(-88.295387,-98.00544)"><g
       id="g3845"
       inkscape:label="Radar RIngs"
       style="display:inline"><g
         id="g1480"
         transform="matrix(2,0,0,2,-135.47647,-106.9498)"
         style="display:inline;stroke-width:0.396875;stroke-dasharray:none"
         inkscape:label="Rings"><path
           id="circle1440"
           style="display:inline;fill:none;fill-opacity:1;stroke:url(#linearGradient4);stroke-width:0.397;stroke-linecap:butt;stroke-linejoin:round;stroke-dasharray:none;paint-order:markers fill stroke"
           d="m 113.55796,105.23459 a 2.6594286,2.6594286 0 0 1 1.44939,2.3682 v 0 a 2.6594286,2.6594286 0 0 1 -2.65943,2.65943 2.6594286,2.6594286 0 0 1 -2.65943,-2.65943 2.6594286,2.6594286 0 0 1 2.65943,-2.65943 2.6594286,2.6594286 0 0 1 0.64979,0.0806"
           transform="translate(10.133957,1.0661163)" /><path
           id="path12"
           style="display:inline;fill:none;fill-opacity:1;stroke:url(#linearGradient5);stroke-width:0.397;stroke-linecap:butt;stroke-linejoin:round;stroke-dasharray:none;paint-order:markers fill stroke"
           d="m 113.14994,106.05219 a 1.745733,1.745733 0 0 1 0.94371,1.5506 1.745733,1.745733 0 0 1 -1.74573,1.74573 1.745733,1.745733 0 0 1 -1.74573,-1.74573 1.745733,1.745733 0 0 1 1.74573,-1.74574 1.745733,1.745733 0 0 1 0.43435,0.0549"
           transform="translate(10.133957,1.0661163)" /><path
           id="path10"
           style="display:inline;fill:none;fill-opacity:1;stroke:url(#linearGradient10);stroke-width:0.397;stroke-linecap:butt;stroke-linejoin:round;stroke-dasharray:none;paint-order:markers fill stroke"
           d="m 113.99722,104.35412 a 3.643353,3.643353 0 0 1 1.99406,3.24867 3.643353,3.643353 0 0 1 -3.64336,3.64335 3.643353,3.643353 0 0 1 -3.64335,-3.64335 3.643353,3.643353 0 0 1 3.64335,-3.64335 3.643353,3.643353 0 0 1 0.88192,0.10835"
           transform="translate(10.133957,1.0661163)" /><path
           id="path8"
           style="display:inline;fill:none;fill-opacity:1;stroke:url(#linearGradient1158);stroke-width:0.397;stroke-linecap:butt;stroke-linejoin:round;stroke-dasharray:none;paint-order:markers fill stroke"
           d="m 114.40396,103.53913 a 4.5541911,4.5541911 0 0 1 2.49815,4.06366 4.5541911,4.5541911 0 0 1 -4.55419,4.55419 4.5541911,4.5541911 0 0 1 -4.55419,-4.55419 4.5541911,4.5541911 0 0 1 4.55419,-4.55419 4.5541911,4.5541911 0 0 1 1.09664,0.13401"
           transform="translate(10.133957,1.0661163)" /></g><path
         style="display:inline;fill:none;fill-opacity:1;stroke:#00ff00;stroke-width:0.565;stroke-linecap:round;stroke-linejoin:round;stroke-dasharray:none;stroke-opacity:1"
         d="m 109.52695,110.42124 2.37368,-9.43756"
         id="path538"
         sodipodi:nodetypes="cc"
         inkscape:label="Heading" /></g></g></svg>
