<?xml version="1.0" encoding="UTF-8" standalone="no"?>
<!-- Created with Inkscape (http://www.inkscape.org/) -->

<svg
   width="1.6686542in"
   height="0.97500646in"
   viewBox="0 0 42.383817 24.765164"
   version="1.1"
   id="svg5"
   inkscape:version="1.3 (0e150ed6c4, 2023-07-21)"
   sodipodi:docname="Control Panel Layout.svg"
   xml:space="preserve"
   xmlns:inkscape="http://www.inkscape.org/namespaces/inkscape"
   xmlns:sodipodi="http://sodipodi.sourceforge.net/DTD/sodipodi-0.dtd"
   xmlns:xlink="http://www.w3.org/1999/xlink"
   xmlns="http://www.w3.org/2000/svg"
   xmlns:svg="http://www.w3.org/2000/svg"><sodipodi:namedview
     id="namedview7"
     pagecolor="#ffffff"
     bordercolor="#666666"
     borderopacity="1.0"
     inkscape:showpageshadow="2"
     inkscape:pageopacity="0.0"
     inkscape:pagecheckerboard="0"
     inkscape:deskcolor="#d1d1d1"
     inkscape:document-units="mm"
     showgrid="false"
     inkscape:zoom="1.4142136"
     inkscape:cx="761.20043"
     inkscape:cy="234.40589"
     inkscape:window-width="1600"
     inkscape:window-height="837"
     inkscape:window-x="-8"
     inkscape:window-y="-8"
     inkscape:window-maximized="1"
     inkscape:current-layer="layer1"
     showguides="true"><inkscape:grid
       type="xygrid"
       id="grid1674"
       originx="-605.00002"
       originy="-86.000003"
       spacingy="1"
       spacingx="1"
       units="mm"
       visible="false" /></sodipodi:namedview><defs
     id="defs2"><linearGradient
       id="linearGradient19"
       inkscape:collect="always"
       inkscape:label="white_fade"><stop
         style="stop-color:#ffffff;stop-opacity:1;"
         offset="0.4125874"
         id="stop18" /><stop
         style="stop-color:#ffffff;stop-opacity:0;"
         offset="1"
         id="stop19" /></linearGradient><linearGradient
       inkscape:collect="always"
       xlink:href="#linearGradient19"
       id="linearGradient48"
       x1="180.27124"
       y1="22.618729"
       x2="186.37831"
       y2="42.070835"
       gradientUnits="userSpaceOnUse" /></defs><g
     inkscape:label="Button Layer"
     inkscape:groupmode="layer"
     id="layer1"
     style="display:inline"
     transform="translate(-160.07292,-22.754168)"><rect
       style="display:inline;fill:none;stroke:#ffffff;stroke-width:1.798;stroke-linecap:round;stroke-linejoin:round;stroke-dasharray:none;stroke-opacity:1;paint-order:markers fill stroke"
       id="rect2154-9"
       width="40.5858"
       height="22.967165"
       x="160.97192"
       y="23.653166"
       ry="4.090045"
       rx="4.090045"
       inkscape:export-filename="silent.svg"
       inkscape:export-xdpi="97.1796"
       inkscape:export-ydpi="97.1796"
       inkscape:label="scenario" /><path
       id="rect45"
       style="fill:url(#linearGradient48);fill-opacity:1;fill-rule:evenodd;stroke:none;stroke-width:0.661458;stroke-linecap:round"
       d="m 164.96556,33.023898 c -0.78982,0.169389 -1.06486,0.904555 -0.61667,1.648382 l 4.72965,7.849541 c 0.44819,0.743827 1.44482,1.206265 2.23464,1.036876 l 26.97816,-5.785878 c 0.78982,-0.169389 1.06485,-0.904554 0.61666,-1.648381 l -4.72965,-7.849542 c -0.44819,-0.743826 -1.44481,-1.206266 -2.23463,-1.036877 z m 13.68216,-1.493894 4.32106,-0.926717 c 0.0848,-0.01819 0.14983,0.01108 0.19587,0.08749 l 0.30739,0.510151 c 0.0481,0.07989 0.0301,0.128911 -0.0546,0.14707 l -1.73734,0.372599 1.67968,2.787664 c 0.046,0.07643 0.0288,0.123317 -0.0527,0.140803 l -0.60283,0.129284 c -0.0812,0.01741 -0.14482,-0.01215 -0.19086,-0.08857 l -1.67968,-2.787664 -1.73735,0.372601 c -0.0848,0.01819 -0.15136,-0.01268 -0.1995,-0.09257 l -0.30739,-0.510151 c -0.046,-0.07643 -0.0266,-0.123787 0.0582,-0.141972 z m 6.33451,-1.358532 1.70978,-0.366689 c 0.2803,-0.06012 0.53362,-0.08535 0.76049,-0.07516 0.22847,0.0059 0.43685,0.05152 0.62552,0.136565 0.19029,0.08078 0.36534,0.201956 0.52531,0.363761 0.15998,0.161801 0.31553,0.367757 0.46621,0.617843 l 0.53999,0.896189 c 0.15066,0.250086 0.25156,0.469704 0.30297,0.658712 0.0495,0.185504 0.0447,0.347184 -0.0138,0.485238 -0.0568,0.13377 -0.16988,0.246379 -0.33975,0.337721 -0.16617,0.09055 -0.3892,0.166072 -0.6695,0.226187 l -1.70978,0.366689 c -0.2803,0.06012 -0.53287,0.0866 -0.75765,0.07989 -0.22478,-0.0067 -0.4326,-0.05049 -0.62288,-0.131269 -0.18869,-0.08504 -0.3648,-0.207935 -0.52844,-0.368952 -0.16208,-0.165273 -0.31816,-0.373057 -0.46885,-0.623139 l -0.53998,-0.896194 c -0.15067,-0.250089 -0.25104,-0.467879 -0.30034,-0.653416 -0.0456,-0.186338 -0.0399,-0.346269 0.0169,-0.480044 0.0584,-0.138037 0.17094,-0.252468 0.33711,-0.343018 0.16408,-0.09402 0.38636,-0.170794 0.66666,-0.230909 z m 4.11059,-0.881579 2.97057,-0.637084 c 0.42414,-0.09096 0.783,-0.066 1.07623,0.07508 0.29324,0.141065 0.54655,0.388661 0.76002,0.742948 l 0.23232,0.385562 c 0.21347,0.354288 0.28236,0.641434 0.20674,0.861609 -0.0756,0.220166 -0.32565,0.37573 -0.74979,0.466693 l -2.29006,0.491139 0.60283,1.000483 c 0.046,0.07643 0.0288,0.123316 -0.0527,0.140803 l -0.59731,0.128106 c -0.0849,0.0182 -0.15034,-0.01097 -0.19638,-0.08738 l -2.03427,-3.376156 c -0.0627,-0.104215 -0.0386,-0.16812 0.0718,-0.191785 z m 1.18523,0.557432 c -0.048,0.01029 -0.059,0.03646 -0.0339,0.07814 l 0.64036,1.062778 2.11869,-0.454386 c 0.18809,-0.04034 0.29787,-0.107094 0.32928,-0.200116 0.0314,-0.09302 5e-5,-0.217863 -0.0942,-0.37415 l -0.11909,-0.197748 c -0.0942,-0.156305 -0.20318,-0.264487 -0.32668,-0.32429 -0.12349,-0.05981 -0.27938,-0.06958 -0.46748,-0.02924 z m -4.82655,1.041004 c -0.14383,0.03085 -0.25586,0.06898 -0.33711,0.113865 -0.0797,0.04062 -0.13084,0.09426 -0.15268,0.161708 -0.024,0.06397 -0.0205,0.145765 0.0101,0.245099 0.0323,0.09504 0.0895,0.210468 0.17109,0.345935 l 0.47089,0.78151 c 0.0816,0.135466 0.16146,0.24743 0.24009,0.336467 0.0802,0.08477 0.16488,0.149152 0.2537,0.192859 0.0867,0.04025 0.18375,0.06263 0.29059,0.06717 0.10844,2.65e-4 0.23423,-0.01506 0.37806,-0.0459 l 1.64314,-0.352395 c 0.14383,-0.03085 0.25586,-0.06651 0.33551,-0.107135 0.0813,-0.04488 0.13348,-0.09928 0.1574,-0.163254 0.0219,-0.06744 0.0166,-0.148846 -0.0157,-0.24391 -0.0307,-0.09931 -0.0868,-0.216373 -0.16842,-0.351838 l -0.47089,-0.781509 c -0.0816,-0.135466 -0.16254,-0.245792 -0.24275,-0.330566 -0.0786,-0.08904 -0.16146,-0.15381 -0.24819,-0.194042 -0.0889,-0.04369 -0.18688,-0.06535 -0.29533,-0.06563 -0.10684,-0.0045 -0.23261,0.0084 -0.37646,0.03916 z m -16.82307,7.49714 2.93248,-0.628915 c 0.0812,-0.01741 0.14482,0.01215 0.19087,0.08856 l 0.29799,0.494581 c 0.046,0.07642 0.0288,0.123316 -0.0526,0.140781 l -2.77163,0.594418 c -0.10695,0.02294 -0.16694,0.06543 -0.17981,0.127022 -0.0129,0.06161 0.008,0.137758 0.0622,0.228076 l 0.10666,0.176966 c 0.11717,0.194515 0.27159,0.271091 0.46338,0.229959 l 2.07458,-0.444926 c 0.32087,-0.06881 0.60997,-0.04246 0.86643,0.07904 0.25437,0.118025 0.46799,0.321227 0.64169,0.609518 l 0.2511,0.416707 c 0.15274,0.253568 0.19743,0.475538 0.13294,0.665871 -0.0644,0.190313 -0.26469,0.321623 -0.60032,0.393603 l -3.06477,0.657288 c -0.0848,0.01819 -0.15034,-0.01096 -0.19639,-0.08738 l -0.29828,-0.495051 c -0.046,-0.07642 -0.0267,-0.123779 0.0581,-0.141965 l 2.90443,-0.622899 c 0.10696,-0.02294 0.16721,-0.06496 0.18008,-0.126555 0.0129,-0.06159 -0.008,-0.137674 -0.0626,-0.227978 l -0.12877,-0.213791 c -0.11718,-0.194516 -0.27158,-0.271093 -0.46337,-0.229961 l -2.07458,0.444926 c -0.32088,0.06882 -0.60843,0.04412 -0.8628,-0.07395 -0.25646,-0.121497 -0.47162,-0.326308 -0.64534,-0.614598 l -0.22918,-0.380373 c -0.15275,-0.253565 -0.19665,-0.475174 -0.13226,-0.665485 0.0644,-0.190316 0.26419,-0.321515 0.59983,-0.393498 z m 5.33329,-1.143806 2.43438,-0.52209 c 0.0849,-0.0182 0.15034,0.01096 0.19639,0.08738 l 0.29799,0.49458 c 0.046,0.07642 0.0266,0.123785 -0.0581,0.141966 l -2.41785,0.518544 c -0.14383,0.03084 -0.25587,0.06898 -0.33711,0.113865 -0.0797,0.04062 -0.13267,0.09466 -0.15818,0.162889 -0.024,0.06397 -0.0187,0.145387 0.0157,0.243908 0.0323,0.09505 0.0895,0.210469 0.17109,0.345936 l 0.0313,0.0519 3.12592,-0.670401 c 0.0812,-0.01741 0.14431,0.01226 0.19035,0.08867 l 0.24796,0.411518 c 0.046,0.07642 0.0288,0.123316 -0.0521,0.140677 l -3.12592,0.670401 0.0535,0.08871 c 0.0816,0.135465 0.16147,0.247428 0.24008,0.336469 0.0766,0.08556 0.15937,0.150336 0.2482,0.194041 0.0904,0.03945 0.18926,0.06145 0.2961,0.066 0.10845,2.64e-4 0.23422,-0.01506 0.37806,-0.0459 l 2.41785,-0.518545 c 0.0848,-0.01819 0.15034,0.01097 0.19638,0.08738 l 0.29829,0.495051 c 0.046,0.07643 0.0266,0.123786 -0.0582,0.141972 l -2.43438,0.52209 c -0.2803,0.06012 -0.53288,0.0866 -0.75765,0.07989 -0.22478,-0.0067 -0.43262,-0.05049 -0.62289,-0.131267 -0.18868,-0.08504 -0.36479,-0.207937 -0.52844,-0.368952 -0.16207,-0.165277 -0.31815,-0.373057 -0.46883,-0.623143 l -0.54013,-0.896176 c -0.15067,-0.25009 -0.25103,-0.467881 -0.30034,-0.653418 -0.0456,-0.186337 -0.0399,-0.346269 0.0169,-0.480044 0.0584,-0.138037 0.17093,-0.252465 0.33712,-0.343018 0.16407,-0.09402 0.38634,-0.170792 0.66665,-0.230908 z m 4.7024,-1.008501 2.49501,-0.535094 c 0.0812,-0.01741 0.14483,0.01215 0.19088,0.08856 l 0.30766,0.510625 c 0.0481,0.07989 0.0309,0.128199 -0.0499,0.145524 l -2.46194,0.528 c -0.14383,0.03085 -0.25587,0.06898 -0.33712,0.113866 -0.0797,0.04062 -0.13055,0.09474 -0.15238,0.162179 -0.024,0.06397 -0.0219,0.143591 0.007,0.239407 0.0323,0.09505 0.0905,0.212197 0.17424,0.351121 l 0.44586,0.739982 c 0.0837,0.138941 0.16461,0.252616 0.24322,0.341659 0.0802,0.08477 0.16488,0.149153 0.2537,0.192859 0.0868,0.04022 0.18375,0.06263 0.29059,0.06717 0.10845,2.64e-4 0.23423,-0.01506 0.37807,-0.0459 l 2.46194,-0.528001 c 0.0812,-0.01741 0.14483,0.01215 0.19087,0.08856 l 0.30767,0.510624 c 0.046,0.07643 0.0288,0.123316 -0.0526,0.140783 l -2.495,0.535091 c -0.28031,0.06012 -0.53289,0.0866 -0.75766,0.07989 -0.22478,-0.0067 -0.43261,-0.05049 -0.6229,-0.131267 -0.18867,-0.08505 -0.36477,-0.20794 -0.52843,-0.368952 -0.16207,-0.165278 -0.31814,-0.37306 -0.46883,-0.623144 l -0.53999,-0.896187 c -0.15067,-0.250089 -0.25103,-0.46788 -0.30035,-0.653415 -0.0456,-0.186337 -0.0399,-0.346269 0.0169,-0.480045 0.0584,-0.138036 0.17094,-0.252466 0.33712,-0.343018 0.16407,-0.09402 0.38636,-0.170794 0.66666,-0.230909 z m 3.37446,-0.723705 2.97107,-0.63719 c 0.42414,-0.09096 0.78299,-0.066 1.07624,0.07507 0.29323,0.14107 0.54654,0.388665 0.76001,0.74295 l 0.17886,0.296842 c 0.17999,0.298712 0.25761,0.549071 0.23322,0.750413 -0.0244,0.201351 -0.16758,0.357263 -0.42964,0.468377 l 1.61175,0.901876 c 0.0289,0.01342 0.0499,0.03801 0.0634,0.07433 0.014,0.03622 -0.005,0.06029 -0.0571,0.07141 l -0.71357,0.153037 c -0.048,0.01029 -0.0844,0.01229 -0.10911,0.0058 -0.0248,-0.0065 -0.0535,-0.02021 -0.0867,-0.04057 l -1.52732,-0.896004 -1.78695,0.383239 0.62472,1.036821 c 0.046,0.07643 0.0288,0.123318 -0.0526,0.140783 l -0.59731,0.128105 c -0.0849,0.0182 -0.15034,-0.01097 -0.19639,-0.08738 l -2.03426,-3.376158 c -0.0627,-0.104214 -0.0386,-0.168119 0.0717,-0.191777 z m 6.24631,-1.339616 2.43438,-0.52209 c 0.0849,-0.0182 0.14984,0.01108 0.19589,0.08749 l 0.298,0.494579 c 0.046,0.07642 0.0271,0.123679 -0.0577,0.141868 l -2.41784,0.518542 c -0.14384,0.03085 -0.25638,0.06909 -0.33762,0.11398 -0.0797,0.04063 -0.13216,0.09455 -0.15768,0.162781 -0.024,0.06398 -0.0187,0.145388 0.0157,0.243909 0.0323,0.09504 0.0895,0.21047 0.17109,0.345937 l 0.0313,0.0519 3.12542,-0.670293 c 0.0812,-0.01741 0.14481,0.01215 0.19085,0.08857 l 0.24796,0.411519 c 0.046,0.07642 0.0288,0.123316 -0.0526,0.140781 l -3.12541,0.670293 0.0535,0.08871 c 0.0816,0.135465 0.16146,0.24743 0.24007,0.336471 0.0765,0.08557 0.15937,0.150335 0.2482,0.194041 0.0905,0.03942 0.18876,0.06156 0.2956,0.0661 0.10845,2.64e-4 0.23472,-0.01516 0.37857,-0.04602 l 2.41784,-0.518538 c 0.0848,-0.01819 0.14984,0.01108 0.19589,0.08749 l 0.29828,0.495051 c 0.046,0.07643 0.0271,0.12368 -0.0577,0.141867 l -2.43438,0.522091 c -0.2803,0.06011 -0.53288,0.0866 -0.75765,0.07989 -0.22477,-0.0067 -0.43262,-0.05049 -0.62289,-0.131268 -0.18868,-0.08505 -0.36479,-0.207937 -0.52844,-0.368952 -0.16207,-0.165276 -0.31815,-0.373057 -0.46884,-0.623142 l -0.53999,-0.896186 c -0.15066,-0.250091 -0.25102,-0.467881 -0.30033,-0.653418 -0.0456,-0.186338 -0.0399,-0.346269 0.0169,-0.480044 0.0584,-0.138037 0.17094,-0.252468 0.33711,-0.343018 0.16408,-0.09402 0.38635,-0.170793 0.66666,-0.230909 z m 3.08683,-0.662018 4.32105,-0.926715 c 0.0849,-0.0182 0.14983,0.01108 0.19588,0.08749 l 0.30767,0.510625 c 0.0481,0.07989 0.0299,0.128408 -0.0548,0.146581 l -1.73734,0.372598 1.67967,2.787667 c 0.0461,0.07642 0.0288,0.123316 -0.0527,0.140803 l -0.60282,0.129284 c -0.0812,0.01741 -0.14483,-0.01215 -0.19088,-0.08856 l -1.67967,-2.787666 -1.73734,0.372598 c -0.0849,0.0182 -0.1511,-0.01221 -0.19923,-0.0921 l -0.30766,-0.510626 c -0.0461,-0.07642 -0.0267,-0.123778 0.0581,-0.141965 z m -8.15053,2.553765 c -0.048,0.01029 -0.0594,0.03655 -0.0344,0.07825 l 0.65339,1.083432 2.11868,-0.454385 c 0.1881,-0.04034 0.29786,-0.107093 0.32928,-0.200116 0.0314,-0.09302 5e-5,-0.217863 -0.0942,-0.37415 l -0.13163,-0.218509 c -0.0942,-0.156305 -0.20318,-0.264487 -0.32668,-0.32429 -0.1235,-0.05981 -0.27938,-0.06958 -0.46747,-0.02924 z" /></g></svg>
