<?xml version="1.0" encoding="UTF-8" standalone="no"?>
<!-- Created with Inkscape (http://www.inkscape.org/) -->

<svg
   width="1.6686536in"
   height="0.97500616in"
   viewBox="0 0 42.383802 24.765157"
   version="1.1"
   id="svg5"
   inkscape:version="1.3 (0e150ed6c4, 2023-07-21)"
   sodipodi:docname="Control Panel Layout.svg"
   xml:space="preserve"
   xmlns:inkscape="http://www.inkscape.org/namespaces/inkscape"
   xmlns:sodipodi="http://sodipodi.sourceforge.net/DTD/sodipodi-0.dtd"
   xmlns:xlink="http://www.w3.org/1999/xlink"
   xmlns="http://www.w3.org/2000/svg"
   xmlns:svg="http://www.w3.org/2000/svg"><sodipodi:namedview
     id="namedview7"
     pagecolor="#ffffff"
     bordercolor="#666666"
     borderopacity="1.0"
     inkscape:showpageshadow="2"
     inkscape:pageopacity="0.0"
     inkscape:pagecheckerboard="0"
     inkscape:deskcolor="#d1d1d1"
     inkscape:document-units="mm"
     showgrid="false"
     inkscape:zoom="1.4142136"
     inkscape:cx="753.77583"
     inkscape:cy="470.57956"
     inkscape:window-width="2880"
     inkscape:window-height="1526"
     inkscape:window-x="-11"
     inkscape:window-y="-11"
     inkscape:window-maximized="1"
     inkscape:current-layer="layer3"
     showguides="true"><inkscape:grid
       type="xygrid"
       id="grid1674"
       originx="-141.24713"
       originy="-631.47373"
       spacingy="1"
       spacingx="1"
       units="mm"
       visible="false" /></sodipodi:namedview><defs
     id="defs2"><linearGradient
       id="linearGradient12"
       inkscape:collect="always"
       inkscape:label="white_fade"><stop
         style="stop-color:#ffffff;stop-opacity:1;"
         offset="0"
         id="stop12" /><stop
         style="stop-color:#ffffff;stop-opacity:0;"
         offset="1"
         id="stop13" /></linearGradient><linearGradient
       inkscape:collect="always"
       xlink:href="#linearGradient12"
       id="linearGradient17"
       x1="74.47821"
       y1="175.40726"
       x2="9.72861"
       y2="191.39171"
       gradientUnits="userSpaceOnUse" /></defs><g
     inkscape:label="Button Layer"
     inkscape:groupmode="layer"
     id="layer1"
     style="display:inline"
     transform="translate(-37.371635,-167.07742)"><rect
       style="display:inline;fill:none;stroke:#ffffff;stroke-width:1.798;stroke-linecap:round;stroke-linejoin:round;stroke-dasharray:none;paint-order:markers fill stroke"
       id="use5"
       width="40.5858"
       height="22.967165"
       x="38.270638"
       y="167.97643"
       ry="4.090045"
       rx="4.090045"
       inkscape:export-filename="..\..\..\..\web_dev_ai\sonar\.design\assets\torpedo_sys.svg"
       inkscape:export-xdpi="97.1796"
       inkscape:export-ydpi="97.1796" /></g><g
     inkscape:groupmode="layer"
     id="layer3"
     inkscape:label="Design Layer"
     style="display:inline"
     transform="translate(-37.371635,-167.07742)"><path
       id="path9"
       style="fill:url(#linearGradient17);fill-opacity:1;fill-rule:evenodd;stroke:none;stroke-width:0.783268;stroke-linecap:round"
       d="m 71.395927,172.93441 c -0.734168,-0.0205 -1.618921,0.0918 -2.673515,0.38368 l -14.582038,6.13398 c -0.09296,0.0442 -0.429222,0.64238 -0.444391,0.9887 -0.112111,-0.28715 -0.791707,-0.51423 -1.022011,-0.42325 -2.827721,1.17451 -1.08023,3.88454 0.623554,3.42802 0.230758,-0.0618 0.672761,-0.53825 0.80269,-0.7633 0.05727,0.11199 0.55982,0.4253 0.693752,0.38942 l 17.356467,-4.61211 c 1.399405,-0.76956 2.361679,-1.76396 2.327777,-3.0523 -0.03048,-1.15834 -0.879781,-2.41136 -3.082285,-2.47281 z m -24.395145,1.30157 c -4.451907,7.85729 -4.493162,10.56777 -4.291456,11.17015 0.388214,1.15938 1.988467,0.57064 9.812887,-1.62834 -1.497067,0.40115 -3.02655,-1.64177 -1.457614,-2.94032 -1.593138,0.92924 -4.07249,2.25152 -5.29257,1.17062 -0.01752,-0.0193 -0.03084,-0.0459 -0.05446,-0.0722 -1.043638,-1.16395 0.13917,-4.43248 1.283214,-7.69991 z"
       sodipodi:nodetypes="sccccscccsssssccccss" /></g></svg>
